<svg width="1440" height="304" viewBox="0 0 1440 304" fill="none" xmlns="http://www.w3.org/2000/svg">
<path opacity="0.4" d="M1416.13 300.787L1404.95 303M1416.13 300.787H1382.99M1416.13 300.787L1427.69 298.502M1416.13 300.787H1439.61M1404.95 303H1409.02L1413.05 302.995L1416.99 302.981L1420.82 302.953L1424.47 302.912L1427.92 302.846L1431.12 302.756L1434.1 302.642L1436.65 302.483L1438.97 302.299L1439.61 302.235V300.787M1404.95 303H1372.33M1382.99 300.787L1372.33 303M1382.99 300.787H1349.84M1382.99 300.787L1385.7 300.222L1394 298.502M1427.69 298.502H1394M1427.69 298.502L1439.61 296.143M1427.69 298.502H1439.61M1439.61 300.787V298.502M1372.33 303H1339.72M1339.72 303H1307.1M1339.72 303L1349.84 300.787M1307.1 303H1274.48M1307.1 303L1316.68 300.787M1349.84 300.787H1316.68M1349.84 300.787L1360.29 298.502M1274.48 303H1241.86M1274.48 303L1283.54 300.787M1316.68 300.787H1283.54M1316.68 300.787L1326.59 298.502M1241.86 303H1209.25M1241.86 303L1250.39 300.787M1283.54 300.787H1250.39M1283.54 300.787L1292.9 298.502M1209.25 303H1176.64M1209.25 303L1217.24 300.787M1250.39 300.787H1217.24M1250.39 300.787L1252.56 300.224L1253.66 299.94L1259.19 298.503M1176.64 303H1144.01M1176.64 303L1184.09 300.787M1217.24 300.787H1184.09M1217.24 300.787L1219.28 300.224L1225.49 298.502M1144.01 303H1111.4M1144.01 303L1150.94 300.787M1184.09 300.787H1150.94M1184.09 300.787L1191.8 298.502M1111.4 303H1078.78M1111.4 303L1117.8 300.787M1150.94 300.787H1117.8M1150.94 300.787L1152.71 300.222L1153.6 299.938L1158.09 298.502M1078.78 303H1046.17M1078.78 303L1084.64 300.787M1117.8 300.787H1084.64M1117.8 300.787L1124.4 298.503M1046.17 303H1013.55M1046.17 303L1051.49 300.787M1084.64 300.787H1051.49M1084.64 300.787L1086.13 300.224L1086.89 299.94L1090.7 298.503M1013.55 303H980.933M1013.55 303L1014.73 302.453L1016.53 301.626L1018.35 300.787M1051.49 300.787H1018.35M1051.49 300.787L1052.17 300.506L1052.85 300.222L1056.99 298.502M980.933 303H948.317M980.933 303L981.985 302.453L985.194 300.787M1018.35 300.787H985.194M1018.35 300.787L1019.57 300.222L1020.18 299.938L1023.3 298.502M948.317 303H915.7M948.317 303L952.045 300.787M985.194 300.787H952.045M985.194 300.787L989.597 298.503M915.7 303H883.083M915.7 303L916.886 302.177L918.088 301.348L918.491 301.068L918.896 300.787M952.045 300.787H918.896M952.045 300.787L952.52 300.507L952.996 300.224L953.475 299.94L955.898 298.502M883.083 303H850.467M883.083 303L884.072 302.177L884.404 301.903L884.738 301.626L885.747 300.787M918.896 300.787H885.747M918.896 300.787L919.712 300.222L920.122 299.938L920.533 299.653L922.198 298.502M850.467 303H817.85M850.467 303L852.597 300.787M885.747 300.787H852.597M885.747 300.787L886.426 300.222L887.802 299.08L888.15 298.792L888.499 298.502M817.85 303L818.047 302.727L818.244 302.453L819.245 301.068L819.448 300.787M817.85 303H785.233M852.597 300.787H819.448M852.597 300.787L852.869 300.507L853.141 300.224L853.415 299.94L854.799 298.502M819.448 300.787H786.299M819.448 300.787L821.099 298.502M785.233 303H752.617M785.233 303L786.299 300.787M752.617 303H720M752.617 303L752.815 302.177L753.149 300.787M786.299 300.787H753.149M786.299 300.787L786.434 300.506L786.57 300.222L786.707 299.938L787.399 298.502M720 303H687.383M720 303V300.787M753.149 300.787H720M753.149 300.787L753.699 298.502M687.383 303H654.767M687.383 303L687.185 302.177L686.851 300.787M720 300.787H686.851M720 300.787V298.503M654.767 303H622.15M654.767 303L653.701 300.787M686.851 300.787H653.701M686.851 300.787L686.301 298.502M622.15 303L621.953 302.727L621.756 302.453L620.755 301.068L620.552 300.787M622.15 303H589.533M653.701 300.787H620.552M653.701 300.787L653.566 300.506L653.43 300.222L653.293 299.938L652.879 299.08L652.601 298.502M620.552 300.787H587.403M620.552 300.787L618.901 298.502M589.533 303H556.917M589.533 303L587.673 301.067L587.403 300.787M556.917 303H524.3M556.917 303L555.928 302.177L555.596 301.903L554.927 301.348L554.591 301.068L554.253 300.787M587.403 300.787H554.253M587.403 300.787L587.131 300.507L586.858 300.224L586.585 299.94L585.201 298.503M524.3 303H491.683M524.3 303L523.114 302.177L521.912 301.348L521.509 301.068L521.104 300.787M554.253 300.787H521.104M554.253 300.787L553.573 300.224L552.197 299.082L551.501 298.502M491.683 303H459.067M491.683 303L487.955 300.787M521.104 300.787H487.955M521.104 300.787L520.289 300.222L519.878 299.938L519.467 299.653L517.802 298.502M459.067 303H426.45M459.067 303L458.015 302.453L454.806 300.787M487.955 300.787L487.479 300.506L484.102 298.502M487.955 300.787H454.806M426.45 303H393.833M426.45 303L421.656 300.787M454.806 300.787H421.656M454.806 300.787L454.262 300.507L450.403 298.503M393.833 303H361.217M393.833 303L388.507 300.787M421.656 300.787H388.507M421.656 300.787L420.433 300.224L419.818 299.94L416.702 298.502M361.217 303H328.6M361.217 303L355.358 300.787M388.507 300.787H355.358M388.507 300.787L387.828 300.506L387.148 300.222L383.003 298.502M328.6 303H295.984M328.6 303L322.208 300.787M355.358 300.787H322.208M355.358 300.787L353.863 300.222L353.11 299.938L349.303 298.502M295.984 303H263.367M295.984 303L289.059 300.787M322.208 300.787H289.059M322.208 300.787L321.394 300.507L315.603 298.502M263.367 303H230.75M263.367 303L255.909 300.787M289.059 300.787H255.909M289.059 300.787L287.292 300.224L286.403 299.94L281.904 298.502M230.75 303H198.134M230.75 303L222.76 300.787M255.909 300.787H222.76M255.909 300.787L248.204 298.502M198.134 303H165.517M198.134 303L189.611 300.787M222.76 300.787H189.611M222.76 300.787L220.721 300.222L214.505 298.502M165.517 303H132.9M165.517 303L156.461 300.787M189.611 300.787H156.461M189.611 300.787L187.436 300.224L186.342 299.94L180.805 298.502M132.9 303H100.284M132.9 303L123.312 300.787M156.461 300.787H123.312M156.461 300.787L147.105 298.502M100.284 303H67.667M100.284 303L90.1626 300.787M123.312 300.787H90.1626M123.312 300.787L113.405 298.502M67.667 303H35.0503M67.667 303L57.0136 300.787M90.1626 300.787H57.0136M90.1626 300.787L79.7053 298.502M35.0503 303H30.9805L26.9517 302.995L23.007 302.981L19.1863 302.953L15.5318 302.912L12.0814 302.846L8.87616 302.756L5.9021 302.644L3.35033 302.484L1.02571 302.301L0.387269 302.236V300.789M35.0503 303L23.8646 300.787M57.0136 300.787H23.8646M57.0136 300.787L54.2957 300.222L46.0059 298.503M23.8646 300.787L12.3065 298.502M23.8646 300.787H0.38827V298.502M79.7053 298.502L68.8958 296.138M79.7053 298.502H113.405M79.7053 298.502L46.0059 298.503M113.405 298.502L103.163 296.138M113.405 298.502H147.105M214.505 298.502L205.97 296.138M214.505 298.502H248.204M214.505 298.502H180.805M248.204 298.502L240.239 296.138M248.204 298.502H281.904M349.303 298.502L343.044 296.139M349.303 298.502H383.003M349.303 298.502H315.603M383.003 298.502H416.702M484.102 298.502L480.119 296.139M484.102 298.502H517.802M484.102 298.502L450.403 298.503M517.802 298.502H551.501M618.901 298.502L618.479 297.918L617.84 297.033L617.411 296.438L617.195 296.138M618.901 298.502H652.601M618.901 298.502L585.201 298.503M652.601 298.502L652.178 297.624L651.606 296.438L651.463 296.138M652.601 298.502H686.301M753.699 298.502L753.77 298.211L753.839 297.918L753.912 297.624L753.982 297.329L754.054 297.033L754.269 296.138M753.699 298.502H787.399M753.699 298.502L720 298.503M787.399 298.502L787.822 297.624L788.393 296.438L788.537 296.139M787.399 298.502H821.099M888.499 298.502L889.201 297.918L891.344 296.139M888.499 298.502H922.198M888.499 298.502H854.799M922.198 298.502H955.898M1023.3 298.502L1027.76 296.438L1028.41 296.139L1029.07 295.838L1033.72 293.693M1023.3 298.502H1056.99M1023.3 298.502L989.597 298.503M1056.99 298.502L1090.7 298.503M1158.09 298.502H1191.8M1158.09 298.502L1124.4 298.503M1191.8 298.502L1199.76 296.138M1191.8 298.502H1225.49M1292.9 298.502L1259.19 298.503M1292.9 298.502H1326.59M1326.59 298.502L1336.84 296.138M1326.59 298.502H1360.29M0.271188 280.094H0.387269M0.387269 280.094H33.6364M0.387269 280.094V277.063M0.387269 280.094V281.162M33.6364 280.094L46.2931 283.014M33.6364 280.094L20.4952 277.063M33.6364 280.094H71.7678M46.2931 283.014H8.86516M46.2931 283.014L58.4916 285.829M46.2931 283.014H83.7211M20.4952 277.063L6.84175 273.911M20.4952 277.063H59.3572M20.4952 277.063H0.387269M71.7678 280.094L83.7211 283.014M71.7678 280.094L59.3572 277.063M71.7678 280.094H109.899M8.86516 283.014L21.7401 285.829M8.86516 283.014H0.387269M8.86516 283.014L0.387269 281.162M58.4916 285.829L70.2558 288.544M58.4916 285.829H95.2411M58.4916 285.829H21.7401M83.7211 283.014L95.2411 285.829M83.7211 283.014H121.149M21.7401 285.829L34.1577 288.544M21.7401 285.829H0.387269M0.387269 283.014V281.162M0.387269 283.014V285.829M46.142 291.164H81.6087M46.142 291.164L57.7151 293.693M46.142 291.164H10.6774M46.142 291.164L34.1587 288.545M81.6087 291.164L92.5723 293.693H57.7131M81.6087 291.164L70.2548 288.545M81.6087 291.164H117.074M57.7151 293.693L68.8958 296.138M57.7151 293.693H22.8559M117.074 291.164L127.427 293.693M117.074 291.164L106.352 288.544M117.074 291.164H152.541M68.8958 296.138H103.163M68.8958 296.138H34.626M22.8559 293.693L10.6754 291.165M22.8559 293.693L34.626 296.138M22.8559 293.693H0.387269M127.427 293.693H92.5703L103.163 296.138M127.427 293.693H162.286M127.427 293.693L137.432 296.138M103.163 296.138H137.432M0.0220153 233.998H0.387269M0.387269 233.998H30.7904M0.387269 233.998V238.841V239.211M30.7904 233.998L47.1107 238.841M30.7904 233.998L13.6585 228.916M30.7904 233.998H80.0206M47.1107 238.841L62.6765 243.458M47.1107 238.841H95.1741M47.1107 238.841H0.38827M13.6585 228.916H64.1125M13.6585 228.916H0.387269M13.6585 228.916L0.387269 224.978L0.241167 224.936M80.0206 233.998L95.1741 238.841M80.0206 233.998L64.1125 228.916M80.0206 233.998L129.249 234M62.6765 243.458H15.7239M62.6765 243.458L77.5368 247.868M62.6765 243.458H109.628M95.1741 238.841L109.628 243.458M95.1741 238.841H143.238M15.7239 243.458L31.647 247.868M15.7239 243.458H0.387269M15.7239 243.458L0.387269 239.211M31.647 247.868L46.8655 252.082M31.647 247.868H77.5368M31.647 247.868H0.387269M0.387269 243.458V239.211M0.387269 243.458V247.868M46.8655 252.082H91.7407M46.8655 252.082L61.4257 256.113M46.8655 252.082H1.99038M91.7407 252.082L105.331 256.113M91.7407 252.082L77.5368 247.868M91.7407 252.082H136.617L149.236 256.113M61.4257 256.113H105.331M61.4257 256.113H17.5212M61.4257 256.113L75.3693 259.974M1.99038 252.082H0.387269M1.99038 252.082L0.387269 251.665M105.331 256.113L118.345 259.974M105.331 256.113H149.236M77.5368 247.868H123.428M17.5212 256.113L32.3945 259.974M17.5212 256.113L1.99138 252.082M17.5212 256.113H0.387269M75.3693 259.974H118.345M75.3693 259.974H32.3945M75.3693 259.974L88.7346 263.676M118.345 259.974L130.82 263.674L142.787 267.225M118.345 259.974H161.321M149.236 256.113L161.321 259.974M149.236 256.113H193.141M101.558 267.225H142.787M101.558 267.225L113.87 270.635M101.558 267.225H60.3289M101.558 267.225L88.7346 263.674M142.787 267.225L154.278 270.635M142.787 267.225H184.017M113.87 270.635H154.278M113.87 270.635H73.462M113.87 270.635L125.701 273.912M60.3289 267.225H19.0993M60.3289 267.225L73.462 270.635M60.3289 267.225L46.6514 263.674H4.56617M154.278 270.635L165.321 273.912M154.278 270.635H194.687M184.017 267.225L194.687 270.635M184.017 267.225L172.904 263.674M184.017 267.225H225.246M73.462 270.635L33.053 270.634M73.462 270.635L86.0818 273.912M125.701 273.912H165.321M125.701 273.912H86.0818M125.701 273.912L137.079 277.063M165.321 273.912L175.941 277.063M165.321 273.912L204.941 273.911M194.687 270.635L204.941 273.911M194.687 270.635H235.096M148.03 280.095H186.161M148.03 280.095L158.577 283.016M148.03 280.095H109.899M148.03 280.095L137.079 277.063M158.577 283.016L196.005 283.014M158.577 283.016L121.149 283.014M158.577 283.016L168.742 285.829M137.079 277.063H175.941M137.079 277.063H98.2182M186.161 280.094L196.005 283.014M186.161 280.094L175.941 277.063M186.161 280.094H224.293M196.005 283.014L205.493 285.829M196.005 283.014H233.433M175.941 277.063H214.802M224.293 280.094L233.433 283.014M224.293 280.094L214.802 277.063M224.293 280.094H262.424M121.149 283.014L131.992 285.829M121.149 283.014L109.899 280.094M168.742 285.829H205.493M168.742 285.829H131.992M168.742 285.829L178.546 288.545M205.493 285.829L214.642 288.545M205.493 285.829H242.243M233.433 283.014L242.243 285.829M233.433 283.014L270.862 283.016M188.007 291.164H223.472M188.007 291.164L197.142 293.693M188.007 291.164H152.541M188.007 291.164L178.546 288.545M223.472 291.164L231.999 293.693M223.472 291.164L214.642 288.545M223.472 291.164H258.939M197.142 293.693H231.999M197.142 293.693L205.97 296.138M197.142 293.693H162.286M152.541 291.164L162.286 293.693M152.541 291.164L142.449 288.544M178.546 288.545H214.642M178.546 288.545L142.449 288.544M231.999 293.693H266.857M231.999 293.693L240.239 296.138M214.642 288.545L250.74 288.544M258.939 291.164L266.857 293.693M258.939 291.164L250.74 288.544M258.939 291.164H294.405M205.97 296.138H240.239M205.97 296.138H171.701M162.286 293.693L171.701 296.138M266.857 293.693L301.714 293.695M266.857 293.693L274.508 296.138M240.239 296.138H274.508M25.6098 150.055L48.5787 159.596M25.6098 150.055L1.0117 139.839M25.6098 150.055H95.048M25.6098 150.055H0.386268M48.5787 159.596L70.0767 168.526M48.5787 159.596H115.719M48.5787 159.596H0.387269M1.0117 139.839H72.9116M1.0117 139.839H0.387269M1.0117 139.839L0.387269 139.58M95.048 150.055L115.719 159.596M95.048 150.055L72.9116 139.839M95.048 150.055H164.487M70.0767 168.526L90.2417 176.901M70.0767 168.526H135.07M70.0767 168.526H5.08553M115.719 159.596L135.07 168.526M115.719 159.596H182.863M48.1134 184.772H109.194M48.1134 184.772L67.741 192.184M48.1134 184.772L27.2669 176.901M48.1134 184.772H0.387269M109.194 184.772L127.036 192.184H67.741M109.194 184.772L90.2417 176.901M109.194 184.772H170.274M67.741 192.184H8.44386L28.6419 199.175M67.741 192.184L86.2549 199.175M27.2669 176.901H90.2417M27.2669 176.901L5.08553 168.526M90.2417 176.901H153.217M170.274 184.772L186.333 192.183M170.274 184.772L153.217 176.901M170.274 184.772H231.355M86.2549 199.175H143.868M86.2549 199.175H28.6419M86.2549 199.175L103.746 205.779M143.868 199.175L127.036 192.183H186.333M143.868 199.175L159.769 205.779M143.868 199.175H201.481M186.333 192.183L201.481 199.175M120.299 212.031H174.817M120.299 212.031L135.985 217.954M120.299 212.031H65.7807M120.299 212.031L103.746 205.781M174.817 212.031L189.077 217.954M174.817 212.031L159.769 205.781M174.817 212.031H229.335M135.985 217.954H189.077M135.985 217.954H82.8926M135.985 217.954L150.872 223.576M65.7807 212.031L82.8926 217.954M65.7807 212.031L47.7231 205.779M189.077 217.954L202.611 223.576M189.077 217.954H242.169M229.335 212.031L242.169 217.954M229.335 212.031L215.792 205.779M229.335 212.031H283.853M82.8926 217.954L29.8007 217.953M82.8926 217.954L99.1328 223.574M150.872 223.576H202.611M150.872 223.576L99.1328 223.574M150.872 223.576L165.019 228.917M202.611 223.576L215.471 228.917M202.611 223.576L254.35 223.574M242.169 217.954L254.35 223.574M242.169 217.954H295.261M178.478 234H227.708M178.478 234L191.302 238.842M178.478 234H129.249M178.478 234L165.019 228.917M227.708 234L239.365 238.842M227.708 234L215.471 228.917M227.708 234H276.937M191.302 238.842H239.365M191.302 238.842H143.238M191.302 238.842L203.531 243.46M129.249 234L143.238 238.841M129.249 234L114.566 228.916M165.019 228.917H215.471M165.019 228.917L114.566 228.916M239.365 238.842L250.483 243.46M239.365 238.842H287.429M215.471 228.917L265.924 228.916M276.937 234L287.429 238.841M276.937 234L265.924 228.916M276.937 234H326.165M226.368 252.082H271.243M226.368 252.082L237.046 256.115M226.368 252.082L181.492 252.084M226.368 252.082L215.207 247.869M271.243 252.082L280.951 256.115M271.243 252.082L261.098 247.869M271.243 252.082L316.118 252.084L324.856 256.113M237.046 256.115H280.951M237.046 256.115H193.141M237.046 256.115L247.271 259.975M280.951 256.115L290.247 259.975M280.951 256.115H324.856M247.271 259.975H290.247M247.271 259.975L204.296 259.974M247.271 259.975L257.073 263.676M290.247 259.975L299.157 263.674M290.247 259.975L333.221 259.974M266.475 267.227H307.705M266.475 267.227L275.504 270.637M266.475 267.227H225.246M266.475 267.227L257.073 263.676M307.705 267.227L308.749 267.661L315.913 270.637M307.705 267.227L299.157 263.676M307.705 267.227H348.935M275.504 270.637H315.913M275.504 270.637H235.096M275.504 270.637L284.181 273.913M257.073 263.676H299.157M257.073 263.676H214.988M315.913 270.637L323.801 273.913M315.913 270.637H356.322M299.157 263.676H341.241M284.181 273.913H323.801M284.181 273.913L244.561 273.912M284.181 273.913L292.525 277.064M323.801 273.913L330.454 276.675L331.386 277.064M323.801 273.913L363.42 273.911M300.555 280.097H338.687M300.555 280.097L308.29 283.017M300.555 280.097H262.424M300.555 280.097L292.525 277.064M338.687 280.097L345.718 283.016M338.687 280.097L335.982 278.971L331.386 277.064M338.687 280.097L376.819 280.095M292.525 277.064H331.386M292.525 277.064L253.663 277.063M345.718 283.016H308.29M345.718 283.016L352.495 285.83M345.718 283.016H383.146M331.386 277.064L370.247 277.063M308.29 283.016H270.862M308.29 283.016L315.744 285.83M270.862 283.016L278.994 285.829M270.862 283.016L269.824 282.656L262.424 280.094M383.146 283.016L389.245 285.829M383.146 283.016L376.819 280.094M383.146 283.016H420.574M329.871 291.165H365.338M329.871 291.165L336.571 293.695M329.871 291.165H294.405M329.871 291.165L322.933 288.546M365.338 291.165L369.926 293.071L370.678 293.384L371.429 293.695M365.338 291.165L359.03 288.546M365.338 291.165H400.804M336.571 293.695H371.429M336.571 293.695L343.044 296.139M336.571 293.695H301.714M371.429 293.695H406.286M371.429 293.695L377.313 296.139M343.044 296.139H377.313M343.044 296.139L308.776 296.138M301.714 293.695L294.405 291.164M301.714 293.695L308.776 296.138M406.286 293.695L400.804 291.164M406.286 293.695H441.142M406.286 293.695L411.583 296.138M377.313 296.139L411.583 296.138M377.313 296.139L379.469 297.033L383.003 298.5M50.7683 41.3753H146.373M50.7683 41.3753L80.8722 59.2386M50.7683 41.3753L17.6883 21.7475M50.7683 41.3753H0.387269M146.373 41.3753L172.177 59.2386H80.8722M146.373 41.3753L118.019 21.7475M146.373 41.3753H241.977M80.8722 59.2386L108.384 75.5635M80.8722 59.2386H0.386268M17.6883 21.7475H118.019M17.6883 21.7475L0.387269 11.4811M17.6883 21.7475H0.387269M118.019 21.7475L86.7152 0.0767828M118.019 21.7475H218.35M241.977 41.3753L263.48 59.2386M241.977 41.3753L218.35 21.7475M241.977 41.3753H337.582M108.384 75.5635H195.757M108.384 75.5635H21.0106M108.384 75.5635L133.626 90.5408M195.757 75.5635L172.176 59.2386H263.479M195.757 75.5635L217.393 90.5408M195.757 75.5635H283.132M156.865 104.331H237.313M156.865 104.331L178.333 117.069M156.865 104.331H76.4181M76.4181 104.331L100.953 117.069M76.4181 104.331L49.8576 90.5408M76.4181 104.331H0.387269M156.866 104.331L133.626 90.5408M133.626 90.5408H217.393M133.626 90.5408H49.8576M237.314 104.331L255.715 117.069M237.314 104.331L217.393 90.5408M237.314 104.331H317.762M255.715 117.069H178.334M255.715 117.069L272.765 128.872M255.715 117.069H333.096M217.393 90.5408H301.161M317.762 104.331L333.096 117.069M317.762 104.331L301.161 90.5408M317.762 104.331H398.209M178.334 117.069H100.953M178.334 117.069L198.227 128.872M100.953 117.069H23.5724M100.953 117.069L123.687 128.872M198.227 128.872H272.765M198.227 128.872H123.687M198.227 128.872L216.708 139.839M272.765 128.872L288.607 139.839M272.765 128.872H347.304M333.096 117.069L347.304 128.872M333.096 117.069H410.477M233.926 150.055H303.366M233.926 150.055L250.006 159.596M233.926 150.055H164.487M233.926 150.055L216.708 139.839M303.366 150.055L317.147 159.596M303.366 150.055L288.607 139.839M303.366 150.055H372.804M250.006 159.596H317.147M250.006 159.596H182.863M250.006 159.596L265.054 168.526M164.487 150.055L182.864 159.596M164.487 150.055L144.811 139.839M216.708 139.839H288.607M216.708 139.839H144.81M317.147 159.596L330.046 168.526M317.147 159.596H384.29M288.607 139.839H360.506M372.804 150.055L384.29 159.596M372.804 150.055L360.506 139.839M372.804 150.055L442.244 150.056M182.863 159.596L200.062 168.526M265.054 168.526H330.046M265.054 168.526H200.062M265.054 168.526L279.169 176.901M330.046 168.526L342.145 176.901M330.046 168.526H395.038M384.29 159.596L395.038 168.526M384.29 159.596L451.431 159.597M292.435 184.772H353.515M292.435 184.772L304.926 192.184M292.435 184.772H231.355M292.435 184.772L279.169 176.901M353.515 184.772L364.222 192.184H304.926M353.515 184.772L342.145 176.901M353.515 184.772H414.597M304.926 192.184H245.63M304.926 192.184L316.708 199.175M231.355 184.772L245.63 192.184M231.355 184.772L216.193 176.901M279.169 176.901H342.145M279.169 176.901H216.193M342.145 176.901H405.121M414.597 184.772L423.518 192.184M414.597 184.772L405.121 176.901M414.597 184.772L475.677 184.774M245.63 192.184H186.333M316.708 199.175H374.321M316.708 199.175L259.094 199.177M316.708 199.175L327.839 205.781M374.321 199.175L364.222 192.183H423.518M374.321 199.175L383.862 205.781M374.321 199.175L431.934 199.177M338.372 212.031H392.891M338.372 212.031L348.354 217.954M338.372 212.031H283.853M338.372 212.031L327.839 205.781M392.891 212.031L401.447 217.954M392.891 212.031L383.862 205.781M392.891 212.031H447.409M348.354 217.954H401.447M348.354 217.954H295.261M348.354 217.954L357.827 223.576M283.853 212.031L295.261 217.954M283.853 212.031L271.816 205.779M327.839 205.781H383.862M401.447 217.954L409.566 223.576M401.447 217.954H454.539M383.862 205.781H439.884M447.409 212.031L454.539 217.954M447.409 212.031L439.884 205.781M447.409 212.031H501.927M295.261 217.954L306.089 223.576M357.827 223.576H409.566M357.827 223.576H306.089M357.827 223.576L366.83 228.917M409.566 223.576L417.283 228.917M409.566 223.576H461.305M454.539 217.954L461.305 223.576M454.539 217.954H507.631M375.396 234H424.625M375.396 234L383.555 238.842M375.396 234H326.165M375.396 234L366.83 228.917M424.625 234L431.619 238.842M424.625 234L417.283 228.917M424.625 234H473.854M383.555 238.842H431.619M383.555 238.842H335.492M383.555 238.842L391.338 243.46M326.165 234L335.492 238.841M326.165 234L316.377 228.917M366.83 228.917H417.283M366.83 228.917H316.377M431.619 238.842L438.289 243.46M431.619 238.842H479.682M417.283 228.917H467.736M473.854 234L479.682 238.842M473.854 234L467.736 228.917M473.854 234H523.083M391.338 243.46H438.289M391.338 243.46H344.386M391.338 243.46L398.769 247.869M438.289 243.46L444.659 247.869M438.289 243.46H485.242M479.682 238.842L483.188 241.753L485.242 243.46M479.682 238.842H527.745M405.871 252.082H450.747M405.871 252.082L412.666 256.115M405.871 252.082L360.995 252.084M405.871 252.082L398.769 247.869M450.747 252.082L456.57 256.115M450.747 252.082L444.659 247.869M450.747 252.082L495.622 252.084M412.666 256.115H456.57M412.666 256.115H368.76M412.666 256.115L419.173 259.975M360.995 252.084L316.118 252.081L306.988 247.868M360.995 252.084L368.76 256.113M360.995 252.084L352.878 247.868M398.769 247.869H444.659M398.769 247.869H352.878M456.57 256.115L462.148 259.975M456.57 256.115H500.476M444.659 247.869H490.55M495.622 252.084L500.476 256.115M495.622 252.084L494.374 251.047L490.55 247.869M495.622 252.084H540.497M419.173 259.975H462.148M419.173 259.975H376.197M419.173 259.975L425.409 263.676M462.148 259.975L464.849 261.845L467.494 263.677M462.148 259.975H505.123M500.476 256.115L505.123 259.975M500.476 256.115H544.38M431.394 267.227H472.623M431.394 267.227L437.14 270.637M431.394 267.227H390.164M431.394 267.227L425.409 263.676M472.623 267.227L471.993 266.792L467.494 263.677M472.623 267.227L477.548 270.637M472.623 267.227H513.853M437.14 270.637H477.548M437.14 270.637H396.73M437.14 270.637L442.66 273.913M425.409 263.676L467.494 263.677M425.409 263.676L383.325 263.677M467.494 263.677L509.579 263.676M477.548 270.637L482.281 273.913M477.548 270.637H517.957M513.853 267.227L509.579 263.676M513.853 267.227H555.082M453.081 280.097H491.212M453.081 280.097L458.003 283.017M453.081 280.097H414.949M453.081 280.097L447.971 277.064M491.212 280.097L495.431 283.016M491.212 280.097L489.589 278.971L488.494 278.214L486.832 277.063M491.212 280.097L529.344 280.095M447.971 277.064L486.832 277.063M447.971 277.064L442.66 273.911M447.971 277.064H409.109M495.431 283.016H458.003M495.431 283.016L496.973 284.084L497.99 284.787L499.497 285.83M495.431 283.016H532.859M486.832 277.063L482.281 273.911M486.832 277.063H525.693M458.003 283.016H420.574M458.003 283.016L462.746 285.83M420.574 283.016L425.996 285.829M420.574 283.016L414.949 280.094M532.859 283.016L533.289 283.372L533.718 283.729L535.412 285.135L536.247 285.829M532.859 283.016L530.234 280.834L529.344 280.094M532.859 283.016H570.288M471.737 291.165H507.202M471.737 291.165L474.948 293.071L476 293.695M471.737 291.165H436.27M471.737 291.165L467.882 288.878L467.322 288.545M507.202 291.165L509.955 293.071L510.407 293.384L510.858 293.695M507.202 291.165L505.327 289.867L503.419 288.545M507.202 291.165H542.669M476 293.695H510.858M476 293.695L480.119 296.139M476 293.695H441.142M467.322 288.545H503.419M467.322 288.545L466.193 287.875L462.746 285.829M467.322 288.545L431.224 288.544M510.858 293.695H545.714M510.858 293.695L514.388 296.139M503.419 288.545L501.475 287.2L499.497 285.829M503.419 288.545L539.516 288.544M480.119 296.139H514.388M480.119 296.139L445.851 296.138M441.142 293.695L436.27 291.164M441.142 293.695L444.689 295.535L445.851 296.138M545.714 293.695L542.669 291.164M545.714 293.695H580.571M545.714 293.695L547.93 295.535L548.657 296.138M514.388 296.139L548.657 296.138M514.388 296.139L515.682 297.033L517.802 298.5M433.187 41.3766H528.791M433.187 41.3766L446.088 59.2399M433.187 41.3766H337.582M433.187 41.3766L419.009 21.7488M528.791 41.3766L537.392 59.2399M528.791 41.3766L519.34 21.7488M528.791 41.3766H624.396M446.088 59.2399H537.392M446.088 59.2399H354.784M446.088 59.2399L457.879 75.5649M537.392 59.2399L545.253 75.5649M537.392 59.2399H628.697M354.784 59.2399L263.48 59.2386M354.784 59.2399L370.505 75.5635M354.784 59.2399L337.582 41.3753M628.697 59.2399L632.626 75.5635M628.697 59.2399L624.396 41.3753M628.697 59.2399H720M478.657 104.332H559.104M478.657 104.332L487.858 117.07M478.657 104.332H398.209M478.657 104.332L468.696 90.5422M559.104 104.332L565.239 117.07M559.104 104.332L552.465 90.5422M559.104 104.332H639.552M487.858 117.07H565.239M487.858 117.07H410.477M487.858 117.07L496.383 128.874M565.239 117.07L570.921 128.874M565.239 117.07H642.619M496.383 128.874H570.921M496.383 128.874L421.844 128.872M496.383 128.874L504.303 139.841M570.921 128.874L576.203 139.841M570.921 128.874L645.461 128.872M511.682 150.056H581.122M511.682 150.056L518.574 159.597M511.682 150.056H442.244M511.682 150.056L504.303 139.841M581.122 150.056L585.716 159.597M581.122 150.056L576.203 139.841M581.122 150.056H650.561M518.574 159.597H585.716M518.574 159.597H451.431M518.574 159.597L525.024 168.527M442.244 150.056L451.431 159.597M442.244 150.056L432.404 139.839M504.303 139.841H576.203M504.303 139.841L432.404 139.839M585.716 159.597L590.016 168.527M585.716 159.597H652.858M576.203 139.841L648.101 139.839M650.561 150.056L652.858 159.597M650.561 150.056L648.101 139.839M650.561 150.056H720M451.431 159.597L460.031 168.526M525.024 168.527H590.016M525.024 168.527L460.031 168.526M525.024 168.527L531.073 176.903M590.016 168.527L594.048 176.903M590.016 168.527L655.008 168.526M652.858 159.597L655.008 168.526M652.858 159.597H720M536.758 184.774H597.838M536.758 184.774L542.111 192.186M536.758 184.774H475.677M536.758 184.774L531.073 176.903M597.838 184.774L601.408 192.186M597.838 184.774L594.048 176.903M597.838 184.774H658.92M542.111 192.186H601.408M542.111 192.186H482.815M542.111 192.186L547.16 199.177M475.677 184.774L482.815 192.186M475.677 184.774L468.097 176.901M531.073 176.903H594.048M531.073 176.903L468.097 176.901M601.408 192.186L604.774 199.177M601.408 192.186L660.704 192.184H720M594.048 176.903L657.024 176.901M658.92 184.774L660.704 192.183L662.387 199.175M658.92 184.774L657.024 176.901M658.92 184.774L720 184.772M482.815 192.186L423.518 192.184M482.815 192.186L489.547 199.175M547.16 199.177H604.774M547.16 199.177L489.547 199.175M547.16 199.177L551.931 205.779M604.774 199.177L607.954 205.779M604.774 199.177L662.387 199.175M556.444 212.031H610.963M556.444 212.031L560.722 217.954M556.444 212.031H501.927M556.444 212.031L551.931 205.781M610.963 212.031L613.815 217.954M610.963 212.031L607.954 205.781M610.963 212.031H665.482M560.722 217.954H613.815M560.722 217.954H507.631M560.722 217.954L564.783 223.576M501.927 212.031L507.631 217.954M501.927 212.031L495.907 205.781M613.815 217.954L616.522 223.576M613.815 217.954H666.908M665.482 212.031L666.908 217.954M665.482 212.031L663.977 205.779M665.482 212.031H720M507.631 217.954L513.044 223.574M564.783 223.576H616.522M564.783 223.576L513.044 223.574M564.783 223.576L568.642 228.917M616.522 223.576L619.094 228.917M616.522 223.576L668.261 223.574M666.908 217.954L668.261 223.574M666.908 217.954H720M572.312 234H621.542M572.312 234L575.809 238.842M572.312 234H523.083M572.312 234L568.642 228.917M621.542 234L623.873 238.842M621.542 234L619.094 228.917M621.542 234H670.771M575.809 238.842H623.873M575.809 238.842H527.745M575.809 238.842L577.079 240.598L579.145 243.46M523.083 234L527.745 238.842M523.083 234L518.189 228.916M568.642 228.917H619.094M568.642 228.917L518.189 228.916M623.873 238.842L626.097 243.46M623.873 238.842H671.937M619.094 228.917L669.547 228.916M670.771 234L671.937 238.841M670.771 234L669.547 228.916M670.771 234L720 233.998M527.745 238.842L532.194 243.46M585.373 252.082H630.249M585.373 252.082L588.286 256.115M585.373 252.082L540.497 252.084M585.373 252.082L583.104 248.94L582.329 247.869M630.249 252.082L630.987 253.615L632.19 256.115M630.249 252.082L628.219 247.869M630.249 252.082L675.125 252.084L676.095 256.113M588.286 256.115L588.64 256.607L591.073 259.975M588.286 256.115H632.19M588.286 256.115H544.38M540.497 252.084L544.38 256.115M540.497 252.084L540 251.567L538.491 250L536.438 247.869M632.19 256.115L632.896 257.582L633.13 258.066L633.362 258.547L634.049 259.975M632.19 256.115H676.095M591.073 259.975H634.049M591.073 259.975L548.099 259.974M591.073 259.975L593.747 263.676M544.38 256.115L548.099 259.974M634.049 259.975L634.727 261.381L634.949 261.844L635.832 263.674M634.049 259.975L677.025 259.974M596.311 267.227H637.541M596.311 267.227L597.555 268.949L597.862 269.374L598.167 269.798L598.472 270.217L598.774 270.637M596.311 267.227H555.082M596.311 267.227L593.747 263.676M637.541 267.227L638.779 269.798L638.982 270.217L639.182 270.637M637.541 267.227L635.832 263.676M637.541 267.227H678.77M598.774 270.637H639.182M598.774 270.637H558.366L557.556 269.798L555.082 267.227M598.774 270.637L600.264 272.7L600.557 273.106L601.14 273.912M555.082 267.227L553.816 265.913L552.531 264.578L551.662 263.676M593.747 263.676H635.832M593.747 263.676H551.662M639.182 270.637H679.592H720M635.832 263.676H677.916M678.77 267.227L679.592 270.635L680.38 273.912M678.77 267.227H720M601.14 273.912L640.76 273.913M601.14 273.912L561.52 273.913M601.14 273.912L603.416 277.063M639.182 270.635L640.176 272.699L640.372 273.106L640.566 273.51L640.76 273.913M640.76 273.913L642.277 277.064M640.76 273.913L680.38 273.912M605.607 280.097H643.738M605.607 280.097L607.716 283.017M605.607 280.097H567.474M605.607 280.097L605.066 279.348L604.247 278.214L603.416 277.063M643.738 280.097L643.558 279.722L642.462 277.449L642.277 277.064M643.738 280.097L645.144 283.016M643.738 280.097L681.869 280.095M603.416 277.063L642.277 277.064M603.416 277.063H564.555M642.277 277.064H681.139M645.144 283.016H607.716M645.144 283.016L645.658 284.084L645.827 284.436L645.997 284.787L646.499 285.83M645.144 283.016H682.572M681.869 280.095L682.399 282.296L682.485 282.658L682.572 283.016M681.869 280.095L681.139 277.064M681.869 280.095H720M607.716 283.016H570.288M607.716 283.016L609.748 285.83M570.288 283.016L572.998 285.829M570.288 283.016L569.942 282.656L567.474 280.094M609.748 285.83H646.499M609.748 285.83H572.998M609.748 285.83L610.245 286.519L610.492 286.861L610.737 287.2L610.982 287.539L611.225 287.876L611.469 288.212L611.709 288.545M646.499 285.83H683.249M682.572 283.016L683.249 285.83M682.572 283.016L720 283.014M613.601 291.165H649.068M613.601 291.165L614.978 293.071L615.428 293.695M613.601 291.165H578.135M613.601 291.165L612.9 290.194L612.663 289.867L612.426 289.538L611.709 288.545M649.068 291.165L649.223 291.486L649.529 292.125L649.834 292.756L650.286 293.695M649.068 291.165L648.442 289.867L648.284 289.538L647.966 288.878L647.807 288.545M649.068 291.165H684.533M615.428 293.695H650.286M615.428 293.695L616.976 295.839L617.195 296.141M615.428 293.695H580.571M611.709 288.545H647.807M611.709 288.545H575.612M650.286 293.695L650.436 294.006L650.584 294.314L650.732 294.622L650.879 294.927L651.317 295.839L651.463 296.141M650.286 293.695H685.143M647.807 288.545L647.645 288.211L647.484 287.875L647.322 287.537L647.158 287.199L646.83 286.517L646.665 286.175L646.499 285.829M647.807 288.545L683.903 288.544M580.571 293.695L578.135 291.164M580.571 293.695L581.759 294.927L582.636 295.838L582.925 296.139M685.143 293.695L684.533 291.164M685.143 293.695L685.217 294.005L685.292 294.313L685.366 294.62L685.731 296.138M685.143 293.695L720 293.693M815.604 41.3766H911.21M815.604 41.3766L811.303 59.2399M815.604 41.3766H720M815.604 41.3766L820.331 21.7488M911.21 41.3766L902.609 59.2399M911.21 41.3766L920.66 21.7488M911.21 41.3766H1006.81M811.303 59.2399H902.609M811.303 59.2399H720M811.303 59.2399L807.374 75.5649M902.609 59.2399L894.747 75.5649M902.609 59.2399H993.912M720 59.2399V75.5635M720 59.2399V41.3753M993.912 59.2399L982.121 75.5635M993.912 59.2399L1006.81 41.3753M993.912 59.2399L1085.21 59.2386M800.448 104.332H880.896M800.448 104.332L797.381 117.07M800.448 104.332H720M800.448 104.332L803.768 90.5422M880.896 104.332L874.761 117.07M880.896 104.332L887.535 90.5422M880.896 104.332H961.343M797.381 117.07H874.761M797.381 117.07H720M797.381 117.07L794.539 128.874M874.761 117.07L869.078 128.874M874.761 117.07H952.142M794.539 128.874H869.078M794.539 128.874L720 128.872M794.539 128.874L791.899 139.841M869.078 128.874L863.797 139.841M869.078 128.874L943.617 128.872M789.439 150.056H858.878M789.439 150.056L787.143 159.597M789.439 150.056H720M789.439 150.056L791.899 139.841M858.878 150.056L854.284 159.597M858.878 150.056L863.797 139.841M858.878 150.056H928.318M787.143 159.597H854.284M787.143 159.597H720M787.143 159.597L784.992 168.527M720 150.056V159.597M720 150.056V139.839M791.899 139.841H863.797M791.899 139.841L720 139.839M854.284 159.597L849.984 168.527M854.284 159.597H921.426M863.797 139.841L935.697 139.839M928.318 150.056L921.426 159.597M928.318 150.056L935.697 139.839M928.318 150.056L997.756 150.055M720 159.597V168.526M784.992 168.527H849.984M784.992 168.527L720 168.526M784.992 168.527L782.976 176.901M849.984 168.527L845.951 176.901M849.984 168.527L914.976 168.526M921.426 159.597L914.976 168.526M921.426 159.597L988.568 159.596M781.08 184.772H842.162M781.08 184.772L779.296 192.184M781.08 184.772H720M781.08 184.772L782.976 176.901M842.162 184.772L838.593 192.184H779.296M842.162 184.772L845.951 176.901M842.162 184.772H903.242M779.296 192.184H720M779.296 192.184L777.613 199.175M720 184.772V192.184M720 184.772V176.901M782.976 176.901H845.951M782.976 176.901H720M845.951 176.901H908.927M903.242 184.772L897.888 192.183M903.242 184.772L908.927 176.901M903.242 184.772H964.323M777.613 199.175H835.226M777.613 199.175H720M777.613 199.175L776.023 205.779M835.226 199.175L838.593 192.183H897.888M835.226 199.175L832.046 205.779M835.226 199.175H892.84M897.888 192.183L892.84 199.175M774.518 212.031H829.037M774.518 212.031L773.093 217.954M774.518 212.031H720M774.518 212.031L776.023 205.781M829.037 212.031L826.185 217.954M829.037 212.031L832.046 205.781M829.037 212.031H883.556M773.093 217.954H826.185M773.093 217.954H720M773.093 217.954L771.739 223.576M720 212.031V217.954M720 212.031V205.779M826.185 217.954L823.478 223.576M826.185 217.954H879.278M883.556 212.031L879.278 217.954M883.556 212.031L888.07 205.779M883.556 212.031H938.073M720 217.954V223.574M771.739 223.576H823.478M771.739 223.576L720 223.574M771.739 223.576L770.61 228.263L770.453 228.916M823.478 223.576L820.906 228.916M823.478 223.576L875.217 223.574M879.278 217.954L875.217 223.574M879.278 217.954H932.368M769.229 233.998H818.458M769.229 233.998L768.063 238.841M769.229 233.998H720M769.229 233.998L770.453 228.916M818.458 233.998L816.127 238.841M818.458 233.998L820.906 228.916M818.458 233.998H867.688M768.063 238.841H816.127M768.063 238.841H720M768.063 238.841L766.952 243.458M720 233.998V238.841M720 233.998V228.916M770.453 228.916H820.906M770.453 228.916H720M816.127 238.841L813.903 243.458M816.127 238.841H864.191M820.906 228.916H871.358M867.688 233.998L864.191 238.841M867.688 233.998L871.358 228.916M867.688 233.998H916.917M720 238.841H671.937M720 238.841V243.458M766.952 243.458H813.903M766.952 243.458H720M766.952 243.458L765.89 247.868M813.903 243.458L811.781 247.868M813.903 243.458H860.855M864.191 238.841L863.341 240.014L860.855 243.458M864.191 238.841H912.254M764.875 252.081H809.751M764.875 252.081L763.904 256.113M764.875 252.081L720 252.082M764.875 252.081L765.89 247.868M809.751 252.081L808.047 255.62L807.81 256.113M809.751 252.081L811.781 247.868M809.751 252.081L854.626 252.082M763.904 256.113L763.787 256.605L762.975 259.974M763.904 256.113H807.81M763.904 256.113H720M720 252.082L675.125 252.081L674.11 247.868M720 252.082V256.113M720 252.082V247.868M765.89 247.868H811.781M765.89 247.868H720M807.81 256.113L807.103 257.58L806.87 258.064L806.638 258.545L805.951 259.974M807.81 256.113H851.714M811.781 247.868H857.671M854.626 252.082L851.714 256.113M854.626 252.082L856.896 248.938L857.671 247.868M854.626 252.082L899.503 252.081M762.975 259.974H805.951M762.975 259.974H720M762.975 259.974L762.749 260.915L762.303 262.765L762.084 263.676M720 256.113H676.095M720 256.113V259.974M805.951 259.974L805.273 261.381L805.051 261.844L804.168 263.676M805.951 259.974H848.926M851.714 256.113L848.926 259.974M851.714 256.113L895.62 256.112M761.23 267.225H802.459M761.23 267.225L760.409 270.635M761.23 267.225H720M761.23 267.225L761.546 265.912L761.653 265.469L761.759 265.024L761.975 264.127L762.084 263.674M802.459 267.225L801.221 269.796L800.817 270.635M802.459 267.225L804.168 263.674M802.459 267.225H843.689M760.409 270.635H800.817M760.409 270.635H720M760.409 270.635L759.619 273.912M720 267.225V270.635M720 267.225V263.674M800.817 270.635L799.824 272.699L799.628 273.104L799.434 273.509L799.24 273.912M800.817 270.635H841.226M843.689 267.225L842.138 269.372L841.833 269.796L841.528 270.216L841.226 270.635M843.689 267.225L845.927 264.127L846.253 263.674M843.689 267.225L884.917 267.224M720 270.635V273.911M759.619 273.912H799.24M759.619 273.912L720 273.911M759.619 273.912L758.861 277.063M799.24 273.912L797.723 277.063M799.24 273.912L838.859 273.911M841.226 270.635L840.031 272.29L839.736 272.697L839.443 273.104L838.859 273.911M841.226 270.635L881.634 270.634M758.131 280.095H796.263M758.131 280.095L757.428 283.016M758.131 280.095H720M758.131 280.095L758.861 277.063M757.428 283.016L794.856 283.014M757.428 283.016L720 283.014M757.428 283.016L756.75 285.829M720 280.095V283.014M720 280.095V277.063M758.861 277.063H797.723M758.861 277.063H720M796.263 280.094L796.442 279.721L797.538 277.448L797.723 277.063M796.263 280.094L794.856 283.014M796.263 280.094H834.393M797.723 277.063H836.584M794.856 283.014L794.342 284.082L794.172 284.435L794.003 284.786L793.501 285.829M794.856 283.014H832.284M834.393 280.094L832.284 283.014M834.393 280.094L834.934 279.347L835.753 278.213L836.584 277.061M834.393 280.094H872.526M720 283.014V285.83H683.249M756.75 285.829H793.501M756.75 285.829H720V288.544M756.75 285.829L756.097 288.545M793.501 285.829L793.335 286.175L792.842 287.199L792.678 287.537L792.516 287.875L792.355 288.211L792.194 288.544M793.501 285.829H830.252M832.284 283.014L830.252 285.829M832.284 283.014H869.712M755.467 291.164H790.933M755.467 291.164L754.857 293.693M755.467 291.164H720M755.467 291.164L756.097 288.545M790.933 291.164L790.778 291.485L790.47 292.124L790.318 292.439L790.015 293.07L789.864 293.382L789.714 293.693M790.933 291.164L791.558 289.865L791.716 289.536L792.034 288.877L792.194 288.544M790.933 291.164H826.399M754.857 293.693L754.783 294.005L754.708 294.313L754.634 294.62L754.269 296.138M754.857 293.693H789.714M754.857 293.693H720M720 291.164H684.533M720 291.164V293.693M720 291.164V288.544M756.097 288.545L792.194 288.544M756.097 288.545L720 288.544M789.714 293.693H824.572M789.714 293.693L789.416 294.313L789.268 294.62L789.121 294.926L788.683 295.838L788.537 296.139M792.194 288.544H828.291M826.399 291.164L825.022 293.07L824.572 293.693M826.399 291.164L827.574 289.538L828.291 288.544M826.399 291.164L861.864 291.162M754.269 296.138L788.537 296.139M754.269 296.138H720M720 293.693V296.138M824.572 293.693L859.429 293.692M824.572 293.693L823.242 295.535L822.805 296.138M788.537 296.139L822.805 296.138M1198.02 41.3753H1293.63M1198.02 41.3753L1176.52 59.2386M1198.02 41.3753H1102.42M1198.02 41.3753L1221.65 21.7475M1293.63 41.3753L1267.82 59.2386M1293.63 41.3753L1321.98 21.7475M1293.63 41.3753H1389.23M1176.52 59.2386H1267.82M1176.52 59.2386H1085.21M1176.52 59.2386L1156.87 75.5635M1102.42 41.3753H1006.81M1102.42 41.3753L1085.21 59.2386M1102.42 41.3753L1121.32 21.7475M1221.65 21.7475H1321.98M1221.65 21.7475L1247.74 0.0767828M1221.65 21.7475H1121.32M1267.82 59.2386L1244.24 75.5635M1267.82 59.2386H1359.12M1321.98 21.7475L1353.28 0.0767828M1321.98 21.7475H1422.31M1389.23 41.3753L1359.12 59.2386M1389.23 41.3753L1422.31 21.7475M1389.23 41.3753H1439.61M1085.21 59.2386L1069.49 75.5635M1156.87 75.5635H1244.24M1156.87 75.5635H1069.49M1156.87 75.5635L1138.84 90.5408M1244.24 75.5635L1222.61 90.5408M1244.24 75.5635H1331.61M1359.12 59.2386L1331.61 75.5635M1359.12 59.2386H1439.61M1122.24 104.331H1202.69M1122.24 104.331L1106.91 117.069M1122.24 104.331H1041.79M1122.24 104.331L1138.84 90.5408M1202.69 104.331L1184.28 117.069M1202.69 104.331L1222.61 90.5408M1202.69 104.331H1283.13M1106.91 117.069H1184.28M1106.91 117.069H1029.52M1106.91 117.069L1092.7 128.872M1041.79 104.331H961.343M1041.79 104.331L1029.52 117.069M1041.79 104.331L1055.07 90.5408M1138.84 90.5408H1222.61M1138.84 90.5408H1055.07M1184.28 117.069L1167.23 128.872M1184.28 117.069H1261.67M1222.61 90.5408H1306.38M1283.13 104.331L1261.67 117.069M1283.13 104.331L1306.38 90.5408M1283.13 104.331H1363.58M1029.52 117.069H952.142M1029.52 117.069L1018.16 128.872M1092.7 128.872H1167.23M1092.7 128.872H1018.16M1092.7 128.872L1079.49 139.839M1167.23 128.872L1151.39 139.839M1167.23 128.872H1241.77M1261.67 117.069L1241.77 128.872M1261.67 117.069L1339.05 117.068M1067.19 150.055H1136.64M1067.19 150.055L1055.71 159.596M1067.19 150.055H997.756M1067.19 150.055L1079.49 139.839M1136.64 150.055L1122.85 159.596M1136.64 150.055L1151.39 139.839M1136.64 150.055H1206.08M1055.71 159.596H1122.85M1055.71 159.596H988.568M1055.71 159.596L1044.97 168.526M997.756 150.055L988.568 159.596M997.756 150.055L1007.6 139.839M1079.49 139.839H1151.39M1079.49 139.839H1007.6M1122.85 159.596L1109.95 168.526M1122.85 159.596H1190M1151.39 139.839H1223.29M1206.08 150.055L1190 159.596M1206.08 150.055L1223.29 139.839M1206.08 150.055L1275.52 150.054M988.568 159.596L979.969 168.526M1044.97 168.526H1109.95M1044.97 168.526H979.969M1044.97 168.526L1034.88 176.901M1109.95 168.526L1097.85 176.901M1109.95 168.526H1174.95M1190 159.596L1174.95 168.526M1190 159.596L1257.13 159.595M1025.4 184.772H1086.48M1025.4 184.772L1016.49 192.184M1025.4 184.772H964.323M1025.4 184.772L1034.88 176.901M1086.48 184.772L1075.78 192.184H1016.49M1086.48 184.772L1097.85 176.901M1086.48 184.772H1147.57M1016.49 192.184H957.185M1016.49 192.184L1008.07 199.175M964.323 184.772L957.185 192.184M964.323 184.772L971.903 176.901M1034.88 176.901H1097.85M1034.88 176.901H971.903M1097.85 176.901H1160.83M1147.57 184.772L1135.08 192.183M1147.57 184.772L1160.83 176.901M1147.57 184.772L1208.65 184.771M957.185 192.184H897.888M1008.07 199.175H1065.68M1008.07 199.175H950.453M1008.07 199.175L1000.12 205.779M1065.68 199.175L1075.78 192.183H1135.08M1065.68 199.175L1056.14 205.779M1065.68 199.175H1123.29M1135.08 192.183L1123.29 199.175M992.591 212.031H1047.11M992.591 212.031L985.461 217.954M992.591 212.031H938.073M992.591 212.031L1000.12 205.781M1047.11 212.031L1038.55 217.954M1047.11 212.031L1056.14 205.781M1047.11 212.031H1101.62M985.461 217.954H1038.55M985.461 217.954H932.368M985.461 217.954L978.695 223.576M938.073 212.031L936.618 213.54L932.368 217.954M938.073 212.031L944.093 205.779M1038.55 217.954L1030.44 223.576M1038.55 217.954H1091.65M1101.62 212.031L1091.65 217.954M1101.62 212.031L1112.16 205.779M1101.62 212.031H1156.14M932.368 217.954L926.956 223.574M978.695 223.576H1030.44M978.695 223.576L926.956 223.574M978.695 223.576L972.265 228.916M1030.44 223.576L1022.72 228.916M1030.44 223.576L1082.17 223.574M1091.65 217.954L1082.17 223.574M1091.65 217.954L1144.73 217.953M966.147 233.998H1015.38M966.147 233.998L960.318 238.841M966.147 233.998H916.917M966.147 233.998L972.265 228.916M1015.38 233.998L1008.38 238.841M1015.38 233.998L1022.72 228.916M1015.38 233.998H1064.61M960.318 238.841H1008.38M960.318 238.841H912.254M960.318 238.841L954.759 243.458M916.917 233.998L912.254 238.841M916.917 233.998L921.811 228.916M972.265 228.916H1022.72M972.265 228.916H921.811M1008.38 238.841L1001.71 243.458M1008.38 238.841H1056.44M1022.72 228.916H1073.17M1064.61 233.998L1056.44 238.841M1064.61 233.998L1073.17 228.916M1064.61 233.998H1113.83M912.254 238.841L907.806 243.458M954.759 243.458H1001.71M954.759 243.458H907.806M954.759 243.458L949.45 247.866M1001.71 243.458L995.341 247.866M1001.71 243.458H1048.66M1056.44 238.841L1048.66 243.458M1056.44 238.841H1104.51M944.378 252.08L944.999 251.564L945.626 251.043L949.45 247.866M944.378 252.08L989.254 252.081M944.378 252.08L939.524 256.112M944.378 252.08L899.503 252.081M949.45 247.866H995.341M949.45 247.866L903.561 247.868M989.254 252.081L983.43 256.112M989.254 252.081L995.341 247.866M989.254 252.081H1034.13M939.524 256.112H983.43M939.524 256.112H895.62M939.524 256.112L934.877 259.973M899.503 252.081L895.62 256.112M899.503 252.081L901.509 249.998L903.561 247.868M983.43 256.112L977.852 259.973M983.43 256.112H1027.33M995.341 247.866L1041.23 247.868M1034.13 252.081L1027.33 256.112M1034.13 252.081L1041.23 247.868M1034.13 252.081H1079.01M895.62 256.112L891.901 259.974M934.877 259.973H977.852M934.877 259.973L891.901 259.974M934.877 259.973L933.745 260.915L930.421 263.676M977.852 259.973L975.821 261.381L975.151 261.844L972.506 263.673L967.378 267.224M977.852 259.973L1020.83 259.974M1027.33 256.112L1020.83 259.974M1027.33 256.112H1071.24M926.147 267.224H967.378M926.147 267.224L922.043 270.634M926.147 267.224H884.917M926.147 267.224L930.421 263.673M967.378 267.224L964.276 269.371L962.452 270.632M967.378 267.224H1008.61M922.043 270.634L962.452 270.632M922.043 270.634H881.634M922.043 270.634L918.585 273.508L918.099 273.911M884.917 267.224L882.444 269.796L881.634 270.634M884.917 267.224L886.184 265.912L888.338 263.676M962.452 270.632L957.719 273.911M962.452 270.632L1002.86 270.634M1008.61 267.224L1002.86 270.634M1008.61 267.224L1014.59 263.674M1008.61 267.224H1049.84M881.634 270.634L878.48 273.912M918.099 273.911H957.719M918.099 273.911L878.48 273.912M918.099 273.911L914.307 277.063M957.719 273.911L953.168 277.063M957.719 273.911H997.34M1002.86 270.634L999.384 272.697L998.699 273.104L997.34 273.911M1002.86 270.634H1043.26M910.656 280.094H948.788M910.656 280.094L909.766 280.834L907.141 283.014M910.656 280.094H872.526M910.656 280.094L911.556 279.345L913.381 277.829L914.307 277.061M948.788 280.094L944.569 283.013M948.788 280.094L950.411 278.968L951.506 278.212L953.168 277.06M948.788 280.094L986.919 280.093M872.526 280.094L870.059 282.656L869.712 283.014M872.526 280.094L872.884 279.721L873.245 279.347L873.608 278.971L875.445 277.063M944.569 283.013H907.141M944.569 283.013L943.027 284.081L942.01 284.784L940.503 285.828M944.569 283.013H981.997M986.919 280.093L981.997 283.014M986.919 280.093L990.089 278.213L990.734 277.83L992.029 277.063M986.919 280.093L1025.05 280.094M907.141 283.013H869.712M907.141 283.013L904.588 285.134L903.753 285.828M903.753 285.828H940.503M903.753 285.828L867.002 285.829M903.753 285.828L900.485 288.544M940.503 285.828L938.525 287.199L938.035 287.537L936.581 288.544M940.503 285.828L977.254 285.829M897.331 291.162H932.798M897.331 291.162L895.415 292.753L894.286 293.692M897.331 291.162H861.864M897.331 291.162L900.485 288.544M932.798 291.162L930.045 293.068L929.593 293.381L929.142 293.692M932.798 291.162L934.673 289.864L936.581 288.542M932.798 291.162H968.263M894.286 293.692H929.142M894.286 293.692L892.802 294.926L892.069 295.533L891.705 295.835L891.344 296.137M894.286 293.692H859.429M861.864 291.162L860.03 293.07L859.429 293.692M861.864 291.162L864.388 288.544M900.485 288.544H936.581M900.485 288.544H864.388M929.142 293.692H964M929.142 293.692L925.612 296.137M968.263 291.162L965.052 293.07L964 293.692M968.263 291.162L972.118 288.877L972.678 288.544M968.263 291.162L1003.73 291.164M891.344 296.137H925.612M891.344 296.137L857.075 296.139M859.429 293.692L858.241 294.927L857.364 295.838L857.075 296.139M964 293.692L998.858 293.693M964 293.692L959.881 296.138M925.612 296.137L959.881 296.138M925.612 296.137L924.318 297.033L922.198 298.5M1416.42 117.068H1339.05M1416.42 117.068L1390.86 128.871M1416.42 117.068H1439.61M1416.42 117.068L1439.61 106.368M1339.05 117.068L1316.31 128.872M1339.05 117.068L1363.58 104.331M1390.86 128.871L1367.09 139.838M1390.86 128.871L1316.31 128.872M1390.86 128.871L1439.61 128.872M1439.61 117.068V128.872M1439.61 117.068V106.368M1439.61 106.368V104.331M1344.95 150.054H1414.39M1344.95 150.054L1324.28 159.595M1344.95 150.054H1275.52M1344.95 150.054L1367.09 139.838M1414.39 150.054L1391.43 159.595M1414.39 150.054L1438.99 139.838M1414.39 150.054H1439.61M1324.28 159.595H1391.43M1324.28 159.595H1257.13M1324.28 159.595L1304.93 168.524M1275.52 150.054L1257.13 159.595M1275.52 150.054L1295.19 139.839M1367.09 139.838H1438.99M1367.09 139.838L1295.19 139.839M1391.43 159.595L1369.92 168.524M1391.43 159.595H1439.61M1438.99 139.838L1439.61 139.839M1438.99 139.838L1439.61 139.58M1439.61 150.054V159.595M1439.61 150.054V139.839M1257.13 159.595L1239.94 168.526M1304.93 168.524H1369.92M1304.93 168.524L1239.94 168.526M1304.93 168.524L1286.78 176.9M1369.92 168.524L1349.76 176.9M1369.92 168.524L1434.92 168.526M1439.61 159.595V166.751M1269.72 184.771H1330.8M1269.72 184.771L1253.67 192.183M1269.72 184.771H1208.65M1269.72 184.771L1286.78 176.9M1330.8 184.771L1312.96 192.183M1330.8 184.771L1349.76 176.9M1330.8 184.771H1391.89M1253.67 192.183H1312.96M1253.67 192.183H1194.37L1180.91 199.175M1253.67 192.183L1238.52 199.174M1208.65 184.771L1194.37 192.184H1135.08M1208.65 184.771L1223.81 176.901M1286.78 176.9H1349.76M1286.78 176.9L1223.81 176.901M1312.96 192.183L1296.13 199.174M1312.96 192.183L1372.26 192.182M1349.76 176.9L1412.73 176.901M1391.89 184.771L1372.26 192.182M1391.89 184.771L1412.73 176.901M1391.89 184.771L1439.61 184.772M1238.52 199.174H1296.13M1238.52 199.174L1180.91 199.175M1238.52 199.174L1224.21 205.779M1296.13 199.174L1280.23 205.779M1296.13 199.174L1353.75 199.175M1372.26 192.182L1353.75 199.175M1210.66 212.031H1265.18M1210.66 212.031L1197.83 217.954M1210.66 212.031H1156.14M1210.66 212.031L1224.21 205.781M1265.18 212.031L1250.92 217.954M1265.18 212.031L1280.23 205.781M1265.18 212.031H1319.71M1197.83 217.954H1250.92M1197.83 217.954L1144.73 217.953M1197.83 217.954L1185.65 223.574M1156.14 212.031L1144.73 217.953M1156.14 212.031L1168.18 205.779M1250.92 217.954L1237.39 223.574M1250.92 217.954L1304.02 217.953M1319.71 212.031L1304.02 217.953M1319.71 212.031L1336.26 205.779M1319.71 212.031L1374.22 212.03M1144.73 217.953L1133.91 223.574M1185.65 223.574H1237.39M1185.65 223.574H1133.91M1185.65 223.574L1174.08 228.916M1237.39 223.574L1224.53 228.916M1237.39 223.574H1289.13M1304.02 217.953L1289.13 223.574M1304.02 217.953H1357.1M1163.07 233.998H1212.29M1163.07 233.998L1152.57 238.841M1163.07 233.998H1113.83M1163.07 233.998L1174.08 228.916M1212.29 233.998L1200.63 238.841M1212.29 233.998L1224.53 228.916M1212.29 233.998H1261.53M1152.57 238.841H1200.63M1152.57 238.841H1104.51M1152.57 238.841L1142.56 243.458M1113.83 233.998L1104.51 238.841M1113.83 233.998L1123.62 228.916M1174.08 228.916H1224.53M1174.08 228.916H1123.62M1200.63 238.841L1189.52 243.458M1200.63 238.841H1248.7M1224.53 228.916H1274.99M1261.53 233.998L1248.7 238.841M1261.53 233.998L1274.99 228.916M1261.53 233.998H1310.75M1104.51 238.841L1095.61 243.458M1142.56 243.458H1189.52M1142.56 243.458H1095.61M1142.56 243.458L1133.02 247.866M1189.52 243.458L1178.9 247.866M1189.52 243.458H1236.47M1248.7 238.841L1236.47 243.458M1248.7 238.841H1296.76M1123.88 252.08H1168.75M1123.88 252.08L1115.14 256.112M1123.88 252.08L1079.01 252.081M1123.88 252.08L1133.02 247.866M1168.75 252.08L1159.04 256.112M1168.75 252.08L1178.9 247.866M1168.75 252.08L1213.63 252.081M1115.14 256.112H1159.04M1115.14 256.112H1071.24M1115.14 256.112L1106.78 259.973M1079.01 252.081L1071.24 256.112M1079.01 252.081L1087.12 247.868M1133.02 247.866H1178.9M1133.02 247.866L1087.12 247.868M1159.04 256.112L1149.75 259.973M1159.04 256.112H1202.96M1178.9 247.866L1224.79 247.868M1213.63 252.081L1202.96 256.112M1213.63 252.081L1224.79 247.868M1213.63 252.081L1258.5 252.082M1071.24 256.112L1063.8 259.973M1106.78 259.973H1149.75M1106.78 259.973H1063.8M1106.78 259.973L1098.76 263.673M1149.75 259.973L1140.84 263.673M1149.75 259.973H1192.73M1202.96 256.112L1192.73 259.973M1202.96 256.112L1246.86 256.113M1091.07 267.224H1132.3M1091.07 267.224L1083.68 270.634M1091.07 267.224H1049.84M1091.07 267.224L1098.76 263.673M1132.3 267.224L1124.09 270.634M1132.3 267.224L1140.84 263.673M1132.3 267.224H1173.52M1083.68 270.634H1124.09M1083.68 270.634H1043.26M1083.68 270.634L1076.58 273.911M1049.84 267.224L1043.26 270.634M1049.84 267.224L1056.67 263.674M1098.76 263.673H1140.84M1124.09 270.634L1116.2 273.911L1109.55 276.673L1108.61 277.061M1124.09 270.634H1164.5M1140.84 263.673H1182.93M1173.52 267.224L1164.5 270.634M1173.52 267.224L1182.93 263.673M1173.52 267.224L1214.75 267.225M1043.26 270.634L1036.96 273.911M1076.58 273.911H1036.96M1076.58 273.911L1069.75 277.061M1164.5 270.634L1155.82 273.909M1164.5 270.634L1204.91 270.635H1245.31M1063.18 280.094H1101.31M1063.18 280.094L1056.85 283.014M1063.18 280.094H1025.05M1063.18 280.094L1064.8 279.345L1065.62 278.97L1069.75 277.061M1101.31 280.094L1094.28 283.013M1101.31 280.094L1108.61 277.061M1101.31 280.094L1139.44 280.093M1025.05 280.094L1019.43 283.014M1025.05 280.094L1030.9 277.063M1069.75 277.061H1108.61M1069.75 277.061H1030.9M1094.28 283.013H1056.85M1094.28 283.013L1087.51 285.828M1094.28 283.013H1131.71M1108.61 277.061H1147.48M1139.44 280.093L1131.71 283.013M1139.44 280.093L1147.48 277.061M1139.44 280.093H1177.58M1056.85 283.013H1019.43M1056.85 283.013L1050.76 285.828M1050.76 285.828H1087.51M1050.76 285.828H1014M1050.76 285.828L1044.88 288.542M1087.51 285.828L1080.97 288.542M1087.51 285.828H1124.26M1131.71 283.013L1124.26 285.828M1131.71 283.013H1169.14M1039.19 291.162H1074.67M1039.19 291.162L1033.72 293.693M1039.19 291.162L1003.73 291.164M1039.19 291.162L1044.88 288.545M1074.67 291.162L1070.07 293.07L1069.32 293.382L1068.57 293.693M1074.67 291.162L1080.97 288.545M1074.67 291.162L1110.13 291.164M1033.72 293.693H1068.57M1033.72 293.693H998.858M1003.73 291.164L998.858 293.693M1003.73 291.164L1008.77 288.544M1068.57 293.693H1103.43M1068.57 293.693L1062.69 296.138M1110.13 291.164L1103.43 293.693M1110.13 291.164L1117.07 288.544M1110.13 291.164H1145.6M998.858 293.693L995.311 295.535L994.149 296.138M1103.43 293.693H1138.29M1103.43 293.693L1096.95 296.137M1062.69 296.138L1096.95 296.137M1062.69 296.138L1060.53 297.032L1056.99 298.499M1062.69 296.138L1028.41 296.137L994.149 296.138M1428.74 212.03L1410.2 217.953M1428.74 212.03H1374.22M1428.74 212.03L1439.61 208.556M1428.74 212.03H1439.61M1410.2 217.953H1357.1M1410.2 217.953L1392.61 223.574M1410.2 217.953H1439.61M1374.22 212.03L1357.1 217.953M1374.22 212.03L1392.28 205.779M1439.61 208.556V212.03M1439.61 208.556V205.779M1439.61 212.03V217.953M1357.1 217.953L1340.87 223.574M1392.61 223.574L1375.89 228.916M1392.61 223.574H1340.87M1392.61 223.574H1439.61M1439.61 217.953V223.574M1359.98 233.998H1409.21M1359.98 233.998L1344.82 238.841M1359.98 233.998H1310.75M1359.98 233.998L1375.89 228.916M1409.21 233.998L1392.89 238.841M1409.21 233.998L1426.34 228.916M1409.21 233.998H1439.61M1344.82 238.841H1392.89M1344.82 238.841H1296.76M1344.82 238.841L1330.37 243.458M1310.75 233.998L1296.76 238.841M1310.75 233.998L1325.43 228.914M1375.89 228.916H1426.34M1375.89 228.916L1325.43 228.914M1392.89 238.841L1377.33 243.458M1392.89 238.841H1439.61M1426.34 228.916L1439.61 224.977M1426.34 228.916L1439.61 228.914M1439.61 233.998L1439.98 233.997M1439.61 233.998V238.841M1439.61 233.998V228.914M1296.76 238.841L1283.42 243.457M1330.37 243.458H1377.33M1330.37 243.458L1283.42 243.457M1330.37 243.458L1316.57 247.868M1377.33 243.458L1362.47 247.868M1377.33 243.458L1424.28 243.457M1439.61 238.841V239.21M1303.39 252.081H1348.26M1303.39 252.081L1290.77 256.113M1303.39 252.081L1258.5 252.082M1303.39 252.081L1316.57 247.868M1348.26 252.081L1334.67 256.113M1348.26 252.081L1362.47 247.868M1348.26 252.081L1393.14 252.082L1378.58 256.113M1290.77 256.113H1334.67M1290.77 256.113H1246.86M1290.77 256.113L1278.68 259.974M1258.5 252.082L1246.86 256.113M1258.5 252.082L1270.68 247.866M1316.57 247.868H1362.47M1316.57 247.868L1270.68 247.866M1334.67 256.113L1321.66 259.974M1334.67 256.113H1378.58M1362.47 247.868L1408.35 247.866M1246.86 256.113L1235.71 259.973M1278.68 259.974H1321.66M1278.68 259.974L1235.71 259.973M1278.68 259.974L1267.1 263.674M1321.66 259.974L1309.18 263.674M1321.66 259.974L1364.63 259.973M1378.58 256.113L1364.63 259.973M1378.58 256.113L1422.48 256.112M1255.98 267.225H1297.21M1255.98 267.225L1245.31 270.635M1255.98 267.225H1214.75M1255.98 267.225L1267.1 263.674M1297.21 267.225L1285.72 270.635M1297.21 267.225L1309.18 263.674M1297.21 267.225H1338.44M1245.31 270.635H1285.72M1245.31 270.635L1235.06 273.912M1214.75 267.225L1204.91 270.632L1195.44 273.909L1186.33 277.061M1214.75 267.225L1225.01 263.674M1267.1 263.674H1309.18M1267.1 263.674H1225.01M1285.72 270.635L1274.68 273.912M1285.72 270.635H1326.13M1309.18 263.674L1351.27 263.673M1338.44 267.225L1326.13 270.632M1338.44 267.225L1351.27 263.673M1338.44 267.225H1379.67M1235.06 273.912L1195.44 273.911H1155.82M1235.06 273.912L1225.2 277.061M1215.7 280.095H1253.84M1215.7 280.095L1206.57 283.016M1215.7 280.095H1177.58M1215.7 280.095L1225.2 277.063M1206.57 283.016L1243.99 283.014M1206.57 283.016L1169.14 283.014M1206.57 283.016L1197.76 285.829M1253.84 280.094L1243.99 283.014M1253.84 280.094L1264.06 277.063M1253.84 280.094H1291.97M1243.99 283.014L1234.51 285.829M1243.99 283.014H1281.42M1291.97 280.094L1281.42 283.013M1291.97 280.094L1302.92 277.061M1291.97 280.094L1330.1 280.093M1197.76 285.829H1234.51M1197.76 285.829L1161.01 285.828M1197.76 285.829L1189.26 288.542H1153.16M1234.51 285.829L1225.36 288.545M1234.51 285.829H1271.25M1181.06 291.164H1216.52M1181.06 291.164L1173.14 293.693M1181.06 291.164H1145.6M1181.06 291.164L1189.26 288.545H1225.36M1216.52 291.164L1208 293.693M1216.52 291.164L1225.36 288.545M1216.52 291.164H1251.99M1173.14 293.693H1208M1173.14 293.693L1165.49 296.138M1173.14 293.693H1138.29M1145.6 291.164L1138.29 293.693M1145.6 291.164L1153.16 288.544M1208 293.693H1242.85M1208 293.693L1199.76 296.138M1225.36 288.545L1261.46 288.544M1251.99 291.164L1242.85 293.693M1251.99 291.164L1261.46 288.544M1251.99 291.164H1287.46M1165.49 296.138H1199.76M1165.49 296.138L1158.09 298.5M1165.49 296.138L1131.23 296.137M1138.29 293.693L1131.23 296.137M1242.85 293.693H1277.72M1242.85 293.693L1234.03 296.138M1199.76 296.138H1234.03M1420.9 267.225L1406.95 270.635M1420.9 267.225H1379.67M1420.9 267.225L1435.44 263.674M1420.9 267.225H1439.61M1406.95 270.635H1366.54L1326.13 270.632M1406.95 270.635L1393.54 273.912M1406.95 270.635H1439.61M1379.67 267.225L1366.54 270.632L1353.92 273.909L1341.78 277.061M1379.67 267.225L1393.35 263.673M1435.44 263.674L1393.35 263.673M1435.44 263.674H1439.61M1435.44 263.674L1439.61 262.653M1439.61 267.225V270.635M1439.61 267.225V263.674M1393.54 273.912L1433.16 273.911M1393.54 273.912H1353.92L1314.3 273.911M1393.54 273.912L1380.64 277.063M1439.61 270.635V272.422M1368.23 280.095H1406.37M1368.23 280.095L1356.28 283.016M1368.23 280.095H1330.1M1368.23 280.095L1380.64 277.063M1356.28 283.016L1393.71 283.014M1356.28 283.016L1318.86 283.014M1356.28 283.016L1344.75 285.829M1380.64 277.063H1419.51M1380.64 277.063H1341.78M1406.37 280.094L1393.71 283.014M1406.37 280.094L1419.51 277.063M1406.37 280.094H1439.61M1393.71 283.014L1381.51 285.829M1393.71 283.014H1431.13M1419.51 277.063L1433.16 273.911M1419.51 277.063H1439.61M1439.61 280.094H1439.73M1439.61 280.094V281.162M1439.61 280.094V277.063M1344.75 285.829H1381.51M1344.75 285.829H1308.01M1344.75 285.829L1333.65 288.545M1381.51 285.829L1369.74 288.545M1381.51 285.829H1418.26M1431.13 283.014L1418.26 285.829M1431.13 283.014L1439.61 281.162M1431.13 283.014H1439.61M1322.93 291.164H1358.39M1322.93 291.164L1312.57 293.693M1322.93 291.164H1287.46M1322.93 291.164L1333.65 288.545M1358.39 291.164L1347.43 293.693M1358.39 291.164L1369.74 288.545M1358.39 291.164H1393.86M1312.57 293.693H1347.43M1312.57 293.693L1302.56 296.138M1312.57 293.693H1277.72M1287.46 291.164L1277.72 293.693M1287.46 291.164L1297.55 288.544M1333.65 288.545H1369.74M1333.65 288.545L1297.55 288.544M1347.43 293.693H1382.29M1347.43 293.693L1336.84 296.138M1369.74 288.545L1405.85 288.544M1393.86 291.164L1382.29 293.693M1393.86 291.164L1405.85 288.544M1393.86 291.164H1429.32M1302.56 296.138H1336.84M1302.56 296.138H1268.3M1302.56 296.138L1292.9 298.5M1277.72 293.693L1268.3 296.138M1382.29 293.693H1417.14M1382.29 293.693L1371.1 296.138M1336.84 296.138H1371.1M1405.85 288.544L1418.26 285.829M1405.85 288.544H1439.61M1429.32 291.164L1417.14 293.693M1429.32 291.164L1439.61 289.028M1429.32 291.164H1439.61M1417.14 293.693L1405.38 296.138M1417.14 293.693H1439.61M1371.1 296.138H1405.38M1371.1 296.138L1360.29 298.502M1418.26 285.829H1439.61M1439.61 288.544V289.028M1439.61 288.544V285.829M1439.61 289.028V291.164M1439.61 291.164V293.693M1405.38 296.138L1394 298.502M1405.38 296.138H1439.61M1439.61 293.693V296.138M1360.29 298.502H1394M1439.61 296.138H1439.64L1439.61 296.143M1439.61 296.138V296.143M1439.61 281.162V283.014M1439.61 283.014V285.829M1308.01 285.829L1297.55 288.544M1308.01 285.829H1271.25M1308.01 285.829L1318.86 283.013M1297.55 288.544H1261.46M1433.16 273.911L1439.61 272.422M1433.16 273.911L1439.61 273.912M1439.61 277.063V273.912M1439.61 272.422V273.912M1261.46 288.544L1271.25 285.829M1234.03 296.138H1268.3M1234.03 296.138L1225.49 298.502M1271.25 285.829L1281.42 283.013M1268.3 296.138L1259.19 298.5M1225.49 298.502L1259.19 298.503M1281.42 283.013H1318.86M1318.86 283.013L1330.1 280.093M1161.01 285.828L1153.16 288.542M1161.01 285.828H1124.26M1161.01 285.828L1169.14 283.013M1153.16 288.542H1117.07M1302.92 277.061H1264.06M1302.92 277.061L1314.3 273.909M1302.92 277.061H1341.78M1330.1 280.093L1341.78 277.061M1264.06 277.061L1274.68 273.909M1264.06 277.061H1225.2M1274.68 273.909H1314.3M1274.68 273.909H1235.06M1225.2 277.061H1186.33M1314.3 273.909L1326.13 270.632M1186.33 277.061L1177.58 280.093M1186.33 277.061H1147.48M1351.27 263.673L1364.63 259.973M1351.27 263.673H1393.35M1393.35 263.673L1407.61 259.973M1364.63 259.973H1407.61M1407.61 259.973L1422.48 256.112M1407.61 259.973H1439.61M1439.61 263.674V262.653M1439.61 262.653V259.973M1422.48 256.112L1438.01 252.081M1422.48 256.112H1439.61M1235.71 259.973L1225.01 263.674M1235.71 259.973H1192.73M1439.61 259.973H1439.84M1439.61 259.973V256.112M1225.01 263.674L1182.93 263.673M1408.35 247.866L1393.14 252.08L1438.01 252.081M1408.35 247.866L1424.28 243.457M1408.35 247.866H1439.61M1438.01 252.081L1439.61 251.664M1438.01 252.081L1439.61 252.08M1439.61 256.112V252.082V251.664M1439.61 251.664L1440 251.564M1439.61 251.664V247.866M1424.28 243.457H1439.61M1424.28 243.457L1439.61 239.21M1439.61 247.866V243.457M1439.61 243.457V239.21M1283.42 243.457L1270.68 247.866M1283.42 243.457L1236.47 243.458M1270.68 247.866L1224.79 247.868M1439.61 224.977L1439.76 224.934M1439.61 224.977V228.914M1439.61 224.977V223.574M1325.43 228.914L1274.99 228.916M1325.43 228.914L1340.87 223.574M1080.97 288.542H1117.07M1080.97 288.542H1044.88M1117.07 288.542L1124.26 285.828M1044.88 288.542H1008.77M1096.95 296.137H1131.23M1096.95 296.137L1090.7 298.5M1131.23 296.137L1130.35 296.437L1128.63 297.032L1124.4 298.499M1169.14 283.013L1170.17 282.655L1177.58 280.093M1014 285.828L1008.77 288.544M1014 285.828L977.254 285.829M1014 285.828L1019.43 283.014M1147.48 277.061L1155.82 273.909M1155.82 273.909H1116.2H1076.58M1036.96 273.911L1030.9 277.063M1036.96 273.911H997.34M1182.93 263.673L1192.73 259.973M1063.8 259.973L1056.67 263.676M1063.8 259.973L1020.83 259.974M1098.76 263.676H1056.67M1056.67 263.676H1014.59M1224.79 247.868L1236.47 243.458M1095.61 243.458L1087.12 247.868M1095.61 243.458H1048.66M1087.12 247.868H1041.23M1274.99 228.916L1289.13 223.574M1289.13 223.574H1340.87M1133.91 223.574L1123.62 228.916M1133.91 223.574H1082.17M1123.62 228.916H1073.17M1336.26 205.779H1280.23M1336.26 205.779L1353.75 199.175M1336.26 205.779H1392.28M1392.28 205.779L1411.36 199.175M1392.28 205.779H1439.61M1280.23 205.779H1224.21M1224.21 205.779H1168.18M1353.75 199.175H1411.36M1411.36 199.175L1431.55 192.183M1411.36 199.175H1439.61M1439.61 205.779V199.175M1372.26 192.184H1431.55M1431.55 192.184H1439.61M1431.55 192.184L1439.61 189.396M1180.91 199.175L1168.18 205.779M1180.91 199.175H1123.29M1439.61 199.175V192.184M1168.18 205.779H1112.16M1412.73 176.901L1434.92 168.526M1412.73 176.901H1439.61M1439.61 184.772V189.396M1439.61 184.772V176.901M1439.61 192.184V189.396M1434.92 168.526L1439.61 166.751M1434.92 168.526H1439.61M1439.61 176.901V168.526M1439.61 166.751V168.526M1239.94 168.526L1223.81 176.901M1239.94 168.526H1174.95M1223.81 176.901H1160.83M1439.61 139.839V139.58M1439.61 139.58V128.872M1295.19 139.839H1223.29M1295.19 139.839L1316.31 128.872M936.581 288.544H972.678M972.678 288.544L973.807 287.875L977.254 285.829M972.678 288.544H1008.77M959.881 296.138H994.149M959.881 296.138L955.898 298.502M977.254 285.829L981.997 283.014M994.149 296.138L992.424 297.033L989.597 298.5M955.898 298.502L989.597 298.503M981.997 283.014H1019.43M867.002 285.829L866.34 286.517L864.388 288.544M867.002 285.829H830.252M867.002 285.829L869.712 283.014M864.388 288.544H828.291M992.029 277.063H953.168M992.029 277.063L997.34 273.911M992.029 277.063H1030.9M953.168 277.063H914.307M914.307 277.063H875.445M878.48 273.912L878.095 274.312L877.709 274.71L875.445 277.063M878.48 273.912L838.859 273.911M875.445 277.063H836.584M1014.59 263.676H972.506H930.421M1014.59 263.676L1020.83 259.974M930.421 263.676H888.338M891.901 259.974L888.338 263.676M891.901 259.974H848.926M888.338 263.676H846.253M1041.23 247.868L1048.66 243.458M907.806 243.458L903.561 247.868M907.806 243.458H860.855M903.561 247.868H857.671M1073.17 228.916L1082.17 223.574M926.956 223.574L921.811 228.916M926.956 223.574H875.217M921.811 228.916H871.358M1112.16 205.779H1056.14M1112.16 205.779L1123.29 199.175M1056.14 205.779H1000.12M1000.12 205.779H944.093M950.453 199.175L944.093 205.779M950.453 199.175H892.84M950.453 199.175L957.185 192.183M944.093 205.779H888.07M1160.83 176.901L1174.95 168.526M979.969 168.526L971.903 176.901M979.969 168.526H914.976M971.903 176.901H908.927M1223.29 139.839L1241.77 128.872M1241.77 128.872H1316.31M1018.16 128.872L1007.6 139.839M1018.16 128.872H943.617M1007.6 139.839H935.697M1306.38 90.5408L1331.61 75.5635M1306.38 90.5408H1390.15M1363.58 104.331L1390.15 90.5408M1363.58 104.331H1439.61M1390.15 90.5408L1418.99 75.5635M1390.15 90.5408H1439.61M1439.61 104.331V90.5408M1331.61 75.5635H1418.99M1418.99 75.5635H1439.61M1418.99 75.5635L1439.61 64.8557M1439.61 90.5408V75.5635M1439.61 59.2386V64.8557M1439.61 59.2386V41.3753M1069.49 75.5635L1055.07 90.5408M1069.49 75.5635H982.121M1439.61 75.5635V64.8557M1055.07 90.5408H971.303M1422.31 21.7475L1439.61 11.4811M1422.31 21.7475H1439.61M1439.61 41.3753V21.7475M1353.28 0.0767828H1247.74M1353.28 0.0767828H1439.61M1439.61 11.4811V21.7475M1439.61 11.4811V0.0767828M1247.74 0.0767828H1142.19M1439.61 0.0767828V4.88758e-06H0.387269V0.0767828H86.7152M1142.19 0.0767828L1121.32 21.7475M1142.19 0.0767828H1036.64M1121.32 21.7475H1020.99M828.291 288.544L828.531 288.211L828.774 287.875L829.018 287.537L829.263 287.199L830.252 285.829M822.805 296.138L822.589 296.438L822.16 297.033L821.733 297.624L821.52 297.918L821.099 298.502M822.805 296.138L857.075 296.139M857.075 296.139L855.08 298.211L854.799 298.502M821.099 298.502H854.799M720 288.544H683.903M836.584 277.063L838.859 273.911M720 273.911V277.063M720 277.063L681.139 277.064M804.168 263.676H846.253M804.168 263.676H762.084M846.253 263.676L848.926 259.974M762.084 263.676H720M720 259.974V263.676M720 259.974H677.025M720 263.676H677.916M857.671 247.868L860.855 243.458M720 243.458V247.868M720 243.458H673.048M720 247.868H674.11M871.358 228.916L875.217 223.574M720 223.574V228.916M720 223.574H668.261M720 228.916H669.547M888.07 205.779H832.046M888.07 205.779L892.84 199.175M832.046 205.779H776.023M776.023 205.779H720M720 199.175V205.779M720 199.175H662.387M720 199.175V192.183M720 205.779H663.977M908.927 176.901L914.976 168.526M720 168.526V176.901M720 168.526H655.008M720 176.901H657.024M935.697 139.839L943.617 128.872M943.617 128.872L952.142 117.069M952.142 117.069L961.343 104.331M961.343 104.331L971.303 90.5408M720 128.872V139.839M720 128.872H645.461M720 128.872V117.069M720 139.839H648.101M971.303 90.5408H887.535M971.303 90.5408L982.121 75.5635M887.535 90.5408L894.747 75.5635M887.535 90.5408H803.768M894.747 75.5635H982.121M894.747 75.5635H807.374M803.768 90.5408L807.374 75.5635M803.768 90.5408H720M807.374 75.5635H720M1006.81 41.3753L1020.99 21.7475M720 75.5635V90.5408M720 75.5635H632.626M720 90.5408V104.331M720 90.5408H636.232M1020.99 21.7475H920.66M1020.99 21.7475L1036.64 0.0767828M920.66 21.7475L931.095 0.0767828M920.66 21.7475H820.331M931.095 0.0767828H1036.64M931.095 0.0767828H825.547M820.331 21.7475L825.547 0.0767828M820.331 21.7475H720M825.547 0.0767828H720M720 0.0767828V21.7475M720 0.0767828H614.453M720 21.7475V41.3753M720 21.7475H619.669M683.903 288.544L684.533 291.164M683.903 288.544L683.822 288.211L683.742 287.875L683.661 287.537L683.249 285.829M685.731 296.138H651.463M685.731 296.138H720M685.731 296.138L685.946 297.033L686.018 297.329L686.301 298.502M651.463 296.138H617.195M617.195 296.138L582.925 296.139M720 296.138V298.503M686.301 298.502L720 298.503M575.612 288.545L539.516 288.544M575.612 288.545L578.135 291.164M575.612 288.545L573.66 286.517L572.998 285.829M681.139 277.064L680.38 273.912M680.38 273.912L720 273.913M564.555 277.063L566.392 278.971L566.755 279.347L567.116 279.721L567.474 280.094M564.555 277.063H525.693M564.555 277.063L561.52 273.911M678.77 267.225L678.454 265.912L678.133 264.577L677.916 263.676M677.916 263.676L677.697 262.764L677.251 260.913L677.025 259.974M677.025 259.974L676.214 256.605L676.095 256.113M548.099 259.974L551.662 263.676M548.099 259.974L505.123 259.975M551.662 263.676H509.579M674.11 247.868H628.219M674.11 247.868L673.048 243.458M628.219 247.868L626.097 243.458M628.219 247.868H582.329M626.097 243.458H673.048M626.097 243.458H579.145M582.329 247.868L579.145 243.458M582.329 247.868H536.438M673.048 243.458L671.937 238.841M579.145 243.458H532.194M669.547 228.916L668.261 223.574M513.044 223.574L518.189 228.916M513.044 223.574L461.305 223.576M518.189 228.916L467.736 228.917M663.977 205.779H607.954M663.977 205.779L662.387 199.175M607.954 205.779H551.931M551.931 205.779H495.907M489.547 199.175L495.907 205.781M489.547 199.175L431.934 199.177M657.024 176.901L655.008 168.526M460.031 168.526L468.097 176.901M460.031 168.526H395.038M468.097 176.901H405.121M648.101 139.839L645.461 128.872M645.461 128.872L642.619 117.069M642.619 117.069L639.552 104.331M642.619 117.069H720M639.552 104.331L636.232 90.5408M639.552 104.331H720M720 117.069V104.331M421.844 128.872L432.404 139.839M421.844 128.872H347.304M421.844 128.872L410.477 117.069M432.404 139.839H360.506M636.232 90.5408H552.465M636.232 90.5408L632.626 75.5635M552.465 90.5408L545.253 75.5635M552.465 90.5408H468.696M545.253 75.5635H632.626M545.253 75.5635H457.879M468.696 90.5408L457.879 75.5635M468.696 90.5408H384.929M457.879 75.5635H370.505M624.396 41.3753L619.669 21.7475M624.396 41.3753H720M370.505 75.5635L384.929 90.5408M370.505 75.5635H283.132M384.929 90.5408L398.209 104.331M384.929 90.5408H301.161M619.669 21.7475H519.34M619.669 21.7475L614.453 0.0767828M519.34 21.7475L508.905 0.0767828M519.34 21.7475H419.009M508.905 0.0767828H614.453M508.905 0.0767828H403.358M419.009 21.7475L403.358 0.0767828M419.009 21.7475H318.679M403.358 0.0767828H297.81M297.81 0.0767828L318.679 21.7475M297.81 0.0767828H192.264M318.679 21.7475L337.582 41.3753M318.679 21.7475H218.35M499.497 285.829H536.247M499.497 285.829H462.746M539.516 288.544L542.669 291.164M539.516 288.544L536.247 285.829M542.669 291.164H578.135M548.657 296.138L582.925 296.139M548.657 296.138L550.798 297.918L551.501 298.502M536.247 285.829H572.998M582.925 296.139L583.214 296.438L583.787 297.033L585.201 298.5M551.501 298.502L585.201 298.503M462.746 285.829H425.996M529.344 280.094L528.895 279.721L528.444 279.347L527.079 278.213L526.619 277.83L525.693 277.063M529.344 280.094H567.474M425.996 285.829L431.224 288.544M425.996 285.829H389.245M431.224 288.544H395.127M431.224 288.544L436.27 291.164M525.693 277.063L521.9 273.911M482.281 273.911H521.9M482.281 273.911H442.66M521.9 273.911L517.957 270.634M521.9 273.911H561.52M561.52 273.911L558.366 270.635L517.957 270.634M442.66 273.911L403.041 273.912M517.957 270.634L513.853 267.225M403.041 273.912L408.364 276.675L409.109 277.064M403.041 273.912L363.42 273.911M403.041 273.912L396.73 270.635M409.109 277.064L414.949 280.094M409.109 277.064L370.247 277.063M509.579 263.676L505.123 259.975M376.197 259.975L383.325 263.677M376.197 259.975L333.221 259.974M376.197 259.975L368.76 256.113M383.325 263.677L341.241 263.676M490.55 247.869L485.242 243.46M490.55 247.869H536.438M536.438 247.869L532.194 243.46M485.242 243.46H532.194M467.736 228.917L461.305 223.576M306.089 223.576L316.377 228.917M306.089 223.576L254.35 223.574M316.377 228.917L265.924 228.916M439.884 205.781L431.934 199.177M439.884 205.781H495.907M431.934 199.177L423.518 192.184M259.094 199.177L271.816 205.779M259.094 199.177L201.481 199.175M327.839 205.779H271.816M271.816 205.779H215.792M405.121 176.901L395.038 168.526M200.062 168.526L216.193 176.901M200.062 168.526H135.07M216.193 176.901H153.217M360.506 139.839L347.304 128.872M410.477 117.069L398.209 104.331M123.687 128.872L144.81 139.839M123.687 128.872H49.1471M144.81 139.839H72.9116M301.161 90.5408L283.132 75.5635M283.132 75.5635L263.48 59.2386M21.0106 75.5635L49.8576 90.5408M21.0106 75.5635H0.387269M21.0106 75.5635L0.387269 64.8557M49.8576 90.5408H0.387269M218.35 21.7475L192.264 0.0767828M86.7152 0.0767828H192.264M359.03 288.544L352.495 285.829M359.03 288.544H395.127M359.03 288.544H322.933M352.495 285.829H389.245M352.495 285.829H315.744M395.127 288.544L400.804 291.164M395.127 288.544L389.245 285.829M322.933 288.544L315.744 285.829M322.933 288.544H286.837M400.804 291.164H436.27M411.583 296.138L412.231 296.438L416.702 298.502M411.583 296.138H445.851M445.851 296.138L447.576 297.033L450.403 298.5M416.702 298.502L450.403 298.503M315.744 285.829H278.994M376.819 280.094L375.199 279.347L370.247 277.063M376.819 280.094H414.949M278.994 285.829L286.837 288.544M278.994 285.829H242.243M286.837 288.544H250.74M286.837 288.544L294.405 291.164M370.247 277.063L363.42 273.911M363.42 273.911L356.322 270.635M356.322 270.635L348.935 267.225M356.322 270.635H396.73M348.935 267.225L341.241 263.674M348.935 267.225H390.164M396.73 270.635L390.164 267.225M244.561 273.912L253.663 277.063M244.561 273.912L204.941 273.911M244.561 273.912L235.096 270.635M253.663 277.063L262.424 280.094M253.663 277.063H214.802M390.164 267.225L383.325 263.674M341.241 263.676L333.221 259.974M333.221 259.974L324.856 256.113M324.856 256.113H368.76M204.296 259.974L214.988 263.676M204.296 259.974H161.321M204.296 259.974L193.141 256.113M214.988 263.676H172.904M306.988 247.868H261.098M306.988 247.868L297.435 243.458M306.988 247.868H352.878M352.878 247.868L344.386 243.458M261.098 247.868L250.483 243.458M261.098 247.868H215.207M250.483 243.458H297.435M250.483 243.458H203.531M215.207 247.868L203.531 243.458M215.207 247.868H169.318M297.435 243.458L287.429 238.841M297.435 243.458H344.386M344.386 243.458L335.492 238.841M203.531 243.458H156.58M287.429 238.841H335.492M156.58 243.458L169.318 247.868M156.58 243.458H109.628M156.58 243.458L143.238 238.841M169.318 247.868L181.493 252.082M169.318 247.868H123.428M265.924 228.916L254.35 223.574M99.1328 223.574L114.566 228.916M99.1328 223.574H47.3929M114.566 228.916H64.1125M215.792 205.779H159.769M215.792 205.779L201.481 199.175M159.769 205.779H103.746M103.746 205.779H47.7231M28.6419 199.175H0.387269M259.095 199.175L245.631 192.183M47.7231 205.779L28.6399 199.175M47.7231 205.779H0.387269M153.217 176.901L135.07 168.526M5.08553 168.526H0.387269M5.08553 168.526L0.387269 166.751M27.2649 176.901H0.38827M0.38827 176.901V168.526V166.753V159.596V150.055V139.839V139.58V128.872V117.069V106.369V104.331V90.5408V75.5635V64.8557V59.2386V41.3753V21.7475V11.4811V0.0767828M0.38827 176.901V184.772V189.396M72.9116 139.839L49.1471 128.872M49.1471 128.872L23.5724 117.069M49.1471 128.872H0.387269M23.5724 117.069H0.387269M23.5724 117.069L0.387269 106.369M250.74 288.544L242.243 285.829M274.508 296.138L275.445 296.438L281.904 298.502M274.508 296.138H308.776M308.776 296.138L309.642 296.438L315.603 298.502M281.904 298.502H315.603M131.992 285.829L142.449 288.544M131.992 285.829H95.2411M142.449 288.544H106.352M214.802 277.063L204.941 273.911M235.096 270.635L225.246 267.225M86.0818 273.912L98.2182 277.063M86.0818 273.912L46.4613 273.911M98.2182 277.063L109.899 280.094M98.2182 277.063H59.3572M225.246 267.225L214.988 263.674M172.904 263.676H130.82H88.7346M172.904 263.676L161.321 259.974M88.7346 263.676H46.6524L32.3945 259.974M193.141 256.113L181.493 252.082M32.3945 259.974H0.387269M123.428 247.868L136.618 252.081L181.493 252.082M123.428 247.868L109.628 243.458M0.387269 247.868V251.665M64.1125 228.916L47.3929 223.574M47.3929 223.574L29.8007 217.953M47.3929 223.574H0.387269M29.8007 217.953L11.2618 212.03M29.8007 217.953H0.386268M11.2618 212.03H65.7797M11.2618 212.03H0.387269M11.2618 212.03L0.387269 208.556M0.38827 192.183H8.44386L0.38827 189.396M0.38827 189.396V192.184V199.175V205.779V208.556V212.03V217.953V223.574V224.978V228.916V233.998M70.2558 288.544H106.352M70.2558 288.544H34.1577M106.352 288.544L95.2411 285.829M34.1577 288.544H0.387269M137.432 296.138H171.701M137.432 296.138L147.105 298.502M171.701 296.138L180.805 298.502M147.105 298.502H180.805M0.387269 285.829V288.544M0.387269 288.544V289.028V291.164V293.693M59.3572 277.063L46.4613 273.911M6.84175 273.911H46.4613M6.84175 273.911L0.387269 272.422M6.84175 273.911L0.387269 273.912M0.387269 277.063V273.912M46.4613 273.911L33.053 270.634M33.053 270.634L19.0993 267.225M33.053 270.634L0.387269 270.635M19.0993 267.225L4.56617 263.674M19.0993 267.225H0.387269M0.387269 270.635V267.227V263.676M0.387269 270.635V272.422M0.387269 272.422V273.912M4.56617 263.674L0.38827 262.654M4.56717 263.676H0.387269M0.387269 263.676V262.654V259.974M0.387269 256.113V252.082M0.387269 256.113V259.974M0.387269 259.974H0.163113M0.387269 252.082V251.665M0.387269 251.665L0 251.565M0.38827 291.164H10.6754L0.38827 289.029M34.626 296.138L46.0049 298.502M34.626 296.138H0.387269M0.387269 293.693V296.138M0.387269 296.138H0.358249L0.38827 296.143M1124.4 298.503H1090.7M46.0059 298.503L12.3065 298.502M12.3065 298.502L0.38827 296.143M12.3065 298.502H0.38827M0.38827 296.143V296.139M0.38827 296.143V298.502M1439.61 296.143V298.502" stroke="url(#paint0_radial_195_1615)" stroke-opacity="0.4" stroke-width="0.8" stroke-miterlimit="10" stroke-linecap="round" stroke-linejoin="round"/>
<defs>
<radialGradient id="paint0_radial_195_1615" cx="0" cy="0" r="1" gradientUnits="userSpaceOnUse" gradientTransform="translate(720 -1.67403) rotate(90) scale(487.149 1114.64)">
<stop stop-color="#B3B3B3"/>
<stop offset="0.742" stop-color="#9A9A9A" stop-opacity="0"/>
</radialGradient>
</defs>
</svg>
