<svg width="181" height="26" viewBox="0 0 181 26" fill="none" xmlns="http://www.w3.org/2000/svg">
<path d="M6.21761 25H0.169609L10.7176 0.879999H18.4216L29.0416 25H22.8496L20.5816 19.672H8.52161L6.21761 25ZM12.8776 9.556L10.6096 14.812H18.4936L16.2256 9.556L14.7496 5.812H14.3536L12.8776 9.556ZM50.7133 25H30.3013V0.879999H50.7133V5.74H35.7013V10.456H50.1733V15.28H35.7013V20.14H50.7133V25ZM58.5529 25H53.1529V0.879999H66.4729C72.4129 0.879999 75.7969 3.508 75.7969 8.116C75.7969 12.04 73.5289 14.38 68.9929 14.812V15.1C71.1529 15.676 71.9809 16.828 72.8809 18.52L76.3729 25H70.1089L66.7969 18.736C65.8249 16.864 64.9249 16.252 62.1169 16.252H58.5529V25ZM58.5529 5.74V12.184H66.4369C68.9929 12.184 70.1449 11.464 70.1449 8.944C70.1449 6.568 68.9929 5.74 66.4369 5.74H58.5529ZM83.4787 25H78.0787V0.879999H83.4787V25ZM106.717 25H86.3052V0.879999H106.717V5.74H91.7052V10.456H106.177V15.28H91.7052V20.14H106.717V25ZM120.101 25.36C112.793 25.36 108.689 22.48 108.689 16.864V16.648H114.089V17.296C114.089 19.528 115.205 20.428 120.101 20.428C124.421 20.428 125.429 19.78 125.429 18.16C125.429 16.684 124.601 16.144 122.117 15.712L115.349 14.74C111.029 14.056 108.473 11.896 108.473 7.972C108.473 4.336 111.425 0.52 119.525 0.52C126.941 0.52 130.397 3.94 130.397 9.016V9.232H124.961V8.728C124.961 6.424 123.773 5.452 118.985 5.452C115.097 5.452 113.909 6.208 113.909 7.756C113.909 9.16 114.701 9.664 116.717 10.024L123.485 11.104C128.885 11.968 130.829 14.596 130.829 17.908C130.829 21.832 127.769 25.36 120.101 25.36ZM147.32 25H141.884V17.008L131.192 0.879999H137.852L142.46 7.936L144.476 11.176H144.872L146.888 7.936L151.496 0.879999H158.192L147.32 17.044V25ZM170.163 25.36C162.855 25.36 158.751 22.48 158.751 16.864V16.648H164.151V17.296C164.151 19.528 165.267 20.428 170.163 20.428C174.483 20.428 175.491 19.78 175.491 18.16C175.491 16.684 174.663 16.144 172.179 15.712L165.411 14.74C161.091 14.056 158.535 11.896 158.535 7.972C158.535 4.336 161.487 0.52 169.587 0.52C177.003 0.52 180.459 3.94 180.459 9.016V9.232H175.023V8.728C175.023 6.424 173.835 5.452 169.047 5.452C165.159 5.452 163.971 6.208 163.971 7.756C163.971 9.16 164.763 9.664 166.779 10.024L173.547 11.104C178.947 11.968 180.891 14.596 180.891 17.908C180.891 21.832 177.831 25.36 170.163 25.36Z" fill="#8356FB"/>
</svg>
