<svg width="36" height="36" viewBox="0 0 36 36" fill="none" xmlns="http://www.w3.org/2000/svg">
<path d="M33 7.27453V25.1095C33 26.5645 31.815 27.8995 30.36 28.0795L29.895 28.1395C27.435 28.4695 23.97 29.4895 21.18 30.6595C20.205 31.0645 19.125 30.3295 19.125 29.2645V8.39953C19.125 7.84453 19.44 7.33453 19.935 7.06453C22.68 5.57953 26.835 4.25953 29.655 4.01953H29.745C31.545 4.01953 33 5.47453 33 7.27453Z" fill="#946CFF"/>
<path d="M16.0625 7.06453C13.3174 5.57953 9.16242 4.25953 6.34242 4.01953H6.23742C4.43742 4.01953 2.98242 5.47453 2.98242 7.27453V25.1095C2.98242 26.5645 4.16742 27.8995 5.62242 28.0795L6.08742 28.1395C8.54742 28.4695 12.0124 29.4895 14.8024 30.6595C15.7775 31.0645 16.8575 30.3295 16.8575 29.2645V8.39953C16.8575 7.82953 16.5575 7.33453 16.0625 7.06453ZM7.49742 11.6095H10.8724C11.4874 11.6095 11.9974 12.1195 11.9974 12.7345C11.9974 13.3645 11.4874 13.8595 10.8724 13.8595H7.49742C6.88242 13.8595 6.37242 13.3645 6.37242 12.7345C6.37242 12.1195 6.88242 11.6095 7.49742 11.6095ZM11.9974 18.3595H7.49742C6.88242 18.3595 6.37242 17.8645 6.37242 17.2345C6.37242 16.6195 6.88242 16.1095 7.49742 16.1095H11.9974C12.6124 16.1095 13.1224 16.6195 13.1224 17.2345C13.1224 17.8645 12.6124 18.3595 11.9974 18.3595Z" fill="#946CFF"/>
</svg>
