<svg width="36" height="36" viewBox="0 0 36 36" fill="none" xmlns="http://www.w3.org/2000/svg">
<path d="M31.4712 4.53125C30.1662 3.22625 28.3212 2.71625 26.5362 3.16625L11.8363 6.84125C9.36125 7.45625 7.45625 9.37625 6.84125 11.8363L3.16625 26.5512C2.71625 28.3362 3.22625 30.1812 4.53125 31.4862C5.52125 32.4612 6.82625 33.0012 8.17625 33.0012C8.59625 33.0012 9.03125 32.9562 9.45125 32.8362L24.1662 29.1612C26.6262 28.5462 28.5462 26.6412 29.1612 24.1662L32.8362 9.45125C33.2862 7.66625 32.7762 5.82125 31.4712 4.53125ZM18.0012 23.8212C14.7913 23.8212 12.1813 21.2112 12.1813 18.0012C12.1813 14.7913 14.7913 12.1813 18.0012 12.1813C21.2112 12.1813 23.8212 14.7913 23.8212 18.0012C23.8212 21.2112 21.2112 23.8212 18.0012 23.8212Z" fill="#946CFF"/>
</svg>
