<svg width="36" height="36" viewBox="0 0 36 36" fill="none" xmlns="http://www.w3.org/2000/svg">
<path d="M31.5587 19.9184L30.1787 18.5684L18.5537 30.1784L19.9487 31.5734C21.1187 32.7434 22.3337 33.3284 23.5337 33.3284C24.7337 33.3284 25.9487 32.7434 27.1187 31.5734L31.5587 27.1334C33.9437 24.7334 33.9437 22.3184 31.5587 19.9184Z" fill="#946CFF"/>
<path d="M16.0347 4.39711C13.6796 2.04211 11.2046 2.04211 8.84965 4.39711L4.39465 8.83711C2.05465 11.1921 2.05465 13.6671 4.39465 16.0221L5.77465 17.4021L17.3997 5.77711L16.0347 4.39711Z" fill="#946CFF"/>
<path d="M32.7147 5.9072C30.7497 10.8122 26.2647 17.2171 21.9897 21.4021C21.3747 17.5321 18.2847 14.5022 14.3848 13.9622C18.5847 9.6722 25.0347 5.1272 29.9547 3.1472C30.8247 2.8172 31.6947 3.0722 32.2347 3.6122C32.8047 4.1822 33.0747 5.0372 32.7147 5.9072Z" fill="#946CFF"/>
<path d="M20.6687 22.6364C20.3687 22.8914 20.0687 23.1464 19.7687 23.3864L17.0837 25.5314C17.0837 25.4864 17.0686 25.4264 17.0686 25.3664C16.8586 23.7614 16.1087 22.2764 14.8937 21.0614C13.6637 19.8314 12.1337 19.0814 10.4537 18.8714C10.4087 18.8714 10.3487 18.8564 10.3037 18.8564L12.4787 16.1114C12.6887 15.8414 12.9137 15.5864 13.1537 15.3164L14.1737 15.4514C17.3986 15.9014 19.9936 18.4364 20.5036 21.6464L20.6687 22.6364Z" fill="#946CFF"/>
<path d="M15.6447 26.4312C15.6447 28.0812 15.0147 29.6562 13.8146 30.8412C12.8996 31.7712 11.6697 32.4012 10.1697 32.5812L6.49465 32.9862C4.48465 33.2112 2.75965 31.4862 2.98465 29.4612L3.38965 25.7712C3.74965 22.4862 6.49465 20.3862 9.40465 20.3262C9.68965 20.3112 10.0046 20.3262 10.3046 20.3562C11.5796 20.5212 12.8096 21.1062 13.8446 22.1262C14.8496 23.1312 15.4197 24.3162 15.5847 25.5612C15.6147 25.8612 15.6447 26.1462 15.6447 26.4312Z" fill="#946CFF"/>
</svg>
