<svg width="24" height="20" viewBox="0 0 24 20" fill="none" xmlns="http://www.w3.org/2000/svg">
<path d="M16.3013 2.40039H13.08C12.78 2.40039 12.4913 2.51289 12.27 2.71539L8.58375 6.09039C8.58 6.09414 8.57625 6.10164 8.5725 6.10539C7.95 6.69039 7.96125 7.62414 8.49375 8.20539C8.97 8.72664 9.97125 8.86539 10.5975 8.30664C10.6013 8.30289 10.6088 8.30289 10.6125 8.29914L13.6088 5.55414C13.8525 5.33289 14.235 5.34789 14.4563 5.59164C14.6813 5.83539 14.6625 6.21414 14.4188 6.43914L13.44 7.33539L18.9 11.7679C19.0088 11.8579 19.1063 11.9554 19.1963 12.0566V4.80039L17.1488 2.75289C16.9275 2.52789 16.62 2.40039 16.3013 2.40039ZM20.4 4.80789V13.2041C20.4 13.8679 20.9363 14.4041 21.6 14.4041H24V4.80789H20.4ZM22.2 13.2041C21.87 13.2041 21.6 12.9341 21.6 12.6041C21.6 12.2741 21.87 12.0041 22.2 12.0041C22.53 12.0041 22.8 12.2741 22.8 12.6041C22.8 12.9341 22.53 13.2041 22.2 13.2041ZM0 14.4004H2.4C3.06375 14.4004 3.6 13.8641 3.6 13.2004V4.80789H0V14.4004ZM1.8 12.0041C2.13 12.0041 2.4 12.2741 2.4 12.6041C2.4 12.9341 2.13 13.2041 1.8 13.2041C1.47 13.2041 1.2 12.9341 1.2 12.6041C1.2 12.2704 1.47 12.0041 1.8 12.0041ZM18.1462 12.7016L12.5475 8.15664L11.4225 9.18789C10.3088 10.2041 8.6025 10.1066 7.60875 9.02289C6.6 7.92039 6.67875 6.21414 7.77375 5.20914L10.8413 2.40039H7.69875C7.38 2.40039 7.07625 2.52789 6.85125 2.75289L4.8 4.80039V13.1966H5.48625L8.88 16.2679C9.9075 17.1041 11.4187 16.9466 12.255 15.9191L12.2625 15.9116L12.9338 16.4929C13.53 16.9804 14.4113 16.8866 14.895 16.2904L16.0725 14.8429L16.275 15.0079C16.7888 15.4241 17.5463 15.3491 17.9625 14.8316L18.3188 14.3929C18.7388 13.8754 18.66 13.1216 18.1462 12.7016Z" fill="#8356FB"/>
</svg>
