<svg width="24" height="24" viewBox="0 0 24 24" fill="none" xmlns="http://www.w3.org/2000/svg">
<mask id="mask0_1175_2275" style="mask-type:alpha" maskUnits="userSpaceOnUse" x="0" y="0" width="24" height="24">
<rect width="24" height="24" fill="#D9D9D9"/>
</mask>
<g mask="url(#mask0_1175_2275)">
<path d="M3 22V18C3 17.45 3.19583 16.9792 3.5875 16.5875C3.97917 16.1958 4.45 16 5 16H6.3L6.85 12H4V10H20V12H17.15L17.7 16H19C19.55 16 20.0208 16.1958 20.4125 16.5875C20.8042 16.9792 21 17.45 21 18V22H3ZM6.45 8.5L5 2C5.55 2.41667 6.11667 2.80833 6.7 3.175C7.28333 3.54167 7.925 3.725 8.625 3.725C9.29167 3.725 9.90417 3.55417 10.4625 3.2125C11.0208 2.87083 11.5333 2.46667 12 2C12.4667 2.46667 12.9792 2.87083 13.5375 3.2125C14.0958 3.55417 14.7083 3.725 15.375 3.725C16.075 3.725 16.7167 3.54167 17.3 3.175C17.8833 2.80833 18.45 2.41667 19 2L17.575 8.5H6.45Z" fill="#8356FB"/>
</g>
</svg>
