<svg width="30" height="30" viewBox="0 0 30 30" fill="none" xmlns="http://www.w3.org/2000/svg">
<mask id="mask0_729_5311" style="mask-type:alpha" maskUnits="userSpaceOnUse" x="0" y="0" width="30" height="30">
<rect width="30" height="30" fill="#D9D9D9"/>
</mask>
<g mask="url(#mask0_729_5311)">
<path d="M15.125 27.5C13.375 27.5 11.7344 27.1667 10.2031 26.5C8.67188 25.8333 7.33854 24.9323 6.20312 23.7969C5.06771 22.6615 4.16667 21.3281 3.5 19.7969C2.83333 18.2656 2.5 16.625 2.5 14.875C2.5 11.8333 3.46875 9.15104 5.40625 6.82812C7.34375 4.50521 9.8125 3.0625 12.8125 2.5C12.4375 4.5625 12.5521 6.57812 13.1563 8.54688C13.7604 10.5156 14.8021 12.2396 16.2813 13.7188C17.7604 15.1979 19.4844 16.2396 21.4531 16.8438C23.4219 17.4479 25.4375 17.5625 27.5 17.1875C26.9583 20.1875 25.5208 22.6563 23.1875 24.5938C20.8542 26.5313 18.1667 27.5 15.125 27.5ZM15.125 25C16.9583 25 18.6562 24.5417 20.2188 23.625C21.7812 22.7083 23.0104 21.4479 23.9062 19.8438C22.1146 19.6771 20.4167 19.224 18.8125 18.4844C17.2083 17.7448 15.7708 16.7396 14.5 15.4688C13.2292 14.1979 12.2188 12.7604 11.4688 11.1562C10.7188 9.55208 10.2708 7.85417 10.125 6.0625C8.52083 6.95833 7.26562 8.19271 6.35938 9.76562C5.45312 11.3385 5 13.0417 5 14.875C5 17.6875 5.98438 20.0781 7.95312 22.0469C9.92188 24.0156 12.3125 25 15.125 25Z" fill="#0D0D0D"/>
</g>
</svg>
