<svg width="1440" height="312" viewBox="0 0 1440 312" fill="none" xmlns="http://www.w3.org/2000/svg">
<path opacity="0.4" d="M1416.13 3.26398L1404.95 1M1416.13 3.26398H1382.99M1416.13 3.26398L1427.69 5.60231M1416.13 3.26398H1439.61M1404.95 1H1409.02L1413.05 1.00561L1416.99 1.01964L1420.82 1.04769L1424.47 1.08977L1427.92 1.1571L1431.12 1.24968L1434.1 1.36611L1436.65 1.52882L1438.97 1.71679L1439.61 1.78271V3.26398M1404.95 1H1372.33M1382.99 3.26398L1372.33 1M1382.99 3.26398H1349.84M1382.99 3.26398L1385.7 3.8419L1394 5.60231M1427.69 5.60231H1394M1427.69 5.60231L1439.61 8.01498M1427.69 5.60231H1439.61M1439.61 3.26398V5.60231M1372.33 1H1339.72M1339.72 1H1307.1M1339.72 1L1349.84 3.26398M1307.1 1H1274.48M1307.1 1L1316.68 3.26398M1349.84 3.26398H1316.68M1349.84 3.26398L1360.29 5.60231M1274.48 1H1241.86M1274.48 1L1283.54 3.26398M1316.68 3.26398H1283.54M1316.68 3.26398L1326.59 5.60231M1241.86 1H1209.25M1241.86 1L1250.39 3.26398M1283.54 3.26398H1250.39M1283.54 3.26398L1292.9 5.60231M1209.25 1H1176.64M1209.25 1L1217.24 3.26398M1250.39 3.26398H1217.24M1250.39 3.26398L1252.56 3.8405L1253.66 4.13086L1259.19 5.60091M1176.64 1H1144.01M1176.64 1L1184.09 3.26398M1217.24 3.26398H1184.09M1217.24 3.26398L1219.28 3.8405L1225.49 5.60231M1144.01 1H1111.4M1144.01 1L1150.94 3.26398M1184.09 3.26398H1150.94M1184.09 3.26398L1191.8 5.60231M1111.4 1H1078.78M1111.4 1L1117.8 3.26398M1150.94 3.26398H1117.8M1150.94 3.26398L1152.71 3.8419L1153.6 4.13226L1158.09 5.60231M1078.78 1H1046.17M1078.78 1L1084.64 3.26398M1117.8 3.26398H1084.64M1117.8 3.26398L1124.4 5.60091M1046.17 1H1013.55M1046.17 1L1051.49 3.26398M1084.64 3.26398H1051.49M1084.64 3.26398L1086.13 3.8405L1086.89 4.13086L1090.7 5.60091M1013.55 1H980.933M1013.55 1L1014.73 1.55968L1016.53 2.40552L1018.35 3.26398M1051.49 3.26398H1018.35M1051.49 3.26398L1052.17 3.55154L1052.85 3.8419L1056.99 5.60231M980.933 1H948.317M980.933 1L981.985 1.55968L985.194 3.26398M1018.35 3.26398H985.194M1018.35 3.26398L1019.57 3.8419L1020.18 4.13226L1023.3 5.60231M948.317 1H915.7M948.317 1L952.045 3.26398M985.194 3.26398H952.045M985.194 3.26398L989.597 5.60091M915.7 1H883.083M915.7 1L916.886 1.84163L918.088 2.69027L918.491 2.97643L918.896 3.26398M952.045 3.26398H918.896M952.045 3.26398L952.52 3.55014L952.996 3.8405L953.475 4.13086L955.898 5.60231M883.083 1H850.467M883.083 1L884.072 1.84163L884.404 2.12217L884.738 2.40552L885.747 3.26398M918.896 3.26398H885.747M918.896 3.26398L919.712 3.8419L920.122 4.13226L920.533 4.42403L922.198 5.60231M850.467 1H817.85M850.467 1L852.597 3.26398M885.747 3.26398H852.597M885.747 3.26398L886.426 3.8419L887.802 5.01036L888.15 5.30493L888.499 5.60231M817.85 1L818.047 1.27914L818.244 1.55968L819.245 2.97643L819.448 3.26398M817.85 1H785.233M852.597 3.26398H819.448M852.597 3.26398L852.869 3.55014L853.141 3.8405L853.415 4.13086L854.799 5.60231M819.448 3.26398H786.299M819.448 3.26398L821.099 5.60231M785.233 1H752.617M785.233 1L786.299 3.26398M752.617 1H720M752.617 1L752.815 1.84163L753.149 3.26398M786.299 3.26398H753.149M786.299 3.26398L786.434 3.55154L786.57 3.8419L786.707 4.13226L787.399 5.60231M720 1H687.383M720 1V3.26398M753.149 3.26398H720M753.149 3.26398L753.699 5.60231M687.383 1H654.767M687.383 1L687.185 1.84163L686.851 3.26398M720 3.26398H686.851M720 3.26398V5.60091M654.767 1H622.15M654.767 1L653.701 3.26398M686.851 3.26398H653.701M686.851 3.26398L686.301 5.60231M622.15 1L621.953 1.27914L621.756 1.55968L620.755 2.97643L620.552 3.26398M622.15 1H589.533M653.701 3.26398H620.552M653.701 3.26398L653.566 3.55154L653.43 3.8419L653.293 4.13226L652.879 5.01036L652.601 5.60231M620.552 3.26398H587.403M620.552 3.26398L618.901 5.60231M589.533 1H556.917M589.533 1L587.673 2.97783L587.403 3.26398M556.917 1H524.3M556.917 1L555.928 1.84163L555.596 2.12217L554.927 2.69027L554.591 2.97643L554.253 3.26398M587.403 3.26398H554.253M587.403 3.26398L587.131 3.55014L586.858 3.8405L586.585 4.13086L585.201 5.60091M524.3 1H491.683M524.3 1L523.114 1.84163L521.912 2.69027L521.509 2.97643L521.104 3.26398M554.253 3.26398H521.104M554.253 3.26398L553.573 3.8405L552.197 5.00896L551.501 5.60231M491.683 1H459.067M491.683 1L487.955 3.26398M521.104 3.26398H487.955M521.104 3.26398L520.289 3.8419L519.878 4.13226L519.467 4.42403L517.802 5.60231M459.067 1H426.45M459.067 1L458.015 1.55968L454.806 3.26398M487.955 3.26398L487.479 3.55154L484.102 5.60231M487.955 3.26398H454.806M426.45 1H393.833M426.45 1L421.656 3.26398M454.806 3.26398H421.656M454.806 3.26398L454.262 3.55014L450.403 5.60091M393.833 1H361.217M393.833 1L388.507 3.26398M421.656 3.26398H388.507M421.656 3.26398L420.433 3.8405L419.818 4.13086L416.702 5.60231M361.217 1H328.6M361.217 1L355.358 3.26398M388.507 3.26398H355.358M388.507 3.26398L387.828 3.55154L387.148 3.8419L383.003 5.60231M328.6 1H295.984M328.6 1L322.208 3.26398M355.358 3.26398H322.208M355.358 3.26398L353.863 3.8419L353.11 4.13226L349.303 5.60231M295.984 1H263.367M295.984 1L289.059 3.26398M322.208 3.26398H289.059M322.208 3.26398L321.394 3.55014L315.603 5.60231M263.367 1H230.75M263.367 1L255.909 3.26398M289.059 3.26398H255.909M289.059 3.26398L287.292 3.8405L286.403 4.13086L281.904 5.60231M230.75 1H198.134M230.75 1L222.76 3.26398M255.909 3.26398H222.76M255.909 3.26398L248.204 5.60231M198.134 1H165.517M198.134 1L189.611 3.26398M222.76 3.26398H189.611M222.76 3.26398L220.721 3.8419L214.505 5.60231M165.517 1H132.9M165.517 1L156.461 3.26398M189.611 3.26398H156.461M189.611 3.26398L187.436 3.8405L186.342 4.13086L180.805 5.60231M132.9 1H100.284M132.9 1L123.312 3.26398M156.461 3.26398H123.312M156.461 3.26398L147.105 5.60231M100.284 1H67.667M100.284 1L90.1626 3.26398M123.312 3.26398H90.1626M123.312 3.26398L113.405 5.60231M67.667 1H35.0503M67.667 1L57.0136 3.26398M90.1626 3.26398H57.0136M90.1626 3.26398L79.7053 5.60231M35.0503 1H30.9805L26.9517 1.00561L23.007 1.01964L19.1863 1.04769L15.5318 1.08977L12.0814 1.1571L8.87616 1.24968L5.9021 1.36471L3.35033 1.52742L1.02571 1.71538L0.387269 1.78131V3.26258M35.0503 1L23.8646 3.26398M57.0136 3.26398H23.8646M57.0136 3.26398L54.2957 3.8419L46.0059 5.60091M23.8646 3.26398L12.3065 5.60231M23.8646 3.26398H0.38827V5.60231M79.7053 5.60231L68.8958 8.02059M79.7053 5.60231H113.405M79.7053 5.60231L46.0059 5.60091M113.405 5.60231L103.163 8.02059M113.405 5.60231H147.105M214.505 5.60231L205.97 8.02059M214.505 5.60231H248.204M214.505 5.60231H180.805M248.204 5.60231L240.239 8.02059M248.204 5.60231H281.904M349.303 5.60231L343.044 8.01919M349.303 5.60231H383.003M349.303 5.60231H315.603M383.003 5.60231H416.702M484.102 5.60231L480.119 8.01919M484.102 5.60231H517.802M484.102 5.60231L450.403 5.60091M517.802 5.60231H551.501M618.901 5.60231L618.479 6.19986L617.84 7.10462L617.411 7.71339L617.195 8.02059M618.901 5.60231H652.601M618.901 5.60231L585.201 5.60091M652.601 5.60231L652.178 6.50005L651.606 7.71339L651.463 8.02059M652.601 5.60231H686.301M753.699 5.60231L753.77 5.89968L753.839 6.19986L753.912 6.50005L753.982 6.80163L754.054 7.10462L754.269 8.02059M753.699 5.60231H787.399M753.699 5.60231L720 5.60091M787.399 5.60231L787.822 6.50005L788.393 7.71339L788.537 8.01919M787.399 5.60231H821.099M888.499 5.60231L889.201 6.19986L891.344 8.01919M888.499 5.60231H922.198M888.499 5.60231H854.799M922.198 5.60231H955.898M1023.3 5.60231L1027.76 7.71339L1028.41 8.01919L1029.07 8.32778L1033.72 10.5216M1023.3 5.60231H1056.99M1023.3 5.60231L989.597 5.60091M1056.99 5.60231L1090.7 5.60091M1158.09 5.60231H1191.8M1158.09 5.60231L1124.4 5.60091M1191.8 5.60231L1199.76 8.02059M1191.8 5.60231H1225.49M1292.9 5.60231L1259.19 5.60091M1292.9 5.60231H1326.59M1326.59 5.60231L1336.84 8.02059M1326.59 5.60231H1360.29M0.271188 24.4352H0.387269M0.387269 24.4352H33.6364M0.387269 24.4352V27.5366M0.387269 24.4352V23.3424M33.6364 24.4352L46.2931 21.4474M33.6364 24.4352L20.4952 27.5366M33.6364 24.4352H71.7678M46.2931 21.4474H8.86516M46.2931 21.4474L58.4916 18.5676M46.2931 21.4474H83.7211M20.4952 27.5366L6.84175 30.7614M20.4952 27.5366H59.3572M20.4952 27.5366H0.387269M71.7678 24.4352L83.7211 21.4474M71.7678 24.4352L59.3572 27.5366M71.7678 24.4352H109.899M8.86516 21.4474L21.7401 18.5676M8.86516 21.4474H0.387269M8.86516 21.4474L0.387269 23.3424M58.4916 18.5676L70.2558 15.7902M58.4916 18.5676H95.2411M58.4916 18.5676H21.7401M83.7211 21.4474L95.2411 18.5676M83.7211 21.4474H121.149M21.7401 18.5676L34.1577 15.7902M21.7401 18.5676H0.387269M0.387269 21.4474V23.3424M0.387269 21.4474V18.5676M46.142 13.1096H81.6087M46.142 13.1096L57.7151 10.5216M46.142 13.1096H10.6774M46.142 13.1096L34.1587 15.7888M81.6087 13.1096L92.5723 10.5216H57.7131M81.6087 13.1096L70.2548 15.7888M81.6087 13.1096H117.074M57.7151 10.5216L68.8958 8.02059M57.7151 10.5216H22.8559M117.074 13.1096L127.427 10.5216M117.074 13.1096L106.352 15.7902M117.074 13.1096H152.541M68.8958 8.02059H103.163M68.8958 8.02059H34.626M22.8559 10.5216L10.6754 13.1082M22.8559 10.5216L34.626 8.02059M22.8559 10.5216H0.387269M127.427 10.5216H92.5703L103.163 8.02059M127.427 10.5216H162.286M127.427 10.5216L137.432 8.02059M103.163 8.02059H137.432M0.0220153 71.5958H0.387269M0.387269 71.5958H30.7904M0.387269 71.5958V66.6415V66.2627M30.7904 71.5958L47.1107 66.6415M30.7904 71.5958L13.6585 76.7957M30.7904 71.5958H80.0206M47.1107 66.6415L62.6765 61.9171M47.1107 66.6415H95.1741M47.1107 66.6415H0.38827M13.6585 76.7957H64.1125M13.6585 76.7957H0.387269M13.6585 76.7957L0.387269 80.8243L0.241167 80.8678M80.0206 71.5958L95.1741 66.6415M80.0206 71.5958L64.1125 76.7957M80.0206 71.5958L129.249 71.5944M62.6765 61.9171H15.7239M62.6765 61.9171L77.5368 57.406M62.6765 61.9171H109.628M95.1741 66.6415L109.628 61.9171M95.1741 66.6415H143.238M15.7239 61.9171L31.647 57.406M15.7239 61.9171H0.387269M15.7239 61.9171L0.387269 66.2627M31.647 57.406L46.8655 53.094M31.647 57.406H77.5368M31.647 57.406H0.387269M0.387269 61.9171V66.2627M0.387269 61.9171V57.406M46.8655 53.094H91.7407M46.8655 53.094L61.4257 48.97M46.8655 53.094H1.99038M91.7407 53.094L105.331 48.97M91.7407 53.094L77.5368 57.406M91.7407 53.094H136.617L149.236 48.97M61.4257 48.97H105.331M61.4257 48.97H17.5212M61.4257 48.97L75.3693 45.02M1.99038 53.094H0.387269M1.99038 53.094L0.387269 53.5205M105.331 48.97L118.345 45.02M105.331 48.97H149.236M77.5368 57.406H123.428M17.5212 48.97L32.3945 45.02M17.5212 48.97L1.99138 53.094M17.5212 48.97H0.387269M75.3693 45.02H118.345M75.3693 45.02H32.3945M75.3693 45.02L88.7346 41.2327M118.345 45.02L130.82 41.2341L142.787 37.601M118.345 45.02H161.321M149.236 48.97L161.321 45.02M149.236 48.97H193.141M101.558 37.601H142.787M101.558 37.601L113.87 34.1125M101.558 37.601H60.3289M101.558 37.601L88.7346 41.2341M142.787 37.601L154.278 34.1125M142.787 37.601H184.017M113.87 34.1125H154.278M113.87 34.1125H73.462M113.87 34.1125L125.701 30.76M60.3289 37.601H19.0993M60.3289 37.601L73.462 34.1125M60.3289 37.601L46.6514 41.2341H4.56617M154.278 34.1125L165.321 30.76M154.278 34.1125H194.687M184.017 37.601L194.687 34.1125M184.017 37.601L172.904 41.2341M184.017 37.601H225.246M73.462 34.1125L33.053 34.1139M73.462 34.1125L86.0818 30.76M125.701 30.76H165.321M125.701 30.76H86.0818M125.701 30.76L137.079 27.5366M165.321 30.76L175.941 27.5366M165.321 30.76L204.941 30.7614M194.687 34.1125L204.941 30.7614M194.687 34.1125H235.096M148.03 24.4338H186.161M148.03 24.4338L158.577 21.446M148.03 24.4338H109.899M148.03 24.4338L137.079 27.5366M158.577 21.446L196.005 21.4474M158.577 21.446L121.149 21.4474M158.577 21.446L168.742 18.5676M137.079 27.5366H175.941M137.079 27.5366H98.2182M186.161 24.4352L196.005 21.4474M186.161 24.4352L175.941 27.5366M186.161 24.4352H224.293M196.005 21.4474L205.493 18.5676M196.005 21.4474H233.433M175.941 27.5366H214.802M224.293 24.4352L233.433 21.4474M224.293 24.4352L214.802 27.5366M224.293 24.4352H262.424M121.149 21.4474L131.992 18.5676M121.149 21.4474L109.899 24.4352M168.742 18.5676H205.493M168.742 18.5676H131.992M168.742 18.5676L178.546 15.7888M205.493 18.5676L214.642 15.7888M205.493 18.5676H242.243M233.433 21.4474L242.243 18.5676M233.433 21.4474L270.862 21.446M188.007 13.1096H223.472M188.007 13.1096L197.142 10.5216M188.007 13.1096H152.541M188.007 13.1096L178.546 15.7888M223.472 13.1096L231.999 10.5216M223.472 13.1096L214.642 15.7888M223.472 13.1096H258.939M197.142 10.5216H231.999M197.142 10.5216L205.97 8.02059M197.142 10.5216H162.286M152.541 13.1096L162.286 10.5216M152.541 13.1096L142.449 15.7902M178.546 15.7888H214.642M178.546 15.7888L142.449 15.7902M231.999 10.5216H266.857M231.999 10.5216L240.239 8.02059M214.642 15.7888L250.74 15.7902M258.939 13.1096L266.857 10.5216M258.939 13.1096L250.74 15.7902M258.939 13.1096H294.405M205.97 8.02059H240.239M205.97 8.02059H171.701M162.286 10.5216L171.701 8.02059M266.857 10.5216L301.714 10.5202M266.857 10.5216L274.508 8.02059M240.239 8.02059H274.508M25.6098 157.478L48.5787 147.717M25.6098 157.478L1.0117 167.93M25.6098 157.478H95.048M25.6098 157.478H0.386268M48.5787 147.717L70.0767 138.581M48.5787 147.717H115.719M48.5787 147.717H0.387269M1.0117 167.93H72.9116M1.0117 167.93H0.387269M1.0117 167.93L0.387269 168.195M95.048 157.478L115.719 147.717M95.048 157.478L72.9116 167.93M95.048 157.478H164.487M70.0767 138.581L90.2417 130.012M70.0767 138.581H135.07M70.0767 138.581H5.08553M115.719 147.717L135.07 138.581M115.719 147.717H182.863M48.1134 121.959H109.194M48.1134 121.959L67.741 114.376M48.1134 121.959L27.2669 130.012M48.1134 121.959H0.387269M109.194 121.959L127.036 114.376H67.741M109.194 121.959L90.2417 130.012M109.194 121.959H170.274M67.741 114.376H8.44386L28.6419 107.223M67.741 114.376L86.2549 107.223M27.2669 130.012H90.2417M27.2669 130.012L5.08553 138.581M90.2417 130.012H153.217M170.274 121.959L186.333 114.377M170.274 121.959L153.217 130.012M170.274 121.959H231.355M86.2549 107.223H143.868M86.2549 107.223H28.6419M86.2549 107.223L103.746 100.467M143.868 107.223L127.036 114.377H186.333M143.868 107.223L159.769 100.467M143.868 107.223H201.481M186.333 114.377L201.481 107.223M120.299 94.0701H174.817M120.299 94.0701L135.985 88.0104M120.299 94.0701H65.7807M120.299 94.0701L103.746 100.465M174.817 94.0701L189.077 88.0104M174.817 94.0701L159.769 100.465M174.817 94.0701H229.335M135.985 88.0104H189.077M135.985 88.0104H82.8926M135.985 88.0104L150.872 82.2593M65.7807 94.0701L82.8926 88.0104M65.7807 94.0701L47.7231 100.467M189.077 88.0104L202.611 82.2593M189.077 88.0104H242.169M229.335 94.0701L242.169 88.0104M229.335 94.0701L215.792 100.467M229.335 94.0701H283.853M82.8926 88.0104L29.8007 88.0118M82.8926 88.0104L99.1328 82.2607M150.872 82.2593H202.611M150.872 82.2593L99.1328 82.2607M150.872 82.2593L165.019 76.7943M202.611 82.2593L215.471 76.7943M202.611 82.2593L254.35 82.2607M242.169 88.0104L254.35 82.2607M242.169 88.0104H295.261M178.478 71.5944H227.708M178.478 71.5944L191.302 66.64M178.478 71.5944H129.249M178.478 71.5944L165.019 76.7943M227.708 71.5944L239.365 66.64M227.708 71.5944L215.471 76.7943M227.708 71.5944H276.937M191.302 66.64H239.365M191.302 66.64H143.238M191.302 66.64L203.531 61.9157M129.249 71.5944L143.238 66.6415M129.249 71.5944L114.566 76.7957M165.019 76.7943H215.471M165.019 76.7943L114.566 76.7957M239.365 66.64L250.483 61.9157M239.365 66.64H287.429M215.471 76.7943L265.924 76.7957M276.937 71.5944L287.429 66.6415M276.937 71.5944L265.924 76.7957M276.937 71.5944H326.165M226.368 53.094H271.243M226.368 53.094L237.046 48.9686M226.368 53.094L181.492 53.0926M226.368 53.094L215.207 57.4046M271.243 53.094L280.951 48.9686M271.243 53.094L261.098 57.4046M271.243 53.094L316.118 53.0926L324.856 48.97M237.046 48.9686H280.951M237.046 48.9686H193.141M237.046 48.9686L247.271 45.0186M280.951 48.9686L290.247 45.0186M280.951 48.9686H324.856M247.271 45.0186H290.247M247.271 45.0186L204.296 45.02M247.271 45.0186L257.073 41.2327M290.247 45.0186L299.157 41.2341M290.247 45.0186L333.221 45.02M266.475 37.5996H307.705M266.475 37.5996L275.504 34.1111M266.475 37.5996H225.246M266.475 37.5996L257.073 41.2327M307.705 37.5996L308.749 37.155L315.913 34.1111M307.705 37.5996L299.157 41.2327M307.705 37.5996H348.935M275.504 34.1111H315.913M275.504 34.1111H235.096M275.504 34.1111L284.181 30.7586M257.073 41.2327H299.157M257.073 41.2327H214.988M315.913 34.1111L323.801 30.7586M315.913 34.1111H356.322M299.157 41.2327H341.241M284.181 30.7586H323.801M284.181 30.7586L244.561 30.76M284.181 30.7586L292.525 27.5352M323.801 30.7586L330.454 27.9335L331.386 27.5352M323.801 30.7586L363.42 30.7614M300.555 24.4324H338.687M300.555 24.4324L308.29 21.4446M300.555 24.4324H262.424M300.555 24.4324L292.525 27.5352M338.687 24.4324L345.718 21.446M338.687 24.4324L335.982 25.584L331.386 27.5352M338.687 24.4324L376.819 24.4338M292.525 27.5352H331.386M292.525 27.5352L253.663 27.5366M345.718 21.446H308.29M345.718 21.446L352.495 18.5662M345.718 21.446H383.146M331.386 27.5352L370.247 27.5366M308.29 21.446H270.862M308.29 21.446L315.744 18.5662M270.862 21.446L278.994 18.5676M270.862 21.446L269.824 21.8135L262.424 24.4352M383.146 21.446L389.245 18.5676M383.146 21.446L376.819 24.4352M383.146 21.446H420.574M329.871 13.1082H365.338M329.871 13.1082L336.571 10.5202M329.871 13.1082H294.405M329.871 13.1082L322.933 15.7874M365.338 13.1082L369.926 11.1585L370.678 10.8386L371.429 10.5202M365.338 13.1082L359.03 15.7874M365.338 13.1082H400.804M336.571 10.5202H371.429M336.571 10.5202L343.044 8.01919M336.571 10.5202H301.714M371.429 10.5202H406.286M371.429 10.5202L377.313 8.01919M343.044 8.01919H377.313M343.044 8.01919L308.776 8.02059M301.714 10.5202L294.405 13.1096M301.714 10.5202L308.776 8.02059M406.286 10.5202L400.804 13.1096M406.286 10.5202H441.142M406.286 10.5202L411.583 8.02059M377.313 8.01919L411.583 8.02059M377.313 8.01919L379.469 7.10462L383.003 5.60371M50.7683 268.669H146.373M50.7683 268.669L80.8722 250.393M50.7683 268.669L17.6883 288.75M50.7683 268.669H0.387269M146.373 268.669L172.177 250.393H80.8722M146.373 268.669L118.019 288.75M146.373 268.669H241.977M80.8722 250.393L108.384 233.691M80.8722 250.393H0.386268M17.6883 288.75H118.019M17.6883 288.75L0.387269 299.254M17.6883 288.75H0.387269M118.019 288.75L86.7152 310.921M118.019 288.75H218.35M241.977 268.669L263.48 250.393M241.977 268.669L218.35 288.75M241.977 268.669H337.582M108.384 233.691H195.757M108.384 233.691H21.0106M108.384 233.691L133.626 218.368M195.757 233.691L172.176 250.393H263.479M195.757 233.691L217.393 218.368M195.757 233.691H283.132M156.865 204.259H237.313M156.865 204.259L178.333 191.226M156.865 204.259H76.4181M76.4181 204.259L100.953 191.226M76.4181 204.259L49.8576 218.368M76.4181 204.259H0.387269M156.866 204.259L133.626 218.368M133.626 218.368H217.393M133.626 218.368H49.8576M237.314 204.259L255.715 191.226M237.314 204.259L217.393 218.368M237.314 204.259H317.762M255.715 191.226H178.334M255.715 191.226L272.765 179.15M255.715 191.226H333.096M217.393 218.368H301.161M317.762 204.259L333.096 191.226M317.762 204.259L301.161 218.368M317.762 204.259H398.209M178.334 191.226H100.953M178.334 191.226L198.227 179.15M100.953 191.226H23.5724M100.953 191.226L123.687 179.15M198.227 179.15H272.765M198.227 179.15H123.687M198.227 179.15L216.708 167.93M272.765 179.15L288.607 167.93M272.765 179.15H347.304M333.096 191.226L347.304 179.15M333.096 191.226H410.477M233.926 157.478H303.366M233.926 157.478L250.006 147.717M233.926 157.478H164.487M233.926 157.478L216.708 167.93M303.366 157.478L317.147 147.717M303.366 157.478L288.607 167.93M303.366 157.478H372.804M250.006 147.717H317.147M250.006 147.717H182.863M250.006 147.717L265.054 138.581M164.487 157.478L182.864 147.717M164.487 157.478L144.811 167.93M216.708 167.93H288.607M216.708 167.93H144.81M317.147 147.717L330.046 138.581M317.147 147.717H384.29M288.607 167.93H360.506M372.804 157.478L384.29 147.717M372.804 157.478L360.506 167.93M372.804 157.478L442.244 157.477M182.863 147.717L200.062 138.581M265.054 138.581H330.046M265.054 138.581H200.062M265.054 138.581L279.169 130.012M330.046 138.581L342.145 130.012M330.046 138.581H395.038M384.29 147.717L395.038 138.581M384.29 147.717L451.431 147.716M292.435 121.959H353.515M292.435 121.959L304.926 114.376M292.435 121.959H231.355M292.435 121.959L279.169 130.012M353.515 121.959L364.222 114.376H304.926M353.515 121.959L342.145 130.012M353.515 121.959H414.597M304.926 114.376H245.63M304.926 114.376L316.708 107.223M231.355 121.959L245.63 114.376M231.355 121.959L216.193 130.012M279.169 130.012H342.145M279.169 130.012H216.193M342.145 130.012H405.121M414.597 121.959L423.518 114.376M414.597 121.959L405.121 130.012M414.597 121.959L475.677 121.958M245.63 114.376H186.333M316.708 107.223H374.321M316.708 107.223L259.094 107.222M316.708 107.223L327.839 100.465M374.321 107.223L364.222 114.377H423.518M374.321 107.223L383.862 100.465M374.321 107.223L431.934 107.222M338.372 94.0701H392.891M338.372 94.0701L348.354 88.0104M338.372 94.0701H283.853M338.372 94.0701L327.839 100.465M392.891 94.0701L401.447 88.0104M392.891 94.0701L383.862 100.465M392.891 94.0701H447.409M348.354 88.0104H401.447M348.354 88.0104H295.261M348.354 88.0104L357.827 82.2593M283.853 94.0701L295.261 88.0104M283.853 94.0701L271.816 100.467M327.839 100.465H383.862M401.447 88.0104L409.566 82.2593M401.447 88.0104H454.539M383.862 100.465H439.884M447.409 94.0701L454.539 88.0104M447.409 94.0701L439.884 100.465M447.409 94.0701H501.927M295.261 88.0104L306.089 82.2593M357.827 82.2593H409.566M357.827 82.2593H306.089M357.827 82.2593L366.83 76.7943M409.566 82.2593L417.283 76.7943M409.566 82.2593H461.305M454.539 88.0104L461.305 82.2593M454.539 88.0104H507.631M375.396 71.5944H424.625M375.396 71.5944L383.555 66.64M375.396 71.5944H326.165M375.396 71.5944L366.83 76.7943M424.625 71.5944L431.619 66.64M424.625 71.5944L417.283 76.7943M424.625 71.5944H473.854M383.555 66.64H431.619M383.555 66.64H335.492M383.555 66.64L391.338 61.9157M326.165 71.5944L335.492 66.6415M326.165 71.5944L316.377 76.7943M366.83 76.7943H417.283M366.83 76.7943H316.377M431.619 66.64L438.289 61.9157M431.619 66.64H479.682M417.283 76.7943H467.736M473.854 71.5944L479.682 66.64M473.854 71.5944L467.736 76.7943M473.854 71.5944H523.083M391.338 61.9157H438.289M391.338 61.9157H344.386M391.338 61.9157L398.769 57.4046M438.289 61.9157L444.659 57.4046M438.289 61.9157H485.242M479.682 66.64L483.188 63.6621L485.242 61.9157M479.682 66.64H527.745M405.871 53.094H450.747M405.871 53.094L412.666 48.9686M405.871 53.094L360.995 53.0926M405.871 53.094L398.769 57.4046M450.747 53.094L456.57 48.9686M450.747 53.094L444.659 57.4046M450.747 53.094L495.622 53.0926M412.666 48.9686H456.57M412.666 48.9686H368.76M412.666 48.9686L419.173 45.0186M360.995 53.0926L316.118 53.0954L306.988 57.406M360.995 53.0926L368.76 48.97M360.995 53.0926L352.878 57.406M398.769 57.4046H444.659M398.769 57.4046H352.878M456.57 48.9686L462.148 45.0186M456.57 48.9686H500.476M444.659 57.4046H490.55M495.622 53.0926L500.476 48.9686M495.622 53.0926L494.374 54.1531L490.55 57.4046M495.622 53.0926H540.497M419.173 45.0186H462.148M419.173 45.0186H376.197M419.173 45.0186L425.409 41.2327M462.148 45.0186L464.849 43.1053L467.494 41.2313M462.148 45.0186H505.123M500.476 48.9686L505.123 45.0186M500.476 48.9686H544.38M431.394 37.5996H472.623M431.394 37.5996L437.14 34.1111M431.394 37.5996H390.164M431.394 37.5996L425.409 41.2327M472.623 37.5996L471.993 38.0443L467.494 41.2313M472.623 37.5996L477.548 34.1111M472.623 37.5996H513.853M437.14 34.1111H477.548M437.14 34.1111H396.73M437.14 34.1111L442.66 30.7586M425.409 41.2327L467.494 41.2313M425.409 41.2327L383.325 41.2313M467.494 41.2313L509.579 41.2327M477.548 34.1111L482.281 30.7586M477.548 34.1111H517.957M513.853 37.5996L509.579 41.2327M513.853 37.5996H555.082M453.081 24.4324H491.212M453.081 24.4324L458.003 21.4446M453.081 24.4324H414.949M453.081 24.4324L447.971 27.5352M491.212 24.4324L495.431 21.446M491.212 24.4324L489.589 25.584L488.494 26.3583L486.832 27.5366M491.212 24.4324L529.344 24.4338M447.971 27.5352L486.832 27.5366M447.971 27.5352L442.66 30.7614M447.971 27.5352H409.109M495.431 21.446H458.003M495.431 21.446L496.973 20.3533L497.99 19.6337L499.497 18.5662M495.431 21.446H532.859M486.832 27.5366L482.281 30.7614M486.832 27.5366H525.693M458.003 21.446H420.574M458.003 21.446L462.746 18.5662M420.574 21.446L425.996 18.5676M420.574 21.446L414.949 24.4352M532.859 21.446L533.289 21.0813L533.718 20.7166L535.412 19.2774L536.247 18.5676M532.859 21.446L530.234 23.6777L529.344 24.4352M532.859 21.446H570.288M471.737 13.1082H507.202M471.737 13.1082L474.948 11.1585L476 10.5202M471.737 13.1082H436.27M471.737 13.1082L467.882 15.448L467.322 15.7888M507.202 13.1082L509.955 11.1585L510.407 10.8386L510.858 10.5202M507.202 13.1082L505.327 14.4366L503.419 15.7888M507.202 13.1082H542.669M476 10.5202H510.858M476 10.5202L480.119 8.01919M476 10.5202H441.142M467.322 15.7888H503.419M467.322 15.7888L466.193 16.4748L462.746 18.5676M467.322 15.7888L431.224 15.7902M510.858 10.5202H545.714M510.858 10.5202L514.388 8.01919M503.419 15.7888L501.475 17.1649L499.497 18.5676M503.419 15.7888L539.516 15.7902M480.119 8.01919H514.388M480.119 8.01919L445.851 8.02059M441.142 10.5202L436.27 13.1096M441.142 10.5202L444.689 8.63778L445.851 8.02059M545.714 10.5202L542.669 13.1096M545.714 10.5202H580.571M545.714 10.5202L547.93 8.63778L548.657 8.02059M514.388 8.01919L548.657 8.02059M514.388 8.01919L515.682 7.10462L517.802 5.60371M433.187 268.667H528.791M433.187 268.667L446.088 250.392M433.187 268.667H337.582M433.187 268.667L419.009 288.749M528.791 268.667L537.392 250.392M528.791 268.667L519.34 288.749M528.791 268.667H624.396M446.088 250.392H537.392M446.088 250.392H354.784M446.088 250.392L457.879 233.689M537.392 250.392L545.253 233.689M537.392 250.392H628.697M354.784 250.392L263.48 250.393M354.784 250.392L370.505 233.691M354.784 250.392L337.582 268.669M628.697 250.392L632.626 233.691M628.697 250.392L624.396 268.669M628.697 250.392H720M478.657 204.258H559.104M478.657 204.258L487.858 191.225M478.657 204.258H398.209M478.657 204.258L468.696 218.366M559.104 204.258L565.239 191.225M559.104 204.258L552.465 218.366M559.104 204.258H639.552M487.858 191.225H565.239M487.858 191.225H410.477M487.858 191.225L496.383 179.149M565.239 191.225L570.921 179.149M565.239 191.225H642.619M496.383 179.149H570.921M496.383 179.149L421.844 179.15M496.383 179.149L504.303 167.929M570.921 179.149L576.203 167.929M570.921 179.149L645.461 179.15M511.682 157.477H581.122M511.682 157.477L518.574 147.716M511.682 157.477H442.244M511.682 157.477L504.303 167.929M581.122 157.477L585.716 147.716M581.122 157.477L576.203 167.929M581.122 157.477H650.561M518.574 147.716H585.716M518.574 147.716H451.431M518.574 147.716L525.024 138.58M442.244 157.477L451.431 147.716M442.244 157.477L432.404 167.93M504.303 167.929H576.203M504.303 167.929L432.404 167.93M585.716 147.716L590.016 138.58M585.716 147.716H652.858M576.203 167.929L648.101 167.93M650.561 157.477L652.858 147.716M650.561 157.477L648.101 167.93M650.561 157.477H720M451.431 147.716L460.031 138.581M525.024 138.58H590.016M525.024 138.58L460.031 138.581M525.024 138.58L531.073 130.011M590.016 138.58L594.048 130.011M590.016 138.58L655.008 138.581M652.858 147.716L655.008 138.581M652.858 147.716H720M536.758 121.958H597.838M536.758 121.958L542.111 114.374M536.758 121.958H475.677M536.758 121.958L531.073 130.011M597.838 121.958L601.408 114.374M597.838 121.958L594.048 130.011M597.838 121.958H658.92M542.111 114.374H601.408M542.111 114.374H482.815M542.111 114.374L547.16 107.222M475.677 121.958L482.815 114.374M475.677 121.958L468.097 130.012M531.073 130.011H594.048M531.073 130.011L468.097 130.012M601.408 114.374L604.774 107.222M601.408 114.374L660.704 114.376H720M594.048 130.011L657.024 130.012M658.92 121.958L660.704 114.377L662.387 107.223M658.92 121.958L657.024 130.012M658.92 121.958L720 121.959M482.815 114.374L423.518 114.376M482.815 114.374L489.547 107.223M547.16 107.222H604.774M547.16 107.222L489.547 107.223M547.16 107.222L551.931 100.467M604.774 107.222L607.954 100.467M604.774 107.222L662.387 107.223M556.444 94.0701H610.963M556.444 94.0701L560.722 88.0104M556.444 94.0701H501.927M556.444 94.0701L551.931 100.465M610.963 94.0701L613.815 88.0104M610.963 94.0701L607.954 100.465M610.963 94.0701H665.482M560.722 88.0104H613.815M560.722 88.0104H507.631M560.722 88.0104L564.783 82.2593M501.927 94.0701L507.631 88.0104M501.927 94.0701L495.907 100.465M613.815 88.0104L616.522 82.2593M613.815 88.0104H666.908M665.482 94.0701L666.908 88.0104M665.482 94.0701L663.977 100.467M665.482 94.0701H720M507.631 88.0104L513.044 82.2607M564.783 82.2593H616.522M564.783 82.2593L513.044 82.2607M564.783 82.2593L568.642 76.7943M616.522 82.2593L619.094 76.7943M616.522 82.2593L668.261 82.2607M666.908 88.0104L668.261 82.2607M666.908 88.0104H720M572.312 71.5944H621.542M572.312 71.5944L575.809 66.64M572.312 71.5944H523.083M572.312 71.5944L568.642 76.7943M621.542 71.5944L623.873 66.64M621.542 71.5944L619.094 76.7943M621.542 71.5944H670.771M575.809 66.64H623.873M575.809 66.64H527.745M575.809 66.64L577.079 64.8432L579.145 61.9157M523.083 71.5944L527.745 66.64M523.083 71.5944L518.189 76.7957M568.642 76.7943H619.094M568.642 76.7943L518.189 76.7957M623.873 66.64L626.097 61.9157M623.873 66.64H671.937M619.094 76.7943L669.547 76.7957M670.771 71.5944L671.937 66.6415M670.771 71.5944L669.547 76.7957M670.771 71.5944L720 71.5958M527.745 66.64L532.194 61.9157M585.373 53.094H630.249M585.373 53.094L588.286 48.9686M585.373 53.094L540.497 53.0926M585.373 53.094L583.104 56.3091L582.329 57.4046M630.249 53.094L630.987 51.5258L632.19 48.9686M630.249 53.094L628.219 57.4046M630.249 53.094L675.125 53.0926L676.095 48.97M588.286 48.9686L588.64 48.4651L591.073 45.0186M588.286 48.9686H632.19M588.286 48.9686H544.38M540.497 53.0926L544.38 48.9686M540.497 53.0926L540 53.6214L538.491 55.2248L536.438 57.4046M632.19 48.9686L632.896 47.4677L633.13 46.9726L633.362 46.4802L634.049 45.0186M632.19 48.9686H676.095M591.073 45.0186H634.049M591.073 45.0186L548.099 45.02M591.073 45.0186L593.747 41.2327M544.38 48.9686L548.099 45.02M634.049 45.0186L634.727 43.5808L634.949 43.1067L635.832 41.2341M634.049 45.0186L677.025 45.02M596.311 37.5996H637.541M596.311 37.5996L597.555 35.8378L597.862 35.403L598.167 34.9695L598.472 34.5403L598.774 34.1111M596.311 37.5996H555.082M596.311 37.5996L593.747 41.2327M637.541 37.5996L638.779 34.9695L638.982 34.5403L639.182 34.1111M637.541 37.5996L635.832 41.2327M637.541 37.5996H678.77M598.774 34.1111H639.182M598.774 34.1111H558.366L557.556 34.9695L555.082 37.5996M598.774 34.1111L600.264 32L600.557 31.5848L601.14 30.76M555.082 37.5996L553.816 38.9434L552.531 40.3097L551.662 41.2327M593.747 41.2327H635.832M593.747 41.2327H551.662M639.182 34.1111H679.592H720M635.832 41.2327H677.916M678.77 37.5996L679.592 34.1125L680.38 30.76M678.77 37.5996H720M601.14 30.76L640.76 30.7586M601.14 30.76L561.52 30.7586M601.14 30.76L603.416 27.5366M639.182 34.1125L640.176 32.0014L640.372 31.5848L640.566 31.171L640.76 30.7586M640.76 30.7586L642.277 27.5352M640.76 30.7586L680.38 30.76M605.607 24.4324H643.738M605.607 24.4324L607.716 21.4446M605.607 24.4324H567.474M605.607 24.4324L605.066 25.1982L604.247 26.3583L603.416 27.5366M643.738 24.4324L643.558 24.8153L642.462 27.141L642.277 27.5352M643.738 24.4324L645.144 21.446M643.738 24.4324L681.869 24.4338M603.416 27.5366L642.277 27.5352M603.416 27.5366H564.555M642.277 27.5352H681.139M645.144 21.446H607.716M645.144 21.446L645.658 20.3533L645.827 19.9928L645.997 19.6337L646.499 18.5662M645.144 21.446H682.572M681.869 24.4338L682.399 22.1824L682.485 21.8121L682.572 21.446M681.869 24.4338L681.139 27.5352M681.869 24.4338H720M607.716 21.446H570.288M607.716 21.446L609.748 18.5662M570.288 21.446L572.998 18.5676M570.288 21.446L569.942 21.8135L567.474 24.4352M609.748 18.5662H646.499M609.748 18.5662H572.998M609.748 18.5662L610.245 17.862L610.492 17.5114L610.737 17.1649L610.982 16.8184L611.225 16.4733L611.469 16.1297L611.709 15.7888M646.499 18.5662H683.249M682.572 21.446L683.249 18.5662M682.572 21.446L720 21.4474M613.601 13.1082H649.068M613.601 13.1082L614.978 11.1585L615.428 10.5202M613.601 13.1082H578.135M613.601 13.1082L612.9 14.1014L612.663 14.4366L612.426 14.7733L611.709 15.7888M649.068 13.1082L649.223 12.78L649.529 12.1263L649.834 11.4811L650.286 10.5202M649.068 13.1082L648.442 14.4366L648.284 14.7733L647.966 15.448L647.807 15.7888M649.068 13.1082H684.533M615.428 10.5202H650.286M615.428 10.5202L616.976 8.32638L617.195 8.01778M615.428 10.5202H580.571M611.709 15.7888H647.807M611.709 15.7888H575.612M650.286 10.5202L650.436 10.2018L650.584 9.8862L650.732 9.57199L650.879 9.25919L651.317 8.32638L651.463 8.01778M650.286 10.5202H685.143M647.807 15.7888L647.645 16.1311L647.484 16.4748L647.322 16.8198L647.158 17.1663L646.83 17.8634L646.665 18.2141L646.499 18.5676M647.807 15.7888L683.903 15.7902M580.571 10.5202L578.135 13.1096M580.571 10.5202L581.759 9.25919L582.636 8.32778L582.925 8.01919M685.143 10.5202L684.533 13.1096M685.143 10.5202L685.217 10.2032L685.292 9.8876L685.366 9.57339L685.731 8.02059M685.143 10.5202L720 10.5216M815.604 268.667H911.21M815.604 268.667L811.303 250.392M815.604 268.667H720M815.604 268.667L820.331 288.749M911.21 268.667L902.609 250.392M911.21 268.667L920.66 288.749M911.21 268.667H1006.81M811.303 250.392H902.609M811.303 250.392H720M811.303 250.392L807.374 233.689M902.609 250.392L894.747 233.689M902.609 250.392H993.912M720 250.392V233.691M720 250.392V268.669M993.912 250.392L982.121 233.691M993.912 250.392L1006.81 268.669M993.912 250.392L1085.21 250.393M800.448 204.258H880.896M800.448 204.258L797.381 191.225M800.448 204.258H720M800.448 204.258L803.768 218.366M880.896 204.258L874.761 191.225M880.896 204.258L887.535 218.366M880.896 204.258H961.343M797.381 191.225H874.761M797.381 191.225H720M797.381 191.225L794.539 179.149M874.761 191.225L869.078 179.149M874.761 191.225H952.142M794.539 179.149H869.078M794.539 179.149L720 179.15M794.539 179.149L791.899 167.929M869.078 179.149L863.797 167.929M869.078 179.149L943.617 179.15M789.439 157.477H858.878M789.439 157.477L787.143 147.716M789.439 157.477H720M789.439 157.477L791.899 167.929M858.878 157.477L854.284 147.716M858.878 157.477L863.797 167.929M858.878 157.477H928.318M787.143 147.716H854.284M787.143 147.716H720M787.143 147.716L784.992 138.58M720 157.477V147.716M720 157.477V167.93M791.899 167.929H863.797M791.899 167.929L720 167.93M854.284 147.716L849.984 138.58M854.284 147.716H921.426M863.797 167.929L935.697 167.93M928.318 157.477L921.426 147.716M928.318 157.477L935.697 167.93M928.318 157.477L997.756 157.478M720 147.716V138.581M784.992 138.58H849.984M784.992 138.58L720 138.581M784.992 138.58L782.976 130.012M849.984 138.58L845.951 130.012M849.984 138.58L914.976 138.581M921.426 147.716L914.976 138.581M921.426 147.716L988.568 147.717M781.08 121.959H842.162M781.08 121.959L779.296 114.376M781.08 121.959H720M781.08 121.959L782.976 130.012M842.162 121.959L838.593 114.376H779.296M842.162 121.959L845.951 130.012M842.162 121.959H903.242M779.296 114.376H720M779.296 114.376L777.613 107.223M720 121.959V114.376M720 121.959V130.012M782.976 130.012H845.951M782.976 130.012H720M845.951 130.012H908.927M903.242 121.959L897.888 114.377M903.242 121.959L908.927 130.012M903.242 121.959H964.323M777.613 107.223H835.226M777.613 107.223H720M777.613 107.223L776.023 100.467M835.226 107.223L838.593 114.377H897.888M835.226 107.223L832.046 100.467M835.226 107.223H892.84M897.888 114.377L892.84 107.223M774.518 94.0701H829.037M774.518 94.0701L773.093 88.0104M774.518 94.0701H720M774.518 94.0701L776.023 100.465M829.037 94.0701L826.185 88.0104M829.037 94.0701L832.046 100.465M829.037 94.0701H883.556M773.093 88.0104H826.185M773.093 88.0104H720M773.093 88.0104L771.739 82.2593M720 94.0701V88.0104M720 94.0701V100.467M826.185 88.0104L823.478 82.2593M826.185 88.0104H879.278M883.556 94.0701L879.278 88.0104M883.556 94.0701L888.07 100.467M883.556 94.0701H938.073M720 88.0104V82.2607M771.739 82.2593H823.478M771.739 82.2593L720 82.2607M771.739 82.2593L770.61 77.4634L770.453 76.7957M823.478 82.2593L820.906 76.7957M823.478 82.2593L875.217 82.2607M879.278 88.0104L875.217 82.2607M879.278 88.0104H932.368M769.229 71.5958H818.458M769.229 71.5958L768.063 66.6415M769.229 71.5958H720M769.229 71.5958L770.453 76.7957M818.458 71.5958L816.127 66.6415M818.458 71.5958L820.906 76.7957M818.458 71.5958H867.688M768.063 66.6415H816.127M768.063 66.6415H720M768.063 66.6415L766.952 61.9171M720 71.5958V66.6415M720 71.5958V76.7957M770.453 76.7957H820.906M770.453 76.7957H720M816.127 66.6415L813.903 61.9171M816.127 66.6415H864.191M820.906 76.7957H871.358M867.688 71.5958L864.191 66.6415M867.688 71.5958L871.358 76.7957M867.688 71.5958H916.917M720 66.6415H671.937M720 66.6415V61.9171M766.952 61.9171H813.903M766.952 61.9171H720M766.952 61.9171L765.89 57.406M813.903 61.9171L811.781 57.406M813.903 61.9171H860.855M864.191 66.6415L863.341 65.4407L860.855 61.9171M864.191 66.6415H912.254M764.875 53.0954H809.751M764.875 53.0954L763.904 48.97M764.875 53.0954L720 53.094M764.875 53.0954L765.89 57.406M809.751 53.0954L808.047 49.475L807.81 48.97M809.751 53.0954L811.781 57.406M809.751 53.0954L854.626 53.094M763.904 48.97L763.787 48.4665L762.975 45.02M763.904 48.97H807.81M763.904 48.97H720M720 53.094L675.125 53.0954L674.11 57.406M720 53.094V48.97M720 53.094V57.406M765.89 57.406H811.781M765.89 57.406H720M807.81 48.97L807.103 47.4691L806.87 46.974L806.638 46.4816L805.951 45.02M807.81 48.97H851.714M811.781 57.406H857.671M854.626 53.094L851.714 48.97M854.626 53.094L856.896 56.3105L857.671 57.406M854.626 53.094L899.503 53.0954M762.975 45.02H805.951M762.975 45.02H720M762.975 45.02L762.749 44.0577L762.303 42.1641L762.084 41.2327M720 48.97H676.095M720 48.97V45.02M805.951 45.02L805.273 43.5808L805.051 43.1067L804.168 41.2327M805.951 45.02H848.926M851.714 48.97L848.926 45.02M851.714 48.97L895.62 48.9715M761.23 37.601H802.459M761.23 37.601L760.409 34.1125M761.23 37.601H720M761.23 37.601L761.546 38.9448L761.653 39.3979L761.759 39.8538L761.975 40.7712L762.084 41.2341M802.459 37.601L801.221 34.971L800.817 34.1125M802.459 37.601L804.168 41.2341M802.459 37.601H843.689M760.409 34.1125H800.817M760.409 34.1125H720M760.409 34.1125L759.619 30.76M720 37.601V34.1125M720 37.601V41.2341M800.817 34.1125L799.824 32.0014L799.628 31.5862L799.434 31.1724L799.24 30.76M800.817 34.1125H841.226M843.689 37.601L842.138 35.4044L841.833 34.971L841.528 34.5417L841.226 34.1125M843.689 37.601L845.927 40.7712L846.253 41.2341M843.689 37.601L884.917 37.6024M720 34.1125V30.7614M759.619 30.76H799.24M759.619 30.76L720 30.7614M759.619 30.76L758.861 27.5366M799.24 30.76L797.723 27.5366M799.24 30.76L838.859 30.7614M841.226 34.1125L840.031 32.4194L839.736 32.0028L839.443 31.5862L838.859 30.7614M841.226 34.1125L881.634 34.1139M758.131 24.4338H796.263M758.131 24.4338L757.428 21.446M758.131 24.4338H720M758.131 24.4338L758.861 27.5366M757.428 21.446L794.856 21.4474M757.428 21.446L720 21.4474M757.428 21.446L756.75 18.5676M720 24.4338V21.4474M720 24.4338V27.5366M758.861 27.5366H797.723M758.861 27.5366H720M796.263 24.4352L796.442 24.8167L797.538 27.1424L797.723 27.5366M796.263 24.4352L794.856 21.4474M796.263 24.4352H834.393M797.723 27.5366H836.584M794.856 21.4474L794.342 20.3547L794.172 19.9942L794.003 19.6351L793.501 18.5676M794.856 21.4474H832.284M834.393 24.4352L832.284 21.4474M834.393 24.4352L834.934 25.1996L835.753 26.3597L836.584 27.538M834.393 24.4352H872.526M720 21.4474V18.5662H683.249M756.75 18.5676H793.501M756.75 18.5676H720V15.7902M756.75 18.5676L756.097 15.7888M793.501 18.5676L793.335 18.2141L792.842 17.1663L792.678 16.8198L792.516 16.4748L792.355 16.1311L792.194 15.7902M793.501 18.5676H830.252M832.284 21.4474L830.252 18.5676M832.284 21.4474H869.712M755.467 13.1096H790.933M755.467 13.1096L754.857 10.5216M755.467 13.1096H720M755.467 13.1096L756.097 15.7888M790.933 13.1096L790.778 12.7814L790.47 12.1277L790.318 11.8051L790.015 11.1599L789.864 10.84L789.714 10.5216M790.933 13.1096L791.558 14.438L791.716 14.7747L792.034 15.4494L792.194 15.7902M790.933 13.1096H826.399M754.857 10.5216L754.783 10.2032L754.708 9.8876L754.634 9.57339L754.269 8.02059M754.857 10.5216H789.714M754.857 10.5216H720M720 13.1096H684.533M720 13.1096V10.5216M720 13.1096V15.7902M756.097 15.7888L792.194 15.7902M756.097 15.7888L720 15.7902M789.714 10.5216H824.572M789.714 10.5216L789.416 9.8876L789.268 9.57339L789.121 9.26059L788.683 8.32778L788.537 8.01919M792.194 15.7902H828.291M826.399 13.1096L825.022 11.1599L824.572 10.5216M826.399 13.1096L827.574 14.7733L828.291 15.7902M826.399 13.1096L861.864 13.111M754.269 8.02059L788.537 8.01919M754.269 8.02059H720M720 10.5216V8.02059M824.572 10.5216L859.429 10.523M824.572 10.5216L823.242 8.63778L822.805 8.02059M788.537 8.01919L822.805 8.02059M1198.02 268.669H1293.63M1198.02 268.669L1176.52 250.393M1198.02 268.669H1102.42M1198.02 268.669L1221.65 288.75M1293.63 268.669L1267.82 250.393M1293.63 268.669L1321.98 288.75M1293.63 268.669H1389.23M1176.52 250.393H1267.82M1176.52 250.393H1085.21M1176.52 250.393L1156.87 233.691M1102.42 268.669H1006.81M1102.42 268.669L1085.21 250.393M1102.42 268.669L1121.32 288.75M1221.65 288.75H1321.98M1221.65 288.75L1247.74 310.921M1221.65 288.75H1121.32M1267.82 250.393L1244.24 233.691M1267.82 250.393H1359.12M1321.98 288.75L1353.28 310.921M1321.98 288.75H1422.31M1389.23 268.669L1359.12 250.393M1389.23 268.669L1422.31 288.75M1389.23 268.669H1439.61M1085.21 250.393L1069.49 233.691M1156.87 233.691H1244.24M1156.87 233.691H1069.49M1156.87 233.691L1138.84 218.368M1244.24 233.691L1222.61 218.368M1244.24 233.691H1331.61M1359.12 250.393L1331.61 233.691M1359.12 250.393H1439.61M1122.24 204.259H1202.69M1122.24 204.259L1106.91 191.226M1122.24 204.259H1041.79M1122.24 204.259L1138.84 218.368M1202.69 204.259L1184.28 191.226M1202.69 204.259L1222.61 218.368M1202.69 204.259H1283.13M1106.91 191.226H1184.28M1106.91 191.226H1029.52M1106.91 191.226L1092.7 179.15M1041.79 204.259H961.343M1041.79 204.259L1029.52 191.226M1041.79 204.259L1055.07 218.368M1138.84 218.368H1222.61M1138.84 218.368H1055.07M1184.28 191.226L1167.23 179.15M1184.28 191.226H1261.67M1222.61 218.368H1306.38M1283.13 204.259L1261.67 191.226M1283.13 204.259L1306.38 218.368M1283.13 204.259H1363.58M1029.52 191.226H952.142M1029.52 191.226L1018.16 179.15M1092.7 179.15H1167.23M1092.7 179.15H1018.16M1092.7 179.15L1079.49 167.93M1167.23 179.15L1151.39 167.93M1167.23 179.15H1241.77M1261.67 191.226L1241.77 179.15M1261.67 191.226L1339.05 191.228M1067.19 157.478H1136.64M1067.19 157.478L1055.71 147.717M1067.19 157.478H997.756M1067.19 157.478L1079.49 167.93M1136.64 157.478L1122.85 147.717M1136.64 157.478L1151.39 167.93M1136.64 157.478H1206.08M1055.71 147.717H1122.85M1055.71 147.717H988.568M1055.71 147.717L1044.97 138.581M997.756 157.478L988.568 147.717M997.756 157.478L1007.6 167.93M1079.49 167.93H1151.39M1079.49 167.93H1007.6M1122.85 147.717L1109.95 138.581M1122.85 147.717H1190M1151.39 167.93H1223.29M1206.08 157.478L1190 147.717M1206.08 157.478L1223.29 167.93M1206.08 157.478L1275.52 157.48M988.568 147.717L979.969 138.581M1044.97 138.581H1109.95M1044.97 138.581H979.969M1044.97 138.581L1034.88 130.012M1109.95 138.581L1097.85 130.012M1109.95 138.581H1174.95M1190 147.717L1174.95 138.581M1190 147.717L1257.13 147.718M1025.4 121.959H1086.48M1025.4 121.959L1016.49 114.376M1025.4 121.959H964.323M1025.4 121.959L1034.88 130.012M1086.48 121.959L1075.78 114.376H1016.49M1086.48 121.959L1097.85 130.012M1086.48 121.959H1147.57M1016.49 114.376H957.185M1016.49 114.376L1008.07 107.223M964.323 121.959L957.185 114.376M964.323 121.959L971.903 130.012M1034.88 130.012H1097.85M1034.88 130.012H971.903M1097.85 130.012H1160.83M1147.57 121.959L1135.08 114.377M1147.57 121.959L1160.83 130.012M1147.57 121.959L1208.65 121.96M957.185 114.376H897.888M1008.07 107.223H1065.68M1008.07 107.223H950.453M1008.07 107.223L1000.12 100.467M1065.68 107.223L1075.78 114.377H1135.08M1065.68 107.223L1056.14 100.467M1065.68 107.223H1123.29M1135.08 114.377L1123.29 107.223M992.591 94.0701H1047.11M992.591 94.0701L985.461 88.0104M992.591 94.0701H938.073M992.591 94.0701L1000.12 100.465M1047.11 94.0701L1038.55 88.0104M1047.11 94.0701L1056.14 100.465M1047.11 94.0701H1101.62M985.461 88.0104H1038.55M985.461 88.0104H932.368M985.461 88.0104L978.695 82.2593M938.073 94.0701L936.618 92.5272L932.368 88.0104M938.073 94.0701L944.093 100.467M1038.55 88.0104L1030.44 82.2593M1038.55 88.0104H1091.65M1101.62 94.0701L1091.65 88.0104M1101.62 94.0701L1112.16 100.467M1101.62 94.0701H1156.14M932.368 88.0104L926.956 82.2607M978.695 82.2593H1030.44M978.695 82.2593L926.956 82.2607M978.695 82.2593L972.265 76.7957M1030.44 82.2593L1022.72 76.7957M1030.44 82.2593L1082.17 82.2607M1091.65 88.0104L1082.17 82.2607M1091.65 88.0104L1144.73 88.0118M966.147 71.5958H1015.38M966.147 71.5958L960.318 66.6415M966.147 71.5958H916.917M966.147 71.5958L972.265 76.7957M1015.38 71.5958L1008.38 66.6415M1015.38 71.5958L1022.72 76.7957M1015.38 71.5958H1064.61M960.318 66.6415H1008.38M960.318 66.6415H912.254M960.318 66.6415L954.759 61.9171M916.917 71.5958L912.254 66.6415M916.917 71.5958L921.811 76.7957M972.265 76.7957H1022.72M972.265 76.7957H921.811M1008.38 66.6415L1001.71 61.9171M1008.38 66.6415H1056.44M1022.72 76.7957H1073.17M1064.61 71.5958L1056.44 66.6415M1064.61 71.5958L1073.17 76.7957M1064.61 71.5958H1113.83M912.254 66.6415L907.806 61.9171M954.759 61.9171H1001.71M954.759 61.9171H907.806M954.759 61.9171L949.45 57.4074M1001.71 61.9171L995.341 57.4074M1001.71 61.9171H1048.66M1056.44 66.6415L1048.66 61.9171M1056.44 66.6415H1104.51M944.378 53.0968L944.999 53.6243L945.626 54.1573L949.45 57.4074M944.378 53.0968L989.254 53.0954M944.378 53.0968L939.524 48.9715M944.378 53.0968L899.503 53.0954M949.45 57.4074H995.341M949.45 57.4074L903.561 57.406M989.254 53.0954L983.43 48.9715M989.254 53.0954L995.341 57.4074M989.254 53.0954H1034.13M939.524 48.9715H983.43M939.524 48.9715H895.62M939.524 48.9715L934.877 45.0214M899.503 53.0954L895.62 48.9715M899.503 53.0954L901.509 55.2262L903.561 57.406M983.43 48.9715L977.852 45.0214M983.43 48.9715H1027.33M995.341 57.4074L1041.23 57.406M1034.13 53.0954L1027.33 48.9715M1034.13 53.0954L1041.23 57.406M1034.13 53.0954H1079.01M895.62 48.9715L891.901 45.02M934.877 45.0214H977.852M934.877 45.0214L891.901 45.02M934.877 45.0214L933.745 44.0577L930.421 41.2327M977.852 45.0214L975.821 43.5808L975.151 43.1067L972.506 41.2355L967.378 37.6024M977.852 45.0214L1020.83 45.02M1027.33 48.9715L1020.83 45.02M1027.33 48.9715H1071.24M926.147 37.6024H967.378M926.147 37.6024L922.043 34.1139M926.147 37.6024H884.917M926.147 37.6024L930.421 41.2355M967.378 37.6024L964.276 35.4058L962.452 34.1153M967.378 37.6024H1008.61M922.043 34.1139L962.452 34.1153M922.043 34.1139H881.634M922.043 34.1139L918.585 31.1738L918.099 30.7614M884.917 37.6024L882.444 34.971L881.634 34.1139M884.917 37.6024L886.184 38.9448L888.338 41.2327M962.452 34.1153L957.719 30.7614M962.452 34.1153L1002.86 34.1139M1008.61 37.6024L1002.86 34.1139M1008.61 37.6024L1014.59 41.2341M1008.61 37.6024H1049.84M881.634 34.1139L878.48 30.76M918.099 30.7614H957.719M918.099 30.7614L878.48 30.76M918.099 30.7614L914.307 27.5366M957.719 30.7614L953.168 27.5366M957.719 30.7614H997.34M1002.86 34.1139L999.384 32.0028L998.699 31.5862L997.34 30.7614M1002.86 34.1139H1043.26M910.656 24.4352H948.788M910.656 24.4352L909.766 23.6777L907.141 21.4474M910.656 24.4352H872.526M910.656 24.4352L911.556 25.201L913.381 26.7524L914.307 27.538M948.788 24.4352L944.569 21.4488M948.788 24.4352L950.411 25.5868L951.506 26.3611L953.168 27.5394M948.788 24.4352L986.919 24.4366M872.526 24.4352L870.059 21.8135L869.712 21.4474M872.526 24.4352L872.884 24.8167L873.245 25.1996L873.608 25.584L875.445 27.5366M944.569 21.4488H907.141M944.569 21.4488L943.027 20.3561L942.01 19.6365L940.503 18.569M944.569 21.4488H981.997M986.919 24.4366L981.997 21.4474M986.919 24.4366L990.089 26.3597L990.734 26.751L992.029 27.5366M986.919 24.4366L1025.05 24.4352M907.141 21.4488H869.712M907.141 21.4488L904.588 19.2788L903.753 18.569M903.753 18.569H940.503M903.753 18.569L867.002 18.5676M903.753 18.569L900.485 15.7902M940.503 18.569L938.525 17.1663L938.035 16.8198L936.581 15.7902M940.503 18.569L977.254 18.5676M897.331 13.111H932.798M897.331 13.111L895.415 11.4839L894.286 10.523M897.331 13.111H861.864M897.331 13.111L900.485 15.7902M932.798 13.111L930.045 11.1613L929.593 10.8414L929.142 10.523M932.798 13.111L934.673 14.4394L936.581 15.7916M932.798 13.111H968.263M894.286 10.523H929.142M894.286 10.523L892.802 9.26059L892.069 8.63919L891.705 8.33059L891.344 8.02199M894.286 10.523H859.429M861.864 13.111L860.03 11.1599L859.429 10.523M861.864 13.111L864.388 15.7902M900.485 15.7902H936.581M900.485 15.7902H864.388M929.142 10.523H964M929.142 10.523L925.612 8.02199M968.263 13.111L965.052 11.1599L964 10.523M968.263 13.111L972.118 15.4494L972.678 15.7902M968.263 13.111L1003.73 13.1096M891.344 8.02199H925.612M891.344 8.02199L857.075 8.01919M859.429 10.523L858.241 9.25919L857.364 8.32778L857.075 8.01919M964 10.523L998.858 10.5216M964 10.523L959.881 8.02059M925.612 8.02199L959.881 8.02059M925.612 8.02199L924.318 7.10462L922.198 5.60371M1416.42 191.228H1339.05M1416.42 191.228L1390.86 179.152M1416.42 191.228H1439.61M1416.42 191.228L1439.61 202.175M1339.05 191.228L1316.31 179.15M1339.05 191.228L1363.58 204.259M1390.86 179.152L1367.09 167.931M1390.86 179.152L1316.31 179.15M1390.86 179.152L1439.61 179.15M1439.61 191.228V179.15M1439.61 191.228V202.175M1439.61 202.175V204.259M1344.95 157.48H1414.39M1344.95 157.48L1324.28 147.718M1344.95 157.48H1275.52M1344.95 157.48L1367.09 167.931M1414.39 157.48L1391.43 147.718M1414.39 157.48L1438.99 167.931M1414.39 157.48H1439.61M1324.28 147.718H1391.43M1324.28 147.718H1257.13M1324.28 147.718L1304.93 138.582M1275.52 157.48L1257.13 147.718M1275.52 157.48L1295.19 167.93M1367.09 167.931H1438.99M1367.09 167.931L1295.19 167.93M1391.43 147.718L1369.92 138.582M1391.43 147.718H1439.61M1438.99 167.931L1439.61 167.93M1438.99 167.931L1439.61 168.195M1439.61 157.48V147.718M1439.61 157.48V167.93M1257.13 147.718L1239.94 138.581M1304.93 138.582H1369.92M1304.93 138.582L1239.94 138.581M1304.93 138.582L1286.78 130.013M1369.92 138.582L1349.76 130.013M1369.92 138.582L1434.92 138.581M1439.61 147.718V140.396M1269.72 121.96H1330.8M1269.72 121.96L1253.67 114.377M1269.72 121.96H1208.65M1269.72 121.96L1286.78 130.013M1330.8 121.96L1312.96 114.377M1330.8 121.96L1349.76 130.013M1330.8 121.96H1391.89M1253.67 114.377H1312.96M1253.67 114.377H1194.37L1180.91 107.223M1253.67 114.377L1238.52 107.225M1208.65 121.96L1194.37 114.376H1135.08M1208.65 121.96L1223.81 130.012M1286.78 130.013H1349.76M1286.78 130.013L1223.81 130.012M1312.96 114.377L1296.13 107.225M1312.96 114.377L1372.26 114.379M1349.76 130.013L1412.73 130.012M1391.89 121.96L1372.26 114.379M1391.89 121.96L1412.73 130.012M1391.89 121.96L1439.61 121.959M1238.52 107.225H1296.13M1238.52 107.225L1180.91 107.223M1238.52 107.225L1224.21 100.467M1296.13 107.225L1280.23 100.467M1296.13 107.225L1353.75 107.223M1372.26 114.379L1353.75 107.223M1210.66 94.0701H1265.18M1210.66 94.0701L1197.83 88.0104M1210.66 94.0701H1156.14M1210.66 94.0701L1224.21 100.465M1265.18 94.0701L1250.92 88.0104M1265.18 94.0701L1280.23 100.465M1265.18 94.0701H1319.71M1197.83 88.0104H1250.92M1197.83 88.0104L1144.73 88.0118M1197.83 88.0104L1185.65 82.2607M1156.14 94.0701L1144.73 88.0118M1156.14 94.0701L1168.18 100.467M1250.92 88.0104L1237.39 82.2607M1250.92 88.0104L1304.02 88.0118M1319.71 94.0701L1304.02 88.0118M1319.71 94.0701L1336.26 100.467M1319.71 94.0701L1374.22 94.0715M1144.73 88.0118L1133.91 82.2607M1185.65 82.2607H1237.39M1185.65 82.2607H1133.91M1185.65 82.2607L1174.08 76.7957M1237.39 82.2607L1224.53 76.7957M1237.39 82.2607H1289.13M1304.02 88.0118L1289.13 82.2607M1304.02 88.0118H1357.1M1163.07 71.5958H1212.29M1163.07 71.5958L1152.57 66.6415M1163.07 71.5958H1113.83M1163.07 71.5958L1174.08 76.7957M1212.29 71.5958L1200.63 66.6415M1212.29 71.5958L1224.53 76.7957M1212.29 71.5958H1261.53M1152.57 66.6415H1200.63M1152.57 66.6415H1104.51M1152.57 66.6415L1142.56 61.9171M1113.83 71.5958L1104.51 66.6415M1113.83 71.5958L1123.62 76.7957M1174.08 76.7957H1224.53M1174.08 76.7957H1123.62M1200.63 66.6415L1189.52 61.9171M1200.63 66.6415H1248.7M1224.53 76.7957H1274.99M1261.53 71.5958L1248.7 66.6415M1261.53 71.5958L1274.99 76.7957M1261.53 71.5958H1310.75M1104.51 66.6415L1095.61 61.9171M1142.56 61.9171H1189.52M1142.56 61.9171H1095.61M1142.56 61.9171L1133.02 57.4074M1189.52 61.9171L1178.9 57.4074M1189.52 61.9171H1236.47M1248.7 66.6415L1236.47 61.9171M1248.7 66.6415H1296.76M1123.88 53.0968H1168.75M1123.88 53.0968L1115.14 48.9715M1123.88 53.0968L1079.01 53.0954M1123.88 53.0968L1133.02 57.4074M1168.75 53.0968L1159.04 48.9715M1168.75 53.0968L1178.9 57.4074M1168.75 53.0968L1213.63 53.0954M1115.14 48.9715H1159.04M1115.14 48.9715H1071.24M1115.14 48.9715L1106.78 45.0214M1079.01 53.0954L1071.24 48.9715M1079.01 53.0954L1087.12 57.406M1133.02 57.4074H1178.9M1133.02 57.4074L1087.12 57.406M1159.04 48.9715L1149.75 45.0214M1159.04 48.9715H1202.96M1178.9 57.4074L1224.79 57.406M1213.63 53.0954L1202.96 48.9715M1213.63 53.0954L1224.79 57.406M1213.63 53.0954L1258.5 53.094M1071.24 48.9715L1063.8 45.0214M1106.78 45.0214H1149.75M1106.78 45.0214H1063.8M1106.78 45.0214L1098.76 41.2355M1149.75 45.0214L1140.84 41.2355M1149.75 45.0214H1192.73M1202.96 48.9715L1192.73 45.0214M1202.96 48.9715L1246.86 48.97M1091.07 37.6024H1132.3M1091.07 37.6024L1083.68 34.1139M1091.07 37.6024H1049.84M1091.07 37.6024L1098.76 41.2355M1132.3 37.6024L1124.09 34.1139M1132.3 37.6024L1140.84 41.2355M1132.3 37.6024H1173.52M1083.68 34.1139H1124.09M1083.68 34.1139H1043.26M1083.68 34.1139L1076.58 30.7614M1049.84 37.6024L1043.26 34.1139M1049.84 37.6024L1056.67 41.2341M1098.76 41.2355H1140.84M1124.09 34.1139L1116.2 30.7614L1109.55 27.9349L1108.61 27.538M1124.09 34.1139H1164.5M1140.84 41.2355H1182.93M1173.52 37.6024L1164.5 34.1139M1173.52 37.6024L1182.93 41.2355M1173.52 37.6024L1214.75 37.601M1043.26 34.1139L1036.96 30.7614M1076.58 30.7614H1036.96M1076.58 30.7614L1069.75 27.538M1164.5 34.1139L1155.82 30.7628M1164.5 34.1139L1204.91 34.1125H1245.31M1063.18 24.4352H1101.31M1063.18 24.4352L1056.85 21.4474M1063.18 24.4352H1025.05M1063.18 24.4352L1064.8 25.201L1065.62 25.5854L1069.75 27.538M1101.31 24.4352L1094.28 21.4488M1101.31 24.4352L1108.61 27.538M1101.31 24.4352L1139.44 24.4366M1025.05 24.4352L1019.43 21.4474M1025.05 24.4352L1030.9 27.5366M1069.75 27.538H1108.61M1069.75 27.538H1030.9M1094.28 21.4488H1056.85M1094.28 21.4488L1087.51 18.569M1094.28 21.4488H1131.71M1108.61 27.538H1147.48M1139.44 24.4366L1131.71 21.4488M1139.44 24.4366L1147.48 27.538M1139.44 24.4366H1177.58M1056.85 21.4488H1019.43M1056.85 21.4488L1050.76 18.569M1050.76 18.569H1087.51M1050.76 18.569H1014M1050.76 18.569L1044.88 15.7916M1087.51 18.569L1080.97 15.7916M1087.51 18.569H1124.26M1131.71 21.4488L1124.26 18.569M1131.71 21.4488H1169.14M1039.19 13.111H1074.67M1039.19 13.111L1033.72 10.5216M1039.19 13.111L1003.73 13.1096M1039.19 13.111L1044.88 15.7888M1074.67 13.111L1070.07 11.1599L1069.32 10.84L1068.57 10.5216M1074.67 13.111L1080.97 15.7888M1074.67 13.111L1110.13 13.1096M1033.72 10.5216H1068.57M1033.72 10.5216H998.858M1003.73 13.1096L998.858 10.5216M1003.73 13.1096L1008.77 15.7902M1068.57 10.5216H1103.43M1068.57 10.5216L1062.69 8.02059M1110.13 13.1096L1103.43 10.5216M1110.13 13.1096L1117.07 15.7902M1110.13 13.1096H1145.6M998.858 10.5216L995.311 8.63778L994.149 8.02059M1103.43 10.5216H1138.29M1103.43 10.5216L1096.95 8.02199M1062.69 8.02059L1096.95 8.02199M1062.69 8.02059L1060.53 7.10602L1056.99 5.60511M1062.69 8.02059L1028.41 8.02199L994.149 8.02059M1428.74 94.0715L1410.2 88.0118M1428.74 94.0715H1374.22M1428.74 94.0715L1439.61 97.626M1428.74 94.0715H1439.61M1410.2 88.0118H1357.1M1410.2 88.0118L1392.61 82.2607M1410.2 88.0118H1439.61M1374.22 94.0715L1357.1 88.0118M1374.22 94.0715L1392.28 100.467M1439.61 97.626V94.0715M1439.61 97.626V100.467M1439.61 94.0715V88.0118M1357.1 88.0118L1340.87 82.2607M1392.61 82.2607L1375.89 76.7957M1392.61 82.2607H1340.87M1392.61 82.2607H1439.61M1439.61 88.0118V82.2607M1359.98 71.5958H1409.21M1359.98 71.5958L1344.82 66.6415M1359.98 71.5958H1310.75M1359.98 71.5958L1375.89 76.7957M1409.21 71.5958L1392.89 66.6415M1409.21 71.5958L1426.34 76.7957M1409.21 71.5958H1439.61M1344.82 66.6415H1392.89M1344.82 66.6415H1296.76M1344.82 66.6415L1330.37 61.9171M1310.75 71.5958L1296.76 66.6415M1310.75 71.5958L1325.43 76.7971M1375.89 76.7957H1426.34M1375.89 76.7957L1325.43 76.7971M1392.89 66.6415L1377.33 61.9171M1392.89 66.6415H1439.61M1426.34 76.7957L1439.61 80.8257M1426.34 76.7957L1439.61 76.7971M1439.61 71.5958L1439.98 71.5972M1439.61 71.5958V66.6415M1439.61 71.5958V76.7971M1296.76 66.6415L1283.42 61.9185M1330.37 61.9171H1377.33M1330.37 61.9171L1283.42 61.9185M1330.37 61.9171L1316.57 57.406M1377.33 61.9171L1362.47 57.406M1377.33 61.9171L1424.28 61.9185M1439.61 66.6415V66.2641M1303.39 53.0954H1348.26M1303.39 53.0954L1290.77 48.97M1303.39 53.0954L1258.5 53.094M1303.39 53.0954L1316.57 57.406M1348.26 53.0954L1334.67 48.97M1348.26 53.0954L1362.47 57.406M1348.26 53.0954L1393.14 53.094L1378.58 48.97M1290.77 48.97H1334.67M1290.77 48.97H1246.86M1290.77 48.97L1278.68 45.02M1258.5 53.094L1246.86 48.97M1258.5 53.094L1270.68 57.4074M1316.57 57.406H1362.47M1316.57 57.406L1270.68 57.4074M1334.67 48.97L1321.66 45.02M1334.67 48.97H1378.58M1362.47 57.406L1408.35 57.4074M1246.86 48.97L1235.71 45.0214M1278.68 45.02H1321.66M1278.68 45.02L1235.71 45.0214M1278.68 45.02L1267.1 41.2341M1321.66 45.02L1309.18 41.2341M1321.66 45.02L1364.63 45.0214M1378.58 48.97L1364.63 45.0214M1378.58 48.97L1422.48 48.9715M1255.98 37.601H1297.21M1255.98 37.601L1245.31 34.1125M1255.98 37.601H1214.75M1255.98 37.601L1267.1 41.2341M1297.21 37.601L1285.72 34.1125M1297.21 37.601L1309.18 41.2341M1297.21 37.601H1338.44M1245.31 34.1125H1285.72M1245.31 34.1125L1235.06 30.76M1214.75 37.601L1204.91 34.1153L1195.44 30.7628L1186.33 27.538M1214.75 37.601L1225.01 41.2341M1267.1 41.2341H1309.18M1267.1 41.2341H1225.01M1285.72 34.1125L1274.68 30.76M1285.72 34.1125H1326.13M1309.18 41.2341L1351.27 41.2355M1338.44 37.601L1326.13 34.1153M1338.44 37.601L1351.27 41.2355M1338.44 37.601H1379.67M1235.06 30.76L1195.44 30.7614H1155.82M1235.06 30.76L1225.2 27.538M1215.7 24.4338H1253.84M1215.7 24.4338L1206.57 21.446M1215.7 24.4338H1177.58M1215.7 24.4338L1225.2 27.5366M1206.57 21.446L1243.99 21.4474M1206.57 21.446L1169.14 21.4474M1206.57 21.446L1197.76 18.5676M1253.84 24.4352L1243.99 21.4474M1253.84 24.4352L1264.06 27.5366M1253.84 24.4352H1291.97M1243.99 21.4474L1234.51 18.5676M1243.99 21.4474H1281.42M1291.97 24.4352L1281.42 21.4488M1291.97 24.4352L1302.92 27.538M1291.97 24.4352L1330.1 24.4366M1197.76 18.5676H1234.51M1197.76 18.5676L1161.01 18.569M1197.76 18.5676L1189.26 15.7916H1153.16M1234.51 18.5676L1225.36 15.7888M1234.51 18.5676H1271.25M1181.06 13.1096H1216.52M1181.06 13.1096L1173.14 10.5216M1181.06 13.1096H1145.6M1181.06 13.1096L1189.26 15.7888H1225.36M1216.52 13.1096L1208 10.5216M1216.52 13.1096L1225.36 15.7888M1216.52 13.1096H1251.99M1173.14 10.5216H1208M1173.14 10.5216L1165.49 8.02059M1173.14 10.5216H1138.29M1145.6 13.1096L1138.29 10.5216M1145.6 13.1096L1153.16 15.7902M1208 10.5216H1242.85M1208 10.5216L1199.76 8.02059M1225.36 15.7888L1261.46 15.7902M1251.99 13.1096L1242.85 10.5216M1251.99 13.1096L1261.46 15.7902M1251.99 13.1096H1287.46M1165.49 8.02059H1199.76M1165.49 8.02059L1158.09 5.60371M1165.49 8.02059L1131.23 8.02199M1138.29 10.5216L1131.23 8.02199M1242.85 10.5216H1277.72M1242.85 10.5216L1234.03 8.02059M1199.76 8.02059H1234.03M1420.9 37.601L1406.95 34.1125M1420.9 37.601H1379.67M1420.9 37.601L1435.44 41.2341M1420.9 37.601H1439.61M1406.95 34.1125H1366.54L1326.13 34.1153M1406.95 34.1125L1393.54 30.76M1406.95 34.1125H1439.61M1379.67 37.601L1366.54 34.1153L1353.92 30.7628L1341.78 27.538M1379.67 37.601L1393.35 41.2355M1435.44 41.2341L1393.35 41.2355M1435.44 41.2341H1439.61M1435.44 41.2341L1439.61 42.2791M1439.61 37.601V34.1125M1439.61 37.601V41.2341M1393.54 30.76L1433.16 30.7614M1393.54 30.76H1353.92L1314.3 30.7614M1393.54 30.76L1380.64 27.5366M1439.61 34.1125V32.2848M1368.23 24.4338H1406.37M1368.23 24.4338L1356.28 21.446M1368.23 24.4338H1330.1M1368.23 24.4338L1380.64 27.5366M1356.28 21.446L1393.71 21.4474M1356.28 21.446L1318.86 21.4474M1356.28 21.446L1344.75 18.5676M1380.64 27.5366H1419.51M1380.64 27.5366H1341.78M1406.37 24.4352L1393.71 21.4474M1406.37 24.4352L1419.51 27.5366M1406.37 24.4352H1439.61M1393.71 21.4474L1381.51 18.5676M1393.71 21.4474H1431.13M1419.51 27.5366L1433.16 30.7614M1419.51 27.5366H1439.61M1439.61 24.4352H1439.73M1439.61 24.4352V23.3424M1439.61 24.4352V27.5366M1344.75 18.5676H1381.51M1344.75 18.5676H1308.01M1344.75 18.5676L1333.65 15.7888M1381.51 18.5676L1369.74 15.7888M1381.51 18.5676H1418.26M1431.13 21.4474L1418.26 18.5676M1431.13 21.4474L1439.61 23.3424M1431.13 21.4474H1439.61M1322.93 13.1096H1358.39M1322.93 13.1096L1312.57 10.5216M1322.93 13.1096H1287.46M1322.93 13.1096L1333.65 15.7888M1358.39 13.1096L1347.43 10.5216M1358.39 13.1096L1369.74 15.7888M1358.39 13.1096H1393.86M1312.57 10.5216H1347.43M1312.57 10.5216L1302.56 8.02059M1312.57 10.5216H1277.72M1287.46 13.1096L1277.72 10.5216M1287.46 13.1096L1297.55 15.7902M1333.65 15.7888H1369.74M1333.65 15.7888L1297.55 15.7902M1347.43 10.5216H1382.29M1347.43 10.5216L1336.84 8.02059M1369.74 15.7888L1405.85 15.7902M1393.86 13.1096L1382.29 10.5216M1393.86 13.1096L1405.85 15.7902M1393.86 13.1096H1429.32M1302.56 8.02059H1336.84M1302.56 8.02059H1268.3M1302.56 8.02059L1292.9 5.60371M1277.72 10.5216L1268.3 8.02059M1382.29 10.5216H1417.14M1382.29 10.5216L1371.1 8.02059M1336.84 8.02059H1371.1M1405.85 15.7902L1418.26 18.5676M1405.85 15.7902H1439.61M1429.32 13.1096L1417.14 10.5216M1429.32 13.1096L1439.61 15.2951M1429.32 13.1096H1439.61M1417.14 10.5216L1405.38 8.02059M1417.14 10.5216H1439.61M1371.1 8.02059H1405.38M1371.1 8.02059L1360.29 5.60231M1418.26 18.5676H1439.61M1439.61 15.7902V15.2951M1439.61 15.7902V18.5676M1439.61 15.2951V13.1096M1439.61 13.1096V10.5216M1405.38 8.02059L1394 5.60231M1405.38 8.02059H1439.61M1439.61 10.5216V8.02059M1360.29 5.60231H1394M1439.61 8.02059H1439.64L1439.61 8.01498M1439.61 8.02059V8.01498M1439.61 23.3424V21.4474M1439.61 21.4474V18.5676M1308.01 18.5676L1297.55 15.7902M1308.01 18.5676H1271.25M1308.01 18.5676L1318.86 21.4488M1297.55 15.7902H1261.46M1433.16 30.7614L1439.61 32.2848M1433.16 30.7614L1439.61 30.76M1439.61 27.5366V30.76M1439.61 32.2848V30.76M1261.46 15.7902L1271.25 18.5676M1234.03 8.02059H1268.3M1234.03 8.02059L1225.49 5.60231M1271.25 18.5676L1281.42 21.4488M1268.3 8.02059L1259.19 5.60371M1225.49 5.60231L1259.19 5.60091M1281.42 21.4488H1318.86M1318.86 21.4488L1330.1 24.4366M1161.01 18.569L1153.16 15.7916M1161.01 18.569H1124.26M1161.01 18.569L1169.14 21.4488M1153.16 15.7916H1117.07M1302.92 27.538H1264.06M1302.92 27.538L1314.3 30.7628M1302.92 27.538H1341.78M1330.1 24.4366L1341.78 27.538M1264.06 27.538L1274.68 30.7628M1264.06 27.538H1225.2M1274.68 30.7628H1314.3M1274.68 30.7628H1235.06M1225.2 27.538H1186.33M1314.3 30.7628L1326.13 34.1153M1186.33 27.538L1177.58 24.4366M1186.33 27.538H1147.48M1351.27 41.2355L1364.63 45.0214M1351.27 41.2355H1393.35M1393.35 41.2355L1407.61 45.0214M1364.63 45.0214H1407.61M1407.61 45.0214L1422.48 48.9715M1407.61 45.0214H1439.61M1439.61 41.2341V42.2791M1439.61 42.2791V45.0214M1422.48 48.9715L1438.01 53.0954M1422.48 48.9715H1439.61M1235.71 45.0214L1225.01 41.2341M1235.71 45.0214H1192.73M1439.61 45.0214H1439.84M1439.61 45.0214V48.9715M1225.01 41.2341L1182.93 41.2355M1408.35 57.4074L1393.14 53.0968L1438.01 53.0954M1408.35 57.4074L1424.28 61.9185M1408.35 57.4074H1439.61M1438.01 53.0954L1439.61 53.5219M1438.01 53.0954L1439.61 53.0968M1439.61 48.9715V53.094V53.5219M1439.61 53.5219L1440 53.6243M1439.61 53.5219V57.4074M1424.28 61.9185H1439.61M1424.28 61.9185L1439.61 66.2641M1439.61 57.4074V61.9185M1439.61 61.9185V66.2641M1283.42 61.9185L1270.68 57.4074M1283.42 61.9185L1236.47 61.9171M1270.68 57.4074L1224.79 57.406M1439.61 80.8257L1439.76 80.8692M1439.61 80.8257V76.7971M1439.61 80.8257V82.2607M1325.43 76.7971L1274.99 76.7957M1325.43 76.7971L1340.87 82.2607M1080.97 15.7916H1117.07M1080.97 15.7916H1044.88M1117.07 15.7916L1124.26 18.569M1044.88 15.7916H1008.77M1096.95 8.02199H1131.23M1096.95 8.02199L1090.7 5.60371M1131.23 8.02199L1130.35 7.7148L1128.63 7.10602L1124.4 5.60511M1169.14 21.4488L1170.17 21.8149L1177.58 24.4366M1014 18.569L1008.77 15.7902M1014 18.569L977.254 18.5676M1014 18.569L1019.43 21.4474M1147.48 27.538L1155.82 30.7628M1155.82 30.7628H1116.2H1076.58M1036.96 30.7614L1030.9 27.5366M1036.96 30.7614H997.34M1182.93 41.2355L1192.73 45.0214M1063.8 45.0214L1056.67 41.2327M1063.8 45.0214L1020.83 45.02M1098.76 41.2327H1056.67M1056.67 41.2327H1014.59M1224.79 57.406L1236.47 61.9171M1095.61 61.9171L1087.12 57.406M1095.61 61.9171H1048.66M1087.12 57.406H1041.23M1274.99 76.7957L1289.13 82.2607M1289.13 82.2607H1340.87M1133.91 82.2607L1123.62 76.7957M1133.91 82.2607H1082.17M1123.62 76.7957H1073.17M1336.26 100.467H1280.23M1336.26 100.467L1353.75 107.223M1336.26 100.467H1392.28M1392.28 100.467L1411.36 107.223M1392.28 100.467H1439.61M1280.23 100.467H1224.21M1224.21 100.467H1168.18M1353.75 107.223H1411.36M1411.36 107.223L1431.55 114.377M1411.36 107.223H1439.61M1439.61 100.467V107.223M1372.26 114.376H1431.55M1431.55 114.376H1439.61M1431.55 114.376L1439.61 117.229M1180.91 107.223L1168.18 100.467M1180.91 107.223H1123.29M1439.61 107.223V114.376M1168.18 100.467H1112.16M1412.73 130.012L1434.92 138.581M1412.73 130.012H1439.61M1439.61 121.959V117.229M1439.61 121.959V130.012M1439.61 114.376V117.229M1434.92 138.581L1439.61 140.396M1434.92 138.581H1439.61M1439.61 130.012V138.581M1439.61 140.396V138.581M1239.94 138.581L1223.81 130.012M1239.94 138.581H1174.95M1223.81 130.012H1160.83M1439.61 167.93V168.195M1439.61 168.195V179.15M1295.19 167.93H1223.29M1295.19 167.93L1316.31 179.15M936.581 15.7902H972.678M972.678 15.7902L973.807 16.4748L977.254 18.5676M972.678 15.7902H1008.77M959.881 8.02059H994.149M959.881 8.02059L955.898 5.60231M977.254 18.5676L981.997 21.4474M994.149 8.02059L992.424 7.10462L989.597 5.60371M955.898 5.60231L989.597 5.60091M981.997 21.4474H1019.43M867.002 18.5676L866.34 17.8634L864.388 15.7902M867.002 18.5676H830.252M867.002 18.5676L869.712 21.4474M864.388 15.7902H828.291M992.029 27.5366H953.168M992.029 27.5366L997.34 30.7614M992.029 27.5366H1030.9M953.168 27.5366H914.307M914.307 27.5366H875.445M878.48 30.76L878.095 30.3504L877.709 29.9436L875.445 27.5366M878.48 30.76L838.859 30.7614M875.445 27.5366H836.584M1014.59 41.2327H972.506H930.421M1014.59 41.2327L1020.83 45.02M930.421 41.2327H888.338M891.901 45.02L888.338 41.2327M891.901 45.02H848.926M888.338 41.2327H846.253M1041.23 57.406L1048.66 61.9171M907.806 61.9171L903.561 57.406M907.806 61.9171H860.855M903.561 57.406H857.671M1073.17 76.7957L1082.17 82.2607M926.956 82.2607L921.811 76.7957M926.956 82.2607H875.217M921.811 76.7957H871.358M1112.16 100.467H1056.14M1112.16 100.467L1123.29 107.223M1056.14 100.467H1000.12M1000.12 100.467H944.093M950.453 107.223L944.093 100.467M950.453 107.223H892.84M950.453 107.223L957.185 114.377M944.093 100.467H888.07M1160.83 130.012L1174.95 138.581M979.969 138.581L971.903 130.012M979.969 138.581H914.976M971.903 130.012H908.927M1223.29 167.93L1241.77 179.15M1241.77 179.15H1316.31M1018.16 179.15L1007.6 167.93M1018.16 179.15H943.617M1007.6 167.93H935.697M1306.38 218.368L1331.61 233.691M1306.38 218.368H1390.15M1363.58 204.259L1390.15 218.368M1363.58 204.259H1439.61M1390.15 218.368L1418.99 233.691M1390.15 218.368H1439.61M1439.61 204.259V218.368M1331.61 233.691H1418.99M1418.99 233.691H1439.61M1418.99 233.691L1439.61 244.646M1439.61 218.368V233.691M1439.61 250.393V244.646M1439.61 250.393V268.669M1069.49 233.691L1055.07 218.368M1069.49 233.691H982.121M1439.61 233.691V244.646M1055.07 218.368H971.303M1422.31 288.75L1439.61 299.254M1422.31 288.75H1439.61M1439.61 268.669V288.75M1353.28 310.921H1247.74M1353.28 310.921H1439.61M1439.61 299.254V288.75M1439.61 299.254V310.921M1247.74 310.921H1142.19M1439.61 310.921V311H0.387269V310.921H86.7152M1142.19 310.921L1121.32 288.75M1142.19 310.921H1036.64M1121.32 288.75H1020.99M828.291 15.7902L828.531 16.1311L828.774 16.4748L829.018 16.8198L829.263 17.1663L830.252 18.5676M822.805 8.02059L822.589 7.71339L822.16 7.10462L821.733 6.50005L821.52 6.19986L821.099 5.60231M822.805 8.02059L857.075 8.01919M857.075 8.01919L855.08 5.89968L854.799 5.60231M821.099 5.60231H854.799M720 15.7902H683.903M836.584 27.5366L838.859 30.7614M720 30.7614V27.5366M720 27.5366L681.139 27.5352M804.168 41.2327H846.253M804.168 41.2327H762.084M846.253 41.2327L848.926 45.02M762.084 41.2327H720M720 45.02V41.2327M720 45.02H677.025M720 41.2327H677.916M857.671 57.406L860.855 61.9171M720 61.9171V57.406M720 61.9171H673.048M720 57.406H674.11M871.358 76.7957L875.217 82.2607M720 82.2607V76.7957M720 82.2607H668.261M720 76.7957H669.547M888.07 100.467H832.046M888.07 100.467L892.84 107.223M832.046 100.467H776.023M776.023 100.467H720M720 107.223V100.467M720 107.223H662.387M720 107.223V114.377M720 100.467H663.977M908.927 130.012L914.976 138.581M720 138.581V130.012M720 138.581H655.008M720 130.012H657.024M935.697 167.93L943.617 179.15M943.617 179.15L952.142 191.226M952.142 191.226L961.343 204.259M961.343 204.259L971.303 218.368M720 179.15V167.93M720 179.15H645.461M720 179.15V191.226M720 167.93H648.101M971.303 218.368H887.535M971.303 218.368L982.121 233.691M887.535 218.368L894.747 233.691M887.535 218.368H803.768M894.747 233.691H982.121M894.747 233.691H807.374M803.768 218.368L807.374 233.691M803.768 218.368H720M807.374 233.691H720M1006.81 268.669L1020.99 288.75M720 233.691V218.368M720 233.691H632.626M720 218.368V204.259M720 218.368H636.232M1020.99 288.75H920.66M1020.99 288.75L1036.64 310.921M920.66 288.75L931.095 310.921M920.66 288.75H820.331M931.095 310.921H1036.64M931.095 310.921H825.547M820.331 288.75L825.547 310.921M820.331 288.75H720M825.547 310.921H720M720 310.921V288.75M720 310.921H614.453M720 288.75V268.669M720 288.75H619.669M683.903 15.7902L684.533 13.1096M683.903 15.7902L683.822 16.1311L683.742 16.4748L683.661 16.8198L683.249 18.5676M685.731 8.02059H651.463M685.731 8.02059H720M685.731 8.02059L685.946 7.10462L686.018 6.80163L686.301 5.60231M651.463 8.02059H617.195M617.195 8.02059L582.925 8.01919M720 8.02059V5.60091M686.301 5.60231L720 5.60091M575.612 15.7888L539.516 15.7902M575.612 15.7888L578.135 13.1096M575.612 15.7888L573.66 17.8634L572.998 18.5676M681.139 27.5352L680.38 30.76M680.38 30.76L720 30.7586M564.555 27.5366L566.392 25.584L566.755 25.1996L567.116 24.8167L567.474 24.4352M564.555 27.5366H525.693M564.555 27.5366L561.52 30.7614M678.77 37.601L678.454 38.9448L678.133 40.3111L677.916 41.2327M677.916 41.2327L677.697 42.1655L677.251 44.0591L677.025 45.02M677.025 45.02L676.214 48.4665L676.095 48.97M548.099 45.02L551.662 41.2327M548.099 45.02L505.123 45.0186M551.662 41.2327H509.579M674.11 57.406H628.219M674.11 57.406L673.048 61.9171M628.219 57.406L626.097 61.9171M628.219 57.406H582.329M626.097 61.9171H673.048M626.097 61.9171H579.145M582.329 57.406L579.145 61.9171M582.329 57.406H536.438M673.048 61.9171L671.937 66.6415M579.145 61.9171H532.194M669.547 76.7957L668.261 82.2607M513.044 82.2607L518.189 76.7957M513.044 82.2607L461.305 82.2593M518.189 76.7957L467.736 76.7943M663.977 100.467H607.954M663.977 100.467L662.387 107.223M607.954 100.467H551.931M551.931 100.467H495.907M489.547 107.223L495.907 100.465M489.547 107.223L431.934 107.222M657.024 130.012L655.008 138.581M460.031 138.581L468.097 130.012M460.031 138.581H395.038M468.097 130.012H405.121M648.101 167.93L645.461 179.15M645.461 179.15L642.619 191.226M642.619 191.226L639.552 204.259M642.619 191.226H720M639.552 204.259L636.232 218.368M639.552 204.259H720M720 191.226V204.259M421.844 179.15L432.404 167.93M421.844 179.15H347.304M421.844 179.15L410.477 191.226M432.404 167.93H360.506M636.232 218.368H552.465M636.232 218.368L632.626 233.691M552.465 218.368L545.253 233.691M552.465 218.368H468.696M545.253 233.691H632.626M545.253 233.691H457.879M468.696 218.368L457.879 233.691M468.696 218.368H384.929M457.879 233.691H370.505M624.396 268.669L619.669 288.75M624.396 268.669H720M370.505 233.691L384.929 218.368M370.505 233.691H283.132M384.929 218.368L398.209 204.259M384.929 218.368H301.161M619.669 288.75H519.34M619.669 288.75L614.453 310.921M519.34 288.75L508.905 310.921M519.34 288.75H419.009M508.905 310.921H614.453M508.905 310.921H403.358M419.009 288.75L403.358 310.921M419.009 288.75H318.679M403.358 310.921H297.81M297.81 310.921L318.679 288.75M297.81 310.921H192.264M318.679 288.75L337.582 268.669M318.679 288.75H218.35M499.497 18.5676H536.247M499.497 18.5676H462.746M539.516 15.7902L542.669 13.1096M539.516 15.7902L536.247 18.5676M542.669 13.1096H578.135M548.657 8.02059L582.925 8.01919M548.657 8.02059L550.798 6.19986L551.501 5.60231M536.247 18.5676H572.998M582.925 8.01919L583.214 7.71339L583.787 7.10462L585.201 5.60371M551.501 5.60231L585.201 5.60091M462.746 18.5676H425.996M529.344 24.4352L528.895 24.8167L528.444 25.1996L527.079 26.3597L526.619 26.751L525.693 27.5366M529.344 24.4352H567.474M425.996 18.5676L431.224 15.7902M425.996 18.5676H389.245M431.224 15.7902H395.127M431.224 15.7902L436.27 13.1096M525.693 27.5366L521.9 30.7614M482.281 30.7614H521.9M482.281 30.7614H442.66M521.9 30.7614L517.957 34.1139M521.9 30.7614H561.52M561.52 30.7614L558.366 34.1125L517.957 34.1139M442.66 30.7614L403.041 30.76M517.957 34.1139L513.853 37.601M403.041 30.76L408.364 27.9335L409.109 27.5352M403.041 30.76L363.42 30.7614M403.041 30.76L396.73 34.1125M409.109 27.5352L414.949 24.4352M409.109 27.5352L370.247 27.5366M509.579 41.2327L505.123 45.0186M376.197 45.0186L383.325 41.2313M376.197 45.0186L333.221 45.02M376.197 45.0186L368.76 48.97M383.325 41.2313L341.241 41.2327M490.55 57.4046L485.242 61.9157M490.55 57.4046H536.438M536.438 57.4046L532.194 61.9157M485.242 61.9157H532.194M467.736 76.7943L461.305 82.2593M306.089 82.2593L316.377 76.7943M306.089 82.2593L254.35 82.2607M316.377 76.7943L265.924 76.7957M439.884 100.465L431.934 107.222M439.884 100.465H495.907M431.934 107.222L423.518 114.376M259.094 107.222L271.816 100.467M259.094 107.222L201.481 107.223M327.839 100.467H271.816M271.816 100.467H215.792M405.121 130.012L395.038 138.581M200.062 138.581L216.193 130.012M200.062 138.581H135.07M216.193 130.012H153.217M360.506 167.93L347.304 179.15M410.477 191.226L398.209 204.259M123.687 179.15L144.81 167.93M123.687 179.15H49.1471M144.81 167.93H72.9116M301.161 218.368L283.132 233.691M283.132 233.691L263.48 250.393M21.0106 233.691L49.8576 218.368M21.0106 233.691H0.387269M21.0106 233.691L0.387269 244.646M49.8576 218.368H0.387269M218.35 288.75L192.264 310.921M86.7152 310.921H192.264M359.03 15.7902L352.495 18.5676M359.03 15.7902H395.127M359.03 15.7902H322.933M352.495 18.5676H389.245M352.495 18.5676H315.744M395.127 15.7902L400.804 13.1096M395.127 15.7902L389.245 18.5676M322.933 15.7902L315.744 18.5676M322.933 15.7902H286.837M400.804 13.1096H436.27M411.583 8.02059L412.231 7.71339L416.702 5.60231M411.583 8.02059H445.851M445.851 8.02059L447.576 7.10462L450.403 5.60371M416.702 5.60231L450.403 5.60091M315.744 18.5676H278.994M376.819 24.4352L375.199 25.1996L370.247 27.5366M376.819 24.4352H414.949M278.994 18.5676L286.837 15.7902M278.994 18.5676H242.243M286.837 15.7902H250.74M286.837 15.7902L294.405 13.1096M370.247 27.5366L363.42 30.7614M363.42 30.7614L356.322 34.1125M356.322 34.1125L348.935 37.601M356.322 34.1125H396.73M348.935 37.601L341.241 41.2341M348.935 37.601H390.164M396.73 34.1125L390.164 37.601M244.561 30.76L253.663 27.5366M244.561 30.76L204.941 30.7614M244.561 30.76L235.096 34.1125M253.663 27.5366L262.424 24.4352M253.663 27.5366H214.802M390.164 37.601L383.325 41.2341M341.241 41.2327L333.221 45.02M333.221 45.02L324.856 48.97M324.856 48.97H368.76M204.296 45.02L214.988 41.2327M204.296 45.02H161.321M204.296 45.02L193.141 48.97M214.988 41.2327H172.904M306.988 57.406H261.098M306.988 57.406L297.435 61.9171M306.988 57.406H352.878M352.878 57.406L344.386 61.9171M261.098 57.406L250.483 61.9171M261.098 57.406H215.207M250.483 61.9171H297.435M250.483 61.9171H203.531M215.207 57.406L203.531 61.9171M215.207 57.406H169.318M297.435 61.9171L287.429 66.6415M297.435 61.9171H344.386M344.386 61.9171L335.492 66.6415M203.531 61.9171H156.58M287.429 66.6415H335.492M156.58 61.9171L169.318 57.406M156.58 61.9171H109.628M156.58 61.9171L143.238 66.6415M169.318 57.406L181.493 53.094M169.318 57.406H123.428M265.924 76.7957L254.35 82.2607M99.1328 82.2607L114.566 76.7957M99.1328 82.2607H47.3929M114.566 76.7957H64.1125M215.792 100.467H159.769M215.792 100.467L201.481 107.223M159.769 100.467H103.746M103.746 100.467H47.7231M28.6419 107.223H0.387269M259.095 107.223L245.631 114.377M47.7231 100.467L28.6399 107.223M47.7231 100.467H0.387269M153.217 130.012L135.07 138.581M5.08553 138.581H0.387269M5.08553 138.581L0.387269 140.396M27.2649 130.012H0.38827M0.38827 130.012V138.581V140.395V147.717V157.478V167.93V168.195V179.15V191.226V202.173V204.259V218.368V233.691V244.646V250.393V268.669V288.75V299.254V310.921M0.38827 130.012V121.959V117.229M72.9116 167.93L49.1471 179.15M49.1471 179.15L23.5724 191.226M49.1471 179.15H0.387269M23.5724 191.226H0.387269M23.5724 191.226L0.387269 202.173M250.74 15.7902L242.243 18.5676M274.508 8.02059L275.445 7.71339L281.904 5.60231M274.508 8.02059H308.776M308.776 8.02059L309.642 7.71339L315.603 5.60231M281.904 5.60231H315.603M131.992 18.5676L142.449 15.7902M131.992 18.5676H95.2411M142.449 15.7902H106.352M214.802 27.5366L204.941 30.7614M235.096 34.1125L225.246 37.601M86.0818 30.76L98.2182 27.5366M86.0818 30.76L46.4613 30.7614M98.2182 27.5366L109.899 24.4352M98.2182 27.5366H59.3572M225.246 37.601L214.988 41.2341M172.904 41.2327H130.82H88.7346M172.904 41.2327L161.321 45.02M88.7346 41.2327H46.6524L32.3945 45.02M193.141 48.97L181.493 53.094M32.3945 45.02H0.387269M123.428 57.406L136.618 53.0954L181.493 53.094M123.428 57.406L109.628 61.9171M0.387269 57.406V53.5205M64.1125 76.7957L47.3929 82.2607M47.3929 82.2607L29.8007 88.0118M47.3929 82.2607H0.387269M29.8007 88.0118L11.2618 94.0715M29.8007 88.0118H0.386268M11.2618 94.0715H65.7797M11.2618 94.0715H0.387269M11.2618 94.0715L0.387269 97.626M0.38827 114.377H8.44386L0.38827 117.229M0.38827 117.229V114.376V107.223V100.467V97.626V94.0715V88.0118V82.2607V80.8243V76.7957V71.5958M70.2558 15.7902H106.352M70.2558 15.7902H34.1577M106.352 15.7902L95.2411 18.5676M34.1577 15.7902H0.387269M137.432 8.02059H171.701M137.432 8.02059L147.105 5.60231M171.701 8.02059L180.805 5.60231M147.105 5.60231H180.805M0.387269 18.5676V15.7902M0.387269 15.7902V15.2951V13.1096V10.5216M59.3572 27.5366L46.4613 30.7614M6.84175 30.7614H46.4613M6.84175 30.7614L0.387269 32.2848M6.84175 30.7614L0.387269 30.76M0.387269 27.5366V30.76M46.4613 30.7614L33.053 34.1139M33.053 34.1139L19.0993 37.601M33.053 34.1139L0.387269 34.1125M19.0993 37.601L4.56617 41.2341M19.0993 37.601H0.387269M0.387269 34.1125V37.5996V41.2327M0.387269 34.1125V32.2848M0.387269 32.2848V30.76M4.56617 41.2341L0.38827 42.2777M4.56717 41.2327H0.387269M0.387269 41.2327V42.2777V45.02M0.387269 48.97V53.094M0.387269 48.97V45.02M0.387269 45.02H0.163113M0.387269 53.094V53.5205M0.387269 53.5205L0 53.6229M0.38827 13.1096H10.6754L0.38827 15.2937M34.626 8.02059L46.0049 5.60231M34.626 8.02059H0.387269M0.387269 10.5216V8.02059M0.387269 8.02059H0.358249L0.38827 8.01498M1124.4 5.60091H1090.7M46.0059 5.60091L12.3065 5.60231M12.3065 5.60231L0.38827 8.01498M12.3065 5.60231H0.38827M0.38827 8.01498V8.01919M0.38827 8.01498V5.60231M1439.61 8.01498V5.60231" stroke="url(#paint0_radial_195_1614)" stroke-opacity="0.4" stroke-width="0.8" stroke-miterlimit="10" stroke-linecap="round" stroke-linejoin="round"/>
<defs>
<radialGradient id="paint0_radial_195_1614" cx="0" cy="0" r="1" gradientUnits="userSpaceOnUse" gradientTransform="translate(720 312.713) rotate(-90) scale(498.403 1114.64)">
<stop stop-color="#B3B3B3"/>
<stop offset="0.742" stop-color="#9A9A9A" stop-opacity="0"/>
</radialGradient>
</defs>
</svg>
